<?xml version="1.0" encoding="utf-8"?>
<svg xmlns="http://www.w3.org/2000/svg" xmlns:xlink="http://www.w3.org/1999/xlink" width="600" height="400" viewBox="0 0 2400 1600">
<defs>
  <clipPath id="clip800">
    <rect x="0" y="0" width="2400" height="1600"/>
  </clipPath>
</defs>
<path clip-path="url(#clip800)" d="M0 1600 L2400 1600 L2400 0 L0 0  Z" fill="#ffffff" fill-rule="evenodd" fill-opacity="1"/>
<defs>
  <clipPath id="clip801">
    <rect x="480" y="0" width="1681" height="1600"/>
  </clipPath>
</defs>
<path clip-path="url(#clip800)" d="M156.02 1486.45 L2352.76 1486.45 L2352.76 47.2441 L156.02 47.2441  Z" fill="#ffffff" fill-rule="evenodd" fill-opacity="1"/>
<defs>
  <clipPath id="clip802">
    <rect x="156" y="47" width="2198" height="1440"/>
  </clipPath>
</defs>
<polyline clip-path="url(#clip802)" style="stroke:#000000; stroke-linecap:round; stroke-linejoin:round; stroke-width:2; stroke-opacity:0.1; fill:none" points="276.844,1486.45 276.844,47.2441 "/>
<polyline clip-path="url(#clip802)" style="stroke:#000000; stroke-linecap:round; stroke-linejoin:round; stroke-width:2; stroke-opacity:0.1; fill:none" points="765.616,1486.45 765.616,47.2441 "/>
<polyline clip-path="url(#clip802)" style="stroke:#000000; stroke-linecap:round; stroke-linejoin:round; stroke-width:2; stroke-opacity:0.1; fill:none" points="1254.39,1486.45 1254.39,47.2441 "/>
<polyline clip-path="url(#clip802)" style="stroke:#000000; stroke-linecap:round; stroke-linejoin:round; stroke-width:2; stroke-opacity:0.1; fill:none" points="1743.16,1486.45 1743.16,47.2441 "/>
<polyline clip-path="url(#clip802)" style="stroke:#000000; stroke-linecap:round; stroke-linejoin:round; stroke-width:2; stroke-opacity:0.1; fill:none" points="2231.93,1486.45 2231.93,47.2441 "/>
<polyline clip-path="url(#clip800)" style="stroke:#000000; stroke-linecap:round; stroke-linejoin:round; stroke-width:4; stroke-opacity:1; fill:none" points="156.02,1486.45 2352.76,1486.45 "/>
<polyline clip-path="url(#clip800)" style="stroke:#000000; stroke-linecap:round; stroke-linejoin:round; stroke-width:4; stroke-opacity:1; fill:none" points="276.844,1486.45 276.844,1467.55 "/>
<polyline clip-path="url(#clip800)" style="stroke:#000000; stroke-linecap:round; stroke-linejoin:round; stroke-width:4; stroke-opacity:1; fill:none" points="765.616,1486.45 765.616,1467.55 "/>
<polyline clip-path="url(#clip800)" style="stroke:#000000; stroke-linecap:round; stroke-linejoin:round; stroke-width:4; stroke-opacity:1; fill:none" points="1254.39,1486.45 1254.39,1467.55 "/>
<polyline clip-path="url(#clip800)" style="stroke:#000000; stroke-linecap:round; stroke-linejoin:round; stroke-width:4; stroke-opacity:1; fill:none" points="1743.16,1486.45 1743.16,1467.55 "/>
<polyline clip-path="url(#clip800)" style="stroke:#000000; stroke-linecap:round; stroke-linejoin:round; stroke-width:4; stroke-opacity:1; fill:none" points="2231.93,1486.45 2231.93,1467.55 "/>
<path clip-path="url(#clip800)" d="M239.147 1517.37 Q235.536 1517.37 233.708 1520.93 Q231.902 1524.47 231.902 1531.6 Q231.902 1538.71 233.708 1542.27 Q235.536 1545.82 239.147 1545.82 Q242.782 1545.82 244.587 1542.27 Q246.416 1538.71 246.416 1531.6 Q246.416 1524.47 244.587 1520.93 Q242.782 1517.37 239.147 1517.37 M239.147 1513.66 Q244.958 1513.66 248.013 1518.27 Q251.092 1522.85 251.092 1531.6 Q251.092 1540.33 248.013 1544.94 Q244.958 1549.52 239.147 1549.52 Q233.337 1549.52 230.259 1544.94 Q227.203 1540.33 227.203 1531.6 Q227.203 1522.85 230.259 1518.27 Q233.337 1513.66 239.147 1513.66 Z" fill="#000000" fill-rule="nonzero" fill-opacity="1" /><path clip-path="url(#clip800)" d="M259.309 1542.97 L264.194 1542.97 L264.194 1548.85 L259.309 1548.85 L259.309 1542.97 Z" fill="#000000" fill-rule="nonzero" fill-opacity="1" /><path clip-path="url(#clip800)" d="M284.379 1517.37 Q280.768 1517.37 278.939 1520.93 Q277.133 1524.47 277.133 1531.6 Q277.133 1538.71 278.939 1542.27 Q280.768 1545.82 284.379 1545.82 Q288.013 1545.82 289.818 1542.27 Q291.647 1538.71 291.647 1531.6 Q291.647 1524.47 289.818 1520.93 Q288.013 1517.37 284.379 1517.37 M284.379 1513.66 Q290.189 1513.66 293.244 1518.27 Q296.323 1522.85 296.323 1531.6 Q296.323 1540.33 293.244 1544.94 Q290.189 1549.52 284.379 1549.52 Q278.568 1549.52 275.49 1544.94 Q272.434 1540.33 272.434 1531.6 Q272.434 1522.85 275.49 1518.27 Q278.568 1513.66 284.379 1513.66 Z" fill="#000000" fill-rule="nonzero" fill-opacity="1" /><path clip-path="url(#clip800)" d="M314.541 1517.37 Q310.929 1517.37 309.101 1520.93 Q307.295 1524.47 307.295 1531.6 Q307.295 1538.71 309.101 1542.27 Q310.929 1545.82 314.541 1545.82 Q318.175 1545.82 319.98 1542.27 Q321.809 1538.71 321.809 1531.6 Q321.809 1524.47 319.98 1520.93 Q318.175 1517.37 314.541 1517.37 M314.541 1513.66 Q320.351 1513.66 323.406 1518.27 Q326.485 1522.85 326.485 1531.6 Q326.485 1540.33 323.406 1544.94 Q320.351 1549.52 314.541 1549.52 Q308.73 1549.52 305.652 1544.94 Q302.596 1540.33 302.596 1531.6 Q302.596 1522.85 305.652 1518.27 Q308.73 1513.66 314.541 1513.66 Z" fill="#000000" fill-rule="nonzero" fill-opacity="1" /><path clip-path="url(#clip800)" d="M728.417 1517.37 Q724.806 1517.37 722.977 1520.93 Q721.172 1524.47 721.172 1531.6 Q721.172 1538.71 722.977 1542.27 Q724.806 1545.82 728.417 1545.82 Q732.051 1545.82 733.857 1542.27 Q735.685 1538.71 735.685 1531.6 Q735.685 1524.47 733.857 1520.93 Q732.051 1517.37 728.417 1517.37 M728.417 1513.66 Q734.227 1513.66 737.283 1518.27 Q740.361 1522.85 740.361 1531.6 Q740.361 1540.33 737.283 1544.94 Q734.227 1549.52 728.417 1549.52 Q722.607 1549.52 719.528 1544.94 Q716.473 1540.33 716.473 1531.6 Q716.473 1522.85 719.528 1518.27 Q722.607 1513.66 728.417 1513.66 Z" fill="#000000" fill-rule="nonzero" fill-opacity="1" /><path clip-path="url(#clip800)" d="M748.579 1542.97 L753.463 1542.97 L753.463 1548.85 L748.579 1548.85 L748.579 1542.97 Z" fill="#000000" fill-rule="nonzero" fill-opacity="1" /><path clip-path="url(#clip800)" d="M767.676 1544.91 L783.995 1544.91 L783.995 1548.85 L762.051 1548.85 L762.051 1544.91 Q764.713 1542.16 769.296 1537.53 Q773.903 1532.88 775.083 1531.53 Q777.329 1529.01 778.208 1527.27 Q779.111 1525.51 779.111 1523.82 Q779.111 1521.07 777.167 1519.33 Q775.245 1517.6 772.144 1517.6 Q769.945 1517.6 767.491 1518.36 Q765.06 1519.13 762.283 1520.68 L762.283 1515.95 Q765.107 1514.82 767.56 1514.24 Q770.014 1513.66 772.051 1513.66 Q777.421 1513.66 780.616 1516.35 Q783.81 1519.03 783.81 1523.52 Q783.81 1525.65 783 1527.57 Q782.213 1529.47 780.106 1532.07 Q779.528 1532.74 776.426 1535.95 Q773.324 1539.15 767.676 1544.91 Z" fill="#000000" fill-rule="nonzero" fill-opacity="1" /><path clip-path="url(#clip800)" d="M793.856 1514.29 L812.213 1514.29 L812.213 1518.22 L798.139 1518.22 L798.139 1526.7 Q799.157 1526.35 800.176 1526.19 Q801.194 1526 802.213 1526 Q808 1526 811.379 1529.17 Q814.759 1532.34 814.759 1537.76 Q814.759 1543.34 811.287 1546.44 Q807.815 1549.52 801.495 1549.52 Q799.319 1549.52 797.051 1549.15 Q794.805 1548.78 792.398 1548.04 L792.398 1543.34 Q794.481 1544.47 796.704 1545.03 Q798.926 1545.58 801.403 1545.58 Q805.407 1545.58 807.745 1543.48 Q810.083 1541.37 810.083 1537.76 Q810.083 1534.15 807.745 1532.04 Q805.407 1529.94 801.403 1529.94 Q799.528 1529.94 797.653 1530.35 Q795.801 1530.77 793.856 1531.65 L793.856 1514.29 Z" fill="#000000" fill-rule="nonzero" fill-opacity="1" /><path clip-path="url(#clip800)" d="M1216.69 1517.37 Q1213.08 1517.37 1211.25 1520.93 Q1209.45 1524.47 1209.45 1531.6 Q1209.45 1538.71 1211.25 1542.27 Q1213.08 1545.82 1216.69 1545.82 Q1220.33 1545.82 1222.13 1542.27 Q1223.96 1538.71 1223.96 1531.6 Q1223.96 1524.47 1222.13 1520.93 Q1220.33 1517.37 1216.69 1517.37 M1216.69 1513.66 Q1222.5 1513.66 1225.56 1518.27 Q1228.64 1522.85 1228.64 1531.6 Q1228.64 1540.33 1225.56 1544.94 Q1222.5 1549.52 1216.69 1549.52 Q1210.88 1549.52 1207.8 1544.94 Q1204.75 1540.33 1204.75 1531.6 Q1204.75 1522.85 1207.8 1518.27 Q1210.88 1513.66 1216.69 1513.66 Z" fill="#000000" fill-rule="nonzero" fill-opacity="1" /><path clip-path="url(#clip800)" d="M1236.85 1542.97 L1241.74 1542.97 L1241.74 1548.85 L1236.85 1548.85 L1236.85 1542.97 Z" fill="#000000" fill-rule="nonzero" fill-opacity="1" /><path clip-path="url(#clip800)" d="M1251.97 1514.29 L1270.33 1514.29 L1270.33 1518.22 L1256.25 1518.22 L1256.25 1526.7 Q1257.27 1526.35 1258.29 1526.19 Q1259.31 1526 1260.33 1526 Q1266.11 1526 1269.49 1529.17 Q1272.87 1532.34 1272.87 1537.76 Q1272.87 1543.34 1269.4 1546.44 Q1265.93 1549.52 1259.61 1549.52 Q1257.43 1549.52 1255.16 1549.15 Q1252.92 1548.78 1250.51 1548.04 L1250.51 1543.34 Q1252.59 1544.47 1254.82 1545.03 Q1257.04 1545.58 1259.52 1545.58 Q1263.52 1545.58 1265.86 1543.48 Q1268.2 1541.37 1268.2 1537.76 Q1268.2 1534.15 1265.86 1532.04 Q1263.52 1529.94 1259.52 1529.94 Q1257.64 1529.94 1255.77 1530.35 Q1253.91 1530.77 1251.97 1531.65 L1251.97 1514.29 Z" fill="#000000" fill-rule="nonzero" fill-opacity="1" /><path clip-path="url(#clip800)" d="M1292.08 1517.37 Q1288.47 1517.37 1286.64 1520.93 Q1284.84 1524.47 1284.84 1531.6 Q1284.84 1538.71 1286.64 1542.27 Q1288.47 1545.82 1292.08 1545.82 Q1295.72 1545.82 1297.52 1542.27 Q1299.35 1538.71 1299.35 1531.6 Q1299.35 1524.47 1297.52 1520.93 Q1295.72 1517.37 1292.08 1517.37 M1292.08 1513.66 Q1297.89 1513.66 1300.95 1518.27 Q1304.03 1522.85 1304.03 1531.6 Q1304.03 1540.33 1300.95 1544.94 Q1297.89 1549.52 1292.08 1549.52 Q1286.27 1549.52 1283.2 1544.94 Q1280.14 1540.33 1280.14 1531.6 Q1280.14 1522.85 1283.2 1518.27 Q1286.27 1513.66 1292.08 1513.66 Z" fill="#000000" fill-rule="nonzero" fill-opacity="1" /><path clip-path="url(#clip800)" d="M1705.96 1517.37 Q1702.35 1517.37 1700.52 1520.93 Q1698.72 1524.47 1698.72 1531.6 Q1698.72 1538.71 1700.52 1542.27 Q1702.35 1545.82 1705.96 1545.82 Q1709.59 1545.82 1711.4 1542.27 Q1713.23 1538.71 1713.23 1531.6 Q1713.23 1524.47 1711.4 1520.93 Q1709.59 1517.37 1705.96 1517.37 M1705.96 1513.66 Q1711.77 1513.66 1714.83 1518.27 Q1717.91 1522.85 1717.91 1531.6 Q1717.91 1540.33 1714.83 1544.94 Q1711.77 1549.52 1705.96 1549.52 Q1700.15 1549.52 1697.07 1544.94 Q1694.02 1540.33 1694.02 1531.6 Q1694.02 1522.85 1697.07 1518.27 Q1700.15 1513.66 1705.96 1513.66 Z" fill="#000000" fill-rule="nonzero" fill-opacity="1" /><path clip-path="url(#clip800)" d="M1726.12 1542.97 L1731.01 1542.97 L1731.01 1548.85 L1726.12 1548.85 L1726.12 1542.97 Z" fill="#000000" fill-rule="nonzero" fill-opacity="1" /><path clip-path="url(#clip800)" d="M1740.01 1514.29 L1762.23 1514.29 L1762.23 1516.28 L1749.69 1548.85 L1744.8 1548.85 L1756.61 1518.22 L1740.01 1518.22 L1740.01 1514.29 Z" fill="#000000" fill-rule="nonzero" fill-opacity="1" /><path clip-path="url(#clip800)" d="M1771.4 1514.29 L1789.76 1514.29 L1789.76 1518.22 L1775.68 1518.22 L1775.68 1526.7 Q1776.7 1526.35 1777.72 1526.19 Q1778.74 1526 1779.76 1526 Q1785.54 1526 1788.92 1529.17 Q1792.3 1532.34 1792.3 1537.76 Q1792.3 1543.34 1788.83 1546.44 Q1785.36 1549.52 1779.04 1549.52 Q1776.86 1549.52 1774.59 1549.15 Q1772.35 1548.78 1769.94 1548.04 L1769.94 1543.34 Q1772.03 1544.47 1774.25 1545.03 Q1776.47 1545.58 1778.95 1545.58 Q1782.95 1545.58 1785.29 1543.48 Q1787.63 1541.37 1787.63 1537.76 Q1787.63 1534.15 1785.29 1532.04 Q1782.95 1529.94 1778.95 1529.94 Q1777.07 1529.94 1775.2 1530.35 Q1773.34 1530.77 1771.4 1531.65 L1771.4 1514.29 Z" fill="#000000" fill-rule="nonzero" fill-opacity="1" /><path clip-path="url(#clip800)" d="M2184 1544.91 L2191.64 1544.91 L2191.64 1518.55 L2183.33 1520.21 L2183.33 1515.95 L2191.6 1514.29 L2196.27 1514.29 L2196.27 1544.91 L2203.91 1544.91 L2203.91 1548.85 L2184 1548.85 L2184 1544.91 Z" fill="#000000" fill-rule="nonzero" fill-opacity="1" /><path clip-path="url(#clip800)" d="M2213.36 1542.97 L2218.24 1542.97 L2218.24 1548.85 L2213.36 1548.85 L2213.36 1542.97 Z" fill="#000000" fill-rule="nonzero" fill-opacity="1" /><path clip-path="url(#clip800)" d="M2238.42 1517.37 Q2234.81 1517.37 2232.98 1520.93 Q2231.18 1524.47 2231.18 1531.6 Q2231.18 1538.71 2232.98 1542.27 Q2234.81 1545.82 2238.42 1545.82 Q2242.06 1545.82 2243.86 1542.27 Q2245.69 1538.71 2245.69 1531.6 Q2245.69 1524.47 2243.86 1520.93 Q2242.06 1517.37 2238.42 1517.37 M2238.42 1513.66 Q2244.23 1513.66 2247.29 1518.27 Q2250.37 1522.85 2250.37 1531.6 Q2250.37 1540.33 2247.29 1544.94 Q2244.23 1549.52 2238.42 1549.52 Q2232.61 1549.52 2229.54 1544.94 Q2226.48 1540.33 2226.48 1531.6 Q2226.48 1522.85 2229.54 1518.27 Q2232.61 1513.66 2238.42 1513.66 Z" fill="#000000" fill-rule="nonzero" fill-opacity="1" /><path clip-path="url(#clip800)" d="M2268.59 1517.37 Q2264.98 1517.37 2263.15 1520.93 Q2261.34 1524.47 2261.34 1531.6 Q2261.34 1538.71 2263.15 1542.27 Q2264.98 1545.82 2268.59 1545.82 Q2272.22 1545.82 2274.03 1542.27 Q2275.85 1538.71 2275.85 1531.6 Q2275.85 1524.47 2274.03 1520.93 Q2272.22 1517.37 2268.59 1517.37 M2268.59 1513.66 Q2274.4 1513.66 2277.45 1518.27 Q2280.53 1522.85 2280.53 1531.6 Q2280.53 1540.33 2277.45 1544.94 Q2274.4 1549.52 2268.59 1549.52 Q2262.78 1549.52 2259.7 1544.94 Q2256.64 1540.33 2256.64 1531.6 Q2256.64 1522.85 2259.7 1518.27 Q2262.78 1513.66 2268.59 1513.66 Z" fill="#000000" fill-rule="nonzero" fill-opacity="1" /><polyline clip-path="url(#clip802)" style="stroke:#000000; stroke-linecap:round; stroke-linejoin:round; stroke-width:2; stroke-opacity:0.1; fill:none" points="156.02,1486.45 2352.76,1486.45 "/>
<polyline clip-path="url(#clip802)" style="stroke:#000000; stroke-linecap:round; stroke-linejoin:round; stroke-width:2; stroke-opacity:0.1; fill:none" points="156.02,1075.25 2352.76,1075.25 "/>
<polyline clip-path="url(#clip802)" style="stroke:#000000; stroke-linecap:round; stroke-linejoin:round; stroke-width:2; stroke-opacity:0.1; fill:none" points="156.02,664.046 2352.76,664.046 "/>
<polyline clip-path="url(#clip802)" style="stroke:#000000; stroke-linecap:round; stroke-linejoin:round; stroke-width:2; stroke-opacity:0.1; fill:none" points="156.02,252.845 2352.76,252.845 "/>
<polyline clip-path="url(#clip800)" style="stroke:#000000; stroke-linecap:round; stroke-linejoin:round; stroke-width:4; stroke-opacity:1; fill:none" points="156.02,1486.45 156.02,47.2441 "/>
<polyline clip-path="url(#clip800)" style="stroke:#000000; stroke-linecap:round; stroke-linejoin:round; stroke-width:4; stroke-opacity:1; fill:none" points="156.02,1486.45 174.917,1486.45 "/>
<polyline clip-path="url(#clip800)" style="stroke:#000000; stroke-linecap:round; stroke-linejoin:round; stroke-width:4; stroke-opacity:1; fill:none" points="156.02,1075.25 174.917,1075.25 "/>
<polyline clip-path="url(#clip800)" style="stroke:#000000; stroke-linecap:round; stroke-linejoin:round; stroke-width:4; stroke-opacity:1; fill:none" points="156.02,664.046 174.917,664.046 "/>
<polyline clip-path="url(#clip800)" style="stroke:#000000; stroke-linecap:round; stroke-linejoin:round; stroke-width:4; stroke-opacity:1; fill:none" points="156.02,252.845 174.917,252.845 "/>
<path clip-path="url(#clip800)" d="M62.9365 1472.25 Q59.3254 1472.25 57.4967 1475.81 Q55.6912 1479.35 55.6912 1486.48 Q55.6912 1493.59 57.4967 1497.15 Q59.3254 1500.7 62.9365 1500.7 Q66.5707 1500.7 68.3763 1497.15 Q70.205 1493.59 70.205 1486.48 Q70.205 1479.35 68.3763 1475.81 Q66.5707 1472.25 62.9365 1472.25 M62.9365 1468.54 Q68.7467 1468.54 71.8022 1473.15 Q74.8809 1477.73 74.8809 1486.48 Q74.8809 1495.21 71.8022 1499.82 Q68.7467 1504.4 62.9365 1504.4 Q57.1264 1504.4 54.0477 1499.82 Q50.9921 1495.21 50.9921 1486.48 Q50.9921 1477.73 54.0477 1473.15 Q57.1264 1468.54 62.9365 1468.54 Z" fill="#000000" fill-rule="nonzero" fill-opacity="1" /><path clip-path="url(#clip800)" d="M83.0984 1497.85 L87.9827 1497.85 L87.9827 1503.73 L83.0984 1503.73 L83.0984 1497.85 Z" fill="#000000" fill-rule="nonzero" fill-opacity="1" /><path clip-path="url(#clip800)" d="M108.168 1487.32 Q104.834 1487.32 102.913 1489.1 Q101.015 1490.88 101.015 1494.01 Q101.015 1497.13 102.913 1498.91 Q104.834 1500.7 108.168 1500.7 Q111.501 1500.7 113.422 1498.91 Q115.344 1497.11 115.344 1494.01 Q115.344 1490.88 113.422 1489.1 Q111.524 1487.32 108.168 1487.32 M103.492 1485.33 Q100.483 1484.58 98.7928 1482.52 Q97.1261 1480.46 97.1261 1477.5 Q97.1261 1473.36 100.066 1470.95 Q103.029 1468.54 108.168 1468.54 Q113.33 1468.54 116.27 1470.95 Q119.209 1473.36 119.209 1477.5 Q119.209 1480.46 117.52 1482.52 Q115.853 1484.58 112.867 1485.33 Q116.246 1486.11 118.121 1488.4 Q120.02 1490.7 120.02 1494.01 Q120.02 1499.03 116.941 1501.71 Q113.885 1504.4 108.168 1504.4 Q102.45 1504.4 99.3715 1501.71 Q96.316 1499.03 96.316 1494.01 Q96.316 1490.7 98.2141 1488.4 Q100.112 1486.11 103.492 1485.33 M101.779 1477.94 Q101.779 1480.63 103.446 1482.13 Q105.135 1483.64 108.168 1483.64 Q111.177 1483.64 112.867 1482.13 Q114.58 1480.63 114.58 1477.94 Q114.58 1475.26 112.867 1473.75 Q111.177 1472.25 108.168 1472.25 Q105.135 1472.25 103.446 1473.75 Q101.779 1475.26 101.779 1477.94 Z" fill="#000000" fill-rule="nonzero" fill-opacity="1" /><path clip-path="url(#clip800)" d="M63.0291 1061.05 Q59.418 1061.05 57.5893 1064.61 Q55.7838 1068.15 55.7838 1075.28 Q55.7838 1082.39 57.5893 1085.95 Q59.418 1089.49 63.0291 1089.49 Q66.6633 1089.49 68.4689 1085.95 Q70.2976 1082.39 70.2976 1075.28 Q70.2976 1068.15 68.4689 1064.61 Q66.6633 1061.05 63.0291 1061.05 M63.0291 1057.34 Q68.8393 1057.34 71.8948 1061.95 Q74.9735 1066.53 74.9735 1075.28 Q74.9735 1084.01 71.8948 1088.61 Q68.8393 1093.2 63.0291 1093.2 Q57.2189 1093.2 54.1403 1088.61 Q51.0847 1084.01 51.0847 1075.28 Q51.0847 1066.53 54.1403 1061.95 Q57.2189 1057.34 63.0291 1057.34 Z" fill="#000000" fill-rule="nonzero" fill-opacity="1" /><path clip-path="url(#clip800)" d="M83.191 1086.65 L88.0753 1086.65 L88.0753 1092.53 L83.191 1092.53 L83.191 1086.65 Z" fill="#000000" fill-rule="nonzero" fill-opacity="1" /><path clip-path="url(#clip800)" d="M98.3993 1091.81 L98.3993 1087.55 Q100.159 1088.38 101.964 1088.82 Q103.77 1089.26 105.506 1089.26 Q110.135 1089.26 112.566 1086.16 Q115.02 1083.04 115.367 1076.69 Q114.024 1078.68 111.964 1079.75 Q109.904 1080.81 107.404 1080.81 Q102.219 1080.81 99.1863 1077.69 Q96.1771 1074.54 96.1771 1069.1 Q96.1771 1063.78 99.3252 1060.56 Q102.473 1057.34 107.705 1057.34 Q113.7 1057.34 116.848 1061.95 Q120.02 1066.53 120.02 1075.28 Q120.02 1083.45 116.131 1088.34 Q112.265 1093.2 105.714 1093.2 Q103.955 1093.2 102.149 1092.85 Q100.344 1092.5 98.3993 1091.81 M107.705 1077.16 Q110.853 1077.16 112.682 1075 Q114.533 1072.85 114.533 1069.1 Q114.533 1065.37 112.682 1063.22 Q110.853 1061.05 107.705 1061.05 Q104.557 1061.05 102.705 1063.22 Q100.876 1065.37 100.876 1069.1 Q100.876 1072.85 102.705 1075 Q104.557 1077.16 107.705 1077.16 Z" fill="#000000" fill-rule="nonzero" fill-opacity="1" /><path clip-path="url(#clip800)" d="M53.6541 677.391 L61.293 677.391 L61.293 651.025 L52.9829 652.692 L52.9829 648.432 L61.2467 646.766 L65.9226 646.766 L65.9226 677.391 L73.5614 677.391 L73.5614 681.326 L53.6541 681.326 L53.6541 677.391 Z" fill="#000000" fill-rule="nonzero" fill-opacity="1" /><path clip-path="url(#clip800)" d="M83.0058 675.446 L87.8901 675.446 L87.8901 681.326 L83.0058 681.326 L83.0058 675.446 Z" fill="#000000" fill-rule="nonzero" fill-opacity="1" /><path clip-path="url(#clip800)" d="M108.075 649.844 Q104.464 649.844 102.635 653.409 Q100.83 656.951 100.83 664.08 Q100.83 671.187 102.635 674.752 Q104.464 678.293 108.075 678.293 Q111.709 678.293 113.515 674.752 Q115.344 671.187 115.344 664.08 Q115.344 656.951 113.515 653.409 Q111.709 649.844 108.075 649.844 M108.075 646.141 Q113.885 646.141 116.941 650.747 Q120.02 655.33 120.02 664.08 Q120.02 672.807 116.941 677.414 Q113.885 681.997 108.075 681.997 Q102.265 681.997 99.1863 677.414 Q96.1308 672.807 96.1308 664.08 Q96.1308 655.33 99.1863 650.747 Q102.265 646.141 108.075 646.141 Z" fill="#000000" fill-rule="nonzero" fill-opacity="1" /><path clip-path="url(#clip800)" d="M54.881 266.189 L62.5198 266.189 L62.5198 239.824 L54.2097 241.491 L54.2097 237.231 L62.4735 235.565 L67.1494 235.565 L67.1494 266.189 L74.7883 266.189 L74.7883 270.125 L54.881 270.125 L54.881 266.189 Z" fill="#000000" fill-rule="nonzero" fill-opacity="1" /><path clip-path="url(#clip800)" d="M84.2327 264.245 L89.1169 264.245 L89.1169 270.125 L84.2327 270.125 L84.2327 264.245 Z" fill="#000000" fill-rule="nonzero" fill-opacity="1" /><path clip-path="url(#clip800)" d="M100.112 266.189 L107.751 266.189 L107.751 239.824 L99.4409 241.491 L99.4409 237.231 L107.705 235.565 L112.381 235.565 L112.381 266.189 L120.02 266.189 L120.02 270.125 L100.112 270.125 L100.112 266.189 Z" fill="#000000" fill-rule="nonzero" fill-opacity="1" /><path clip-path="url(#clip802)" d="M276.844 1309.92 L276.844 4776.06 L472.353 4776.06 L472.353 1309.92 L276.844 1309.92 L276.844 1309.92  Z" fill="#ee82ee" fill-rule="evenodd" fill-opacity="1"/>
<polyline clip-path="url(#clip802)" style="stroke:#000000; stroke-linecap:round; stroke-linejoin:round; stroke-width:4; stroke-opacity:1; fill:none" points="276.844,1309.92 276.844,4776.06 472.353,4776.06 472.353,1309.92 276.844,1309.92 "/>
<path clip-path="url(#clip802)" d="M472.353 1006.91 L472.353 4776.06 L667.861 4776.06 L667.861 1006.91 L472.353 1006.91 L472.353 1006.91  Z" fill="#ee82ee" fill-rule="evenodd" fill-opacity="1"/>
<polyline clip-path="url(#clip802)" style="stroke:#000000; stroke-linecap:round; stroke-linejoin:round; stroke-width:4; stroke-opacity:1; fill:none" points="472.353,1006.91 472.353,4776.06 667.861,4776.06 667.861,1006.91 472.353,1006.91 "/>
<path clip-path="url(#clip802)" d="M667.861 703.562 L667.861 4776.06 L863.37 4776.06 L863.37 703.562 L667.861 703.562 L667.861 703.562  Z" fill="#ee82ee" fill-rule="evenodd" fill-opacity="1"/>
<polyline clip-path="url(#clip802)" style="stroke:#000000; stroke-linecap:round; stroke-linejoin:round; stroke-width:4; stroke-opacity:1; fill:none" points="667.861,703.562 667.861,4776.06 863.37,4776.06 863.37,703.562 667.861,703.562 "/>
<path clip-path="url(#clip802)" d="M863.37 463.133 L863.37 4776.06 L1058.88 4776.06 L1058.88 463.133 L863.37 463.133 L863.37 463.133  Z" fill="#ee82ee" fill-rule="evenodd" fill-opacity="1"/>
<polyline clip-path="url(#clip802)" style="stroke:#000000; stroke-linecap:round; stroke-linejoin:round; stroke-width:4; stroke-opacity:1; fill:none" points="863.37,463.133 863.37,4776.06 1058.88,4776.06 1058.88,463.133 863.37,463.133 "/>
<path clip-path="url(#clip802)" d="M1058.88 317.568 L1058.88 4776.06 L1254.39 4776.06 L1254.39 317.568 L1058.88 317.568 L1058.88 317.568  Z" fill="#ee82ee" fill-rule="evenodd" fill-opacity="1"/>
<polyline clip-path="url(#clip802)" style="stroke:#000000; stroke-linecap:round; stroke-linejoin:round; stroke-width:4; stroke-opacity:1; fill:none" points="1058.88,317.568 1058.88,4776.06 1254.39,4776.06 1254.39,317.568 1058.88,317.568 "/>
<path clip-path="url(#clip802)" d="M1254.39 213.904 L1254.39 4776.06 L1449.9 4776.06 L1449.9 213.904 L1254.39 213.904 L1254.39 213.904  Z" fill="#ee82ee" fill-rule="evenodd" fill-opacity="1"/>
<polyline clip-path="url(#clip802)" style="stroke:#000000; stroke-linecap:round; stroke-linejoin:round; stroke-width:4; stroke-opacity:1; fill:none" points="1254.39,213.904 1254.39,4776.06 1449.9,4776.06 1449.9,213.904 1254.39,213.904 "/>
<path clip-path="url(#clip802)" d="M1449.9 293.471 L1449.9 4776.06 L1645.41 4776.06 L1645.41 293.471 L1449.9 293.471 L1449.9 293.471  Z" fill="#ee82ee" fill-rule="evenodd" fill-opacity="1"/>
<polyline clip-path="url(#clip802)" style="stroke:#000000; stroke-linecap:round; stroke-linejoin:round; stroke-width:4; stroke-opacity:1; fill:none" points="1449.9,293.471 1449.9,4776.06 1645.41,4776.06 1645.41,293.471 1449.9,293.471 "/>
<path clip-path="url(#clip802)" d="M1645.41 420.985 L1645.41 4776.06 L1840.91 4776.06 L1840.91 420.985 L1645.41 420.985 L1645.41 420.985  Z" fill="#ee82ee" fill-rule="evenodd" fill-opacity="1"/>
<polyline clip-path="url(#clip802)" style="stroke:#000000; stroke-linecap:round; stroke-linejoin:round; stroke-width:4; stroke-opacity:1; fill:none" points="1645.41,420.985 1645.41,4776.06 1840.91,4776.06 1840.91,420.985 1645.41,420.985 "/>
<path clip-path="url(#clip802)" d="M1840.91 716.556 L1840.91 4776.06 L2036.42 4776.06 L2036.42 716.556 L1840.91 716.556 L1840.91 716.556  Z" fill="#ee82ee" fill-rule="evenodd" fill-opacity="1"/>
<polyline clip-path="url(#clip802)" style="stroke:#000000; stroke-linecap:round; stroke-linejoin:round; stroke-width:4; stroke-opacity:1; fill:none" points="1840.91,716.556 1840.91,4776.06 2036.42,4776.06 2036.42,716.556 1840.91,716.556 "/>
<path clip-path="url(#clip802)" d="M2036.42 1194.45 L2036.42 4776.06 L2231.93 4776.06 L2231.93 1194.45 L2036.42 1194.45 L2036.42 1194.45  Z" fill="#ee82ee" fill-rule="evenodd" fill-opacity="1"/>
<polyline clip-path="url(#clip802)" style="stroke:#000000; stroke-linecap:round; stroke-linejoin:round; stroke-width:4; stroke-opacity:1; fill:none" points="2036.42,1194.45 2036.42,4776.06 2231.93,4776.06 2231.93,1194.45 2036.42,1194.45 "/>
<circle clip-path="url(#clip802)" style="fill:#ee82ee; stroke:none; fill-opacity:0" cx="374.598" cy="1309.92" r="2"/>
<circle clip-path="url(#clip802)" style="fill:#ee82ee; stroke:none; fill-opacity:0" cx="570.107" cy="1006.91" r="2"/>
<circle clip-path="url(#clip802)" style="fill:#ee82ee; stroke:none; fill-opacity:0" cx="765.616" cy="703.562" r="2"/>
<circle clip-path="url(#clip802)" style="fill:#ee82ee; stroke:none; fill-opacity:0" cx="961.125" cy="463.133" r="2"/>
<circle clip-path="url(#clip802)" style="fill:#ee82ee; stroke:none; fill-opacity:0" cx="1156.63" cy="317.568" r="2"/>
<circle clip-path="url(#clip802)" style="fill:#ee82ee; stroke:none; fill-opacity:0" cx="1352.14" cy="213.904" r="2"/>
<circle clip-path="url(#clip802)" style="fill:#ee82ee; stroke:none; fill-opacity:0" cx="1547.65" cy="293.471" r="2"/>
<circle clip-path="url(#clip802)" style="fill:#ee82ee; stroke:none; fill-opacity:0" cx="1743.16" cy="420.985" r="2"/>
<circle clip-path="url(#clip802)" style="fill:#ee82ee; stroke:none; fill-opacity:0" cx="1938.67" cy="716.556" r="2"/>
<circle clip-path="url(#clip802)" style="fill:#ee82ee; stroke:none; fill-opacity:0" cx="2134.18" cy="1194.45" r="2"/>
<polyline clip-path="url(#clip802)" style="stroke:#0000ff; stroke-linecap:round; stroke-linejoin:round; stroke-width:12; stroke-opacity:1; fill:none" points="276.844,1486.45 296.395,1453.56 315.946,1420.68 335.497,1387.85 355.047,1355.07 374.598,1322.38 394.149,1289.78 413.7,1257.3 433.251,1224.96 452.802,1192.78 472.353,1160.78 491.904,1128.97 511.454,1097.38 531.005,1066.03 550.556,1034.93 570.107,1004.11 589.658,973.585 609.209,943.376 628.76,913.503 648.311,883.986 667.861,854.843 687.412,826.095 706.963,797.762 726.514,769.863 746.065,742.417 765.616,715.446 785.167,688.968 804.718,663.003 824.268,637.571 843.819,612.692 863.37,588.385 882.921,564.67 902.472,541.567 922.023,519.096 941.574,497.276 961.125,476.127 980.675,455.669 1000.23,435.921 1019.78,416.904 1039.33,398.637 1058.88,381.139 1078.43,364.431 1097.98,348.533 1117.53,333.463 1137.08,319.242 1156.63,305.89 1176.18,293.425 1195.74,281.869 1215.29,271.24 1234.84,261.559 1254.39,252.845 1273.94,245.117 1293.49,238.397 1313.04,232.702 1332.59,228.054 1352.14,224.472 1371.69,221.975 1391.24,220.583 1410.79,220.317 1430.35,221.195 1449.9,223.238 1469.45,226.465 1489,230.896 1508.55,236.551 1528.1,243.45 1547.65,251.611 1567.2,261.055 1586.75,271.803 1606.3,283.872 1625.85,297.284 1645.41,312.058 1664.96,328.213 1684.51,345.769 1704.06,364.747 1723.61,385.166 1743.16,407.045 1762.71,430.405 1782.26,455.264 1801.81,481.643 1821.36,509.562 1840.91,539.041 1860.46,570.098 1880.02,602.754 1899.57,637.028 1919.12,672.941 1938.67,710.511 1958.22,749.76 1977.77,790.706 1997.32,833.368 2016.87,877.768 2036.42,923.925 2055.97,971.858 2075.52,1021.59 2095.08,1073.13 2114.63,1126.51 2134.18,1181.75 2153.73,1238.86 2173.28,1297.86 2192.83,1358.78 2212.38,1421.64 2231.93,1486.45 "/>
<path clip-path="url(#clip800)" d="M633.01 1438.47 L1875.77 1438.47 L1875.77 1174.78 L633.01 1174.78  Z" fill="#ffffff" fill-rule="evenodd" fill-opacity="1"/>
<polyline clip-path="url(#clip800)" style="stroke:#000000; stroke-linecap:round; stroke-linejoin:round; stroke-width:4; stroke-opacity:1; fill:none" points="633.01,1438.47 1875.77,1438.47 1875.77,1174.78 633.01,1174.78 633.01,1438.47 "/>
<path clip-path="url(#clip800)" d="M657.418 1297.84 L803.867 1297.84 L803.867 1227.52 L657.418 1227.52 L657.418 1297.84  Z" fill="#ee82ee" fill-rule="evenodd" fill-opacity="1"/>
<polyline clip-path="url(#clip800)" style="stroke:#000000; stroke-linecap:round; stroke-linejoin:round; stroke-width:4; stroke-opacity:1; fill:none" points="657.418,1297.84 803.867,1297.84 803.867,1227.52 657.418,1227.52 657.418,1297.84 "/>
<path clip-path="url(#clip800)" d="M828.275 1251.53 L835.243 1251.53 L844.062 1275.05 L852.928 1251.53 L859.895 1251.53 L859.895 1286.09 L855.335 1286.09 L855.335 1255.74 L846.423 1279.45 L841.724 1279.45 L832.812 1255.74 L832.812 1286.09 L828.275 1286.09 L828.275 1251.53 Z" fill="#000000" fill-rule="nonzero" fill-opacity="1" /><path clip-path="url(#clip800)" d="M891.168 1272.06 L891.168 1274.15 L871.585 1274.15 Q871.863 1278.54 874.224 1280.86 Q876.608 1283.15 880.844 1283.15 Q883.298 1283.15 885.59 1282.55 Q887.904 1281.95 890.173 1280.74 L890.173 1284.77 Q887.881 1285.74 885.474 1286.25 Q883.066 1286.76 880.59 1286.76 Q874.386 1286.76 870.752 1283.15 Q867.141 1279.54 867.141 1273.38 Q867.141 1267.02 870.567 1263.29 Q874.016 1259.54 879.849 1259.54 Q885.08 1259.54 888.113 1262.92 Q891.168 1266.28 891.168 1272.06 M886.909 1270.81 Q886.863 1267.32 884.941 1265.23 Q883.043 1263.15 879.895 1263.15 Q876.33 1263.15 874.178 1265.17 Q872.048 1267.18 871.724 1270.84 L886.909 1270.81 Z" fill="#000000" fill-rule="nonzero" fill-opacity="1" /><path clip-path="url(#clip800)" d="M902.372 1252.8 L902.372 1260.17 L911.145 1260.17 L911.145 1263.48 L902.372 1263.48 L902.372 1277.55 Q902.372 1280.72 903.228 1281.62 Q904.108 1282.53 906.77 1282.53 L911.145 1282.53 L911.145 1286.09 L906.77 1286.09 Q901.84 1286.09 899.965 1284.26 Q898.09 1282.41 898.09 1277.55 L898.09 1263.48 L894.965 1263.48 L894.965 1260.17 L898.09 1260.17 L898.09 1252.8 L902.372 1252.8 Z" fill="#000000" fill-rule="nonzero" fill-opacity="1" /><path clip-path="url(#clip800)" d="M926.793 1263.15 Q923.367 1263.15 921.376 1265.84 Q919.386 1268.5 919.386 1273.15 Q919.386 1277.8 921.353 1280.49 Q923.344 1283.15 926.793 1283.15 Q930.196 1283.15 932.187 1280.47 Q934.177 1277.78 934.177 1273.15 Q934.177 1268.54 932.187 1265.86 Q930.196 1263.15 926.793 1263.15 M926.793 1259.54 Q932.349 1259.54 935.52 1263.15 Q938.691 1266.76 938.691 1273.15 Q938.691 1279.52 935.52 1283.15 Q932.349 1286.76 926.793 1286.76 Q921.214 1286.76 918.043 1283.15 Q914.895 1279.52 914.895 1273.15 Q914.895 1266.76 918.043 1263.15 Q921.214 1259.54 926.793 1259.54 Z" fill="#000000" fill-rule="nonzero" fill-opacity="1" /><path clip-path="url(#clip800)" d="M962.811 1264.1 L962.811 1250.07 L967.071 1250.07 L967.071 1286.09 L962.811 1286.09 L962.811 1282.2 Q961.469 1284.52 959.409 1285.65 Q957.372 1286.76 954.501 1286.76 Q949.802 1286.76 946.839 1283.01 Q943.899 1279.26 943.899 1273.15 Q943.899 1267.04 946.839 1263.29 Q949.802 1259.54 954.501 1259.54 Q957.372 1259.54 959.409 1260.67 Q961.469 1261.79 962.811 1264.1 M948.298 1273.15 Q948.298 1277.85 950.219 1280.54 Q952.163 1283.2 955.543 1283.2 Q958.923 1283.2 960.867 1280.54 Q962.811 1277.85 962.811 1273.15 Q962.811 1268.45 960.867 1265.79 Q958.923 1263.1 955.543 1263.1 Q952.163 1263.1 950.219 1265.79 Q948.298 1268.45 948.298 1273.15 Z" fill="#000000" fill-rule="nonzero" fill-opacity="1" /><path clip-path="url(#clip800)" d="M987.626 1273.06 Q982.464 1273.06 980.473 1274.24 Q978.483 1275.42 978.483 1278.27 Q978.483 1280.54 979.964 1281.88 Q981.469 1283.2 984.038 1283.2 Q987.58 1283.2 989.709 1280.7 Q991.862 1278.17 991.862 1274.01 L991.862 1273.06 L987.626 1273.06 M996.121 1271.3 L996.121 1286.09 L991.862 1286.09 L991.862 1282.16 Q990.404 1284.52 988.228 1285.65 Q986.052 1286.76 982.904 1286.76 Q978.922 1286.76 976.561 1284.54 Q974.223 1282.29 974.223 1278.54 Q974.223 1274.17 977.14 1271.95 Q980.08 1269.73 985.89 1269.73 L991.862 1269.73 L991.862 1269.31 Q991.862 1266.37 989.918 1264.77 Q987.996 1263.15 984.501 1263.15 Q982.279 1263.15 980.172 1263.68 Q978.066 1264.22 976.122 1265.28 L976.122 1261.35 Q978.459 1260.44 980.659 1260 Q982.858 1259.54 984.941 1259.54 Q990.566 1259.54 993.344 1262.46 Q996.121 1265.37 996.121 1271.3 Z" fill="#000000" fill-rule="nonzero" fill-opacity="1" /><path clip-path="url(#clip800)" d="M1034.99 1264.15 Q1034.27 1263.73 1033.41 1263.54 Q1032.58 1263.34 1031.56 1263.34 Q1027.95 1263.34 1026.01 1265.7 Q1024.08 1268.04 1024.08 1272.43 L1024.08 1286.09 L1019.8 1286.09 L1019.8 1260.17 L1024.08 1260.17 L1024.08 1264.19 Q1025.43 1261.83 1027.58 1260.7 Q1029.73 1259.54 1032.81 1259.54 Q1033.25 1259.54 1033.78 1259.61 Q1034.32 1259.66 1034.96 1259.77 L1034.99 1264.15 Z" fill="#000000" fill-rule="nonzero" fill-opacity="1" /><path clip-path="url(#clip800)" d="M1048.46 1263.15 Q1045.03 1263.15 1043.04 1265.84 Q1041.05 1268.5 1041.05 1273.15 Q1041.05 1277.8 1043.02 1280.49 Q1045.01 1283.15 1048.46 1283.15 Q1051.86 1283.15 1053.85 1280.47 Q1055.84 1277.78 1055.84 1273.15 Q1055.84 1268.54 1053.85 1265.86 Q1051.86 1263.15 1048.46 1263.15 M1048.46 1259.54 Q1054.01 1259.54 1057.19 1263.15 Q1060.36 1266.76 1060.36 1273.15 Q1060.36 1279.52 1057.19 1283.15 Q1054.01 1286.76 1048.46 1286.76 Q1042.88 1286.76 1039.71 1283.15 Q1036.56 1279.52 1036.56 1273.15 Q1036.56 1266.76 1039.71 1263.15 Q1042.88 1259.54 1048.46 1259.54 Z" fill="#000000" fill-rule="nonzero" fill-opacity="1" /><path clip-path="url(#clip800)" d="M1065.57 1260.17 L1085.8 1260.17 L1085.8 1264.05 L1069.78 1282.69 L1085.8 1282.69 L1085.8 1286.09 L1064.99 1286.09 L1064.99 1282.2 L1081.01 1263.57 L1065.57 1263.57 L1065.57 1260.17 Z" fill="#000000" fill-rule="nonzero" fill-opacity="1" /><path clip-path="url(#clip800)" d="M1092.14 1250.07 L1096.42 1250.07 L1096.42 1271.35 L1109.13 1260.17 L1114.57 1260.17 L1100.82 1272.29 L1115.15 1286.09 L1109.59 1286.09 L1096.42 1273.43 L1096.42 1286.09 L1092.14 1286.09 L1092.14 1250.07 Z" fill="#000000" fill-rule="nonzero" fill-opacity="1" /><path clip-path="url(#clip800)" d="M1119.89 1250.07 L1124.15 1250.07 L1124.15 1264.01 L1127.05 1261.92 L1128.81 1264.38 L1124.15 1267.64 L1124.15 1286.09 L1119.89 1286.09 L1119.89 1270.67 L1117.05 1272.71 L1115.33 1270.26 L1119.89 1266.99 L1119.89 1250.07 Z" fill="#000000" fill-rule="nonzero" fill-opacity="1" /><path clip-path="url(#clip800)" d="M1145.01 1273.06 Q1139.85 1273.06 1137.86 1274.24 Q1135.87 1275.42 1135.87 1278.27 Q1135.87 1280.54 1137.35 1281.88 Q1138.85 1283.2 1141.42 1283.2 Q1144.96 1283.2 1147.09 1280.7 Q1149.25 1278.17 1149.25 1274.01 L1149.25 1273.06 L1145.01 1273.06 M1153.5 1271.3 L1153.5 1286.09 L1149.25 1286.09 L1149.25 1282.16 Q1147.79 1284.52 1145.61 1285.65 Q1143.44 1286.76 1140.29 1286.76 Q1136.31 1286.76 1133.94 1284.54 Q1131.61 1282.29 1131.61 1278.54 Q1131.61 1274.17 1134.52 1271.95 Q1137.46 1269.73 1143.27 1269.73 L1149.25 1269.73 L1149.25 1269.31 Q1149.25 1266.37 1147.3 1264.77 Q1145.38 1263.15 1141.88 1263.15 Q1139.66 1263.15 1137.56 1263.68 Q1135.45 1264.22 1133.5 1265.28 L1133.5 1261.35 Q1135.84 1260.44 1138.04 1260 Q1140.24 1259.54 1142.32 1259.54 Q1147.95 1259.54 1150.73 1262.46 Q1153.5 1265.37 1153.5 1271.3 Z" fill="#000000" fill-rule="nonzero" fill-opacity="1" /><path clip-path="url(#clip800)" d="M1179.34 1264.1 L1179.34 1250.07 L1183.6 1250.07 L1183.6 1286.09 L1179.34 1286.09 L1179.34 1282.2 Q1178 1284.52 1175.94 1285.65 Q1173.9 1286.76 1171.03 1286.76 Q1166.33 1286.76 1163.37 1283.01 Q1160.43 1279.26 1160.43 1273.15 Q1160.43 1267.04 1163.37 1263.29 Q1166.33 1259.54 1171.03 1259.54 Q1173.9 1259.54 1175.94 1260.67 Q1178 1261.79 1179.34 1264.1 M1164.82 1273.15 Q1164.82 1277.85 1166.75 1280.54 Q1168.69 1283.2 1172.07 1283.2 Q1175.45 1283.2 1177.39 1280.54 Q1179.34 1277.85 1179.34 1273.15 Q1179.34 1268.45 1177.39 1265.79 Q1175.45 1263.1 1172.07 1263.1 Q1168.69 1263.1 1166.75 1265.79 Q1164.82 1268.45 1164.82 1273.15 Z" fill="#000000" fill-rule="nonzero" fill-opacity="1" /><path clip-path="url(#clip800)" d="M1191.93 1275.86 L1191.93 1260.17 L1196.19 1260.17 L1196.19 1275.7 Q1196.19 1279.38 1197.62 1281.23 Q1199.06 1283.06 1201.93 1283.06 Q1205.38 1283.06 1207.37 1280.86 Q1209.38 1278.66 1209.38 1274.86 L1209.38 1260.17 L1213.64 1260.17 L1213.64 1286.09 L1209.38 1286.09 L1209.38 1282.11 Q1207.83 1284.47 1205.77 1285.63 Q1203.74 1286.76 1201.03 1286.76 Q1196.56 1286.76 1194.25 1283.98 Q1191.93 1281.21 1191.93 1275.86 M1202.65 1259.54 L1202.65 1259.54 Z" fill="#000000" fill-rule="nonzero" fill-opacity="1" /><path clip-path="url(#clip800)" d="M1235.63 1260.17 L1255.87 1260.17 L1255.87 1264.05 L1239.85 1282.69 L1255.87 1282.69 L1255.87 1286.09 L1235.06 1286.09 L1235.06 1282.2 L1251.07 1263.57 L1235.63 1263.57 L1235.63 1260.17 Z" fill="#000000" fill-rule="nonzero" fill-opacity="1" /><path clip-path="url(#clip800)" d="M1262.51 1250.07 L1266.77 1250.07 L1266.77 1264.01 L1269.66 1261.92 L1271.42 1264.38 L1266.77 1267.64 L1266.77 1286.09 L1262.51 1286.09 L1262.51 1270.67 L1259.66 1272.71 L1257.95 1270.26 L1262.51 1266.99 L1262.51 1250.07 Z" fill="#000000" fill-rule="nonzero" fill-opacity="1" /><path clip-path="url(#clip800)" d="M1285.89 1263.15 Q1282.46 1263.15 1280.47 1265.84 Q1278.48 1268.5 1278.48 1273.15 Q1278.48 1277.8 1280.45 1280.49 Q1282.44 1283.15 1285.89 1283.15 Q1289.29 1283.15 1291.28 1280.47 Q1293.27 1277.78 1293.27 1273.15 Q1293.27 1268.54 1291.28 1265.86 Q1289.29 1263.15 1285.89 1263.15 M1285.89 1259.54 Q1291.44 1259.54 1294.62 1263.15 Q1297.79 1266.76 1297.79 1273.15 Q1297.79 1279.52 1294.62 1283.15 Q1291.44 1286.76 1285.89 1286.76 Q1280.31 1286.76 1277.14 1283.15 Q1273.99 1279.52 1273.99 1273.15 Q1273.99 1266.76 1277.14 1263.15 Q1280.31 1259.54 1285.89 1259.54 Z" fill="#000000" fill-rule="nonzero" fill-opacity="1" /><path clip-path="url(#clip800)" d="M1310.59 1250.07 L1314.85 1250.07 L1314.85 1255.47 L1310.59 1255.47 L1310.59 1250.07 M1312.76 1259.54 L1312.76 1259.54 M1302.99 1260.17 L1323.23 1260.17 L1323.23 1264.05 L1307.21 1282.69 L1323.23 1282.69 L1323.23 1286.09 L1302.42 1286.09 L1302.42 1282.2 L1318.43 1263.57 L1302.99 1263.57 L1302.99 1260.17 Z" fill="#000000" fill-rule="nonzero" fill-opacity="1" /><path clip-path="url(#clip800)" d="M1339.78 1263.15 Q1336.35 1263.15 1334.36 1265.84 Q1332.37 1268.5 1332.37 1273.15 Q1332.37 1277.8 1334.34 1280.49 Q1336.33 1283.15 1339.78 1283.15 Q1343.18 1283.15 1345.17 1280.47 Q1347.16 1277.78 1347.16 1273.15 Q1347.16 1268.54 1345.17 1265.86 Q1343.18 1263.15 1339.78 1263.15 M1339.78 1259.54 Q1345.33 1259.54 1348.5 1263.15 Q1351.68 1266.76 1351.68 1273.15 Q1351.68 1279.52 1348.5 1283.15 Q1345.33 1286.76 1339.78 1286.76 Q1334.2 1286.76 1331.03 1283.15 Q1327.88 1279.52 1327.88 1273.15 Q1327.88 1266.76 1331.03 1263.15 Q1334.2 1259.54 1339.78 1259.54 Z" fill="#000000" fill-rule="nonzero" fill-opacity="1" /><path clip-path="url(#clip800)" d="M1380.29 1270.44 L1380.29 1286.09 L1376.03 1286.09 L1376.03 1270.58 Q1376.03 1266.9 1374.59 1265.07 Q1373.16 1263.24 1370.29 1263.24 Q1366.84 1263.24 1364.85 1265.44 Q1362.86 1267.64 1362.86 1271.44 L1362.86 1286.09 L1358.57 1286.09 L1358.57 1260.17 L1362.86 1260.17 L1362.86 1264.19 Q1364.38 1261.85 1366.44 1260.7 Q1368.53 1259.54 1371.24 1259.54 Q1375.7 1259.54 1377.99 1262.32 Q1380.29 1265.07 1380.29 1270.44 Z" fill="#000000" fill-rule="nonzero" fill-opacity="1" /><path clip-path="url(#clip800)" d="M1410.96 1272.06 L1410.96 1274.15 L1391.37 1274.15 Q1391.65 1278.54 1394.01 1280.86 Q1396.4 1283.15 1400.63 1283.15 Q1403.09 1283.15 1405.38 1282.55 Q1407.69 1281.95 1409.96 1280.74 L1409.96 1284.77 Q1407.67 1285.74 1405.26 1286.25 Q1402.86 1286.76 1400.38 1286.76 Q1394.17 1286.76 1390.54 1283.15 Q1386.93 1279.54 1386.93 1273.38 Q1386.93 1267.02 1390.36 1263.29 Q1393.8 1259.54 1399.64 1259.54 Q1404.87 1259.54 1407.9 1262.92 Q1410.96 1266.28 1410.96 1272.06 M1406.7 1270.81 Q1406.65 1267.32 1404.73 1265.23 Q1402.83 1263.15 1399.68 1263.15 Q1396.12 1263.15 1393.97 1265.17 Q1391.84 1267.18 1391.51 1270.84 L1406.7 1270.81 Z" fill="#000000" fill-rule="nonzero" fill-opacity="1" /><path clip-path="url(#clip800)" d="M1435.01 1272.83 Q1435.01 1268.2 1433.09 1265.65 Q1431.19 1263.1 1427.74 1263.1 Q1424.31 1263.1 1422.39 1265.65 Q1420.49 1268.2 1420.49 1272.83 Q1420.49 1277.43 1422.39 1279.98 Q1424.31 1282.53 1427.74 1282.53 Q1431.19 1282.53 1433.09 1279.98 Q1435.01 1277.43 1435.01 1272.83 M1439.27 1282.87 Q1439.27 1289.49 1436.33 1292.71 Q1433.39 1295.95 1427.32 1295.95 Q1425.08 1295.95 1423.09 1295.6 Q1421.1 1295.28 1419.22 1294.59 L1419.22 1290.44 Q1421.1 1291.46 1422.92 1291.95 Q1424.75 1292.43 1426.65 1292.43 Q1430.84 1292.43 1432.92 1290.23 Q1435.01 1288.06 1435.01 1283.64 L1435.01 1281.53 Q1433.69 1283.82 1431.63 1284.96 Q1429.57 1286.09 1426.7 1286.09 Q1421.93 1286.09 1419.01 1282.46 Q1416.1 1278.82 1416.1 1272.83 Q1416.1 1266.81 1419.01 1263.17 Q1421.93 1259.54 1426.7 1259.54 Q1429.57 1259.54 1431.63 1260.67 Q1433.69 1261.81 1435.01 1264.1 L1435.01 1260.17 L1439.27 1260.17 L1439.27 1282.87 Z" fill="#000000" fill-rule="nonzero" fill-opacity="1" /><path clip-path="url(#clip800)" d="M1458.09 1263.15 Q1454.66 1263.15 1452.67 1265.84 Q1450.68 1268.5 1450.68 1273.15 Q1450.68 1277.8 1452.65 1280.49 Q1454.64 1283.15 1458.09 1283.15 Q1461.49 1283.15 1463.48 1280.47 Q1465.47 1277.78 1465.47 1273.15 Q1465.47 1268.54 1463.48 1265.86 Q1461.49 1263.15 1458.09 1263.15 M1458.09 1259.54 Q1463.64 1259.54 1466.81 1263.15 Q1469.98 1266.76 1469.98 1273.15 Q1469.98 1279.52 1466.81 1283.15 Q1463.64 1286.76 1458.09 1286.76 Q1452.51 1286.76 1449.34 1283.15 Q1446.19 1279.52 1446.19 1273.15 Q1446.19 1266.76 1449.34 1263.15 Q1452.51 1259.54 1458.09 1259.54 Z" fill="#000000" fill-rule="nonzero" fill-opacity="1" /><path clip-path="url(#clip800)" d="M1478.13 1280.21 L1483.02 1280.21 L1483.02 1284.19 L1479.22 1291.6 L1476.23 1291.6 L1478.13 1284.19 L1478.13 1280.21 Z" fill="#000000" fill-rule="nonzero" fill-opacity="1" /><path clip-path="url(#clip800)" d="M1543.1 1253.86 Q1543.1 1254.82 1542.28 1254.82 Q1539.63 1254.92 1538.55 1255.81 Q1537.5 1256.67 1537.1 1258.36 L1530.4 1285.08 Q1530.17 1285.93 1530.03 1286.02 Q1529.89 1286.09 1529.63 1286.09 Q1529.3 1286.09 1529.11 1285.93 Q1528.95 1285.76 1528.71 1285.18 L1516.77 1256.93 Q1516.68 1256.74 1516.56 1256.48 Q1516.44 1256.23 1516.35 1256.06 L1510 1281.38 Q1509.81 1282.11 1509.81 1282.48 Q1509.81 1283.4 1510.45 1283.98 Q1511.1 1284.55 1512.97 1284.62 Q1513.94 1284.62 1513.94 1285.13 Q1513.94 1286.09 1513.07 1286.09 Q1512.27 1286.09 1510.61 1286.02 Q1508.95 1285.95 1508.13 1285.95 Q1507.33 1285.95 1505.71 1286.02 Q1504.1 1286.09 1503.32 1286.09 Q1502.72 1286.09 1502.72 1285.55 Q1502.72 1285.13 1502.88 1284.92 Q1503.04 1284.69 1503.18 1284.66 Q1503.32 1284.62 1503.54 1284.62 Q1504.94 1284.57 1505.9 1284.29 Q1506.86 1284.01 1507.4 1283.47 Q1507.96 1282.93 1508.22 1282.39 Q1508.5 1281.83 1508.71 1281.01 L1515.13 1255.24 Q1515.13 1254.82 1511.87 1254.82 Q1511.31 1254.82 1511.08 1254.8 Q1510.87 1254.78 1510.7 1254.66 Q1510.54 1254.54 1510.54 1254.28 Q1510.54 1253.63 1510.82 1253.49 Q1511.1 1253.32 1511.92 1253.32 L1518.36 1253.32 Q1519.18 1253.32 1519.39 1253.46 Q1519.6 1253.58 1519.88 1254.24 L1530.49 1279.27 L1535.86 1257.94 Q1536 1257.52 1536 1256.93 Q1536 1255.99 1535.3 1255.43 Q1534.62 1254.85 1532.74 1254.82 Q1531.88 1254.82 1531.88 1254.28 Q1531.88 1253.84 1532.04 1253.63 Q1532.23 1253.39 1532.37 1253.37 Q1532.53 1253.32 1532.74 1253.32 Q1533.54 1253.32 1535.18 1253.39 Q1536.82 1253.46 1537.64 1253.46 Q1538.44 1253.46 1540.05 1253.39 Q1541.69 1253.32 1542.49 1253.32 Q1542.77 1253.32 1542.91 1253.46 Q1543.07 1253.58 1543.1 1253.72 L1543.1 1253.86 Z" fill="#000000" fill-rule="nonzero" fill-opacity="1" /><path clip-path="url(#clip800)" d="M1554.15 1278.81 Q1554.2 1278.22 1555.11 1278.22 L1584.51 1278.22 Q1585.89 1278.22 1585.91 1278.76 Q1585.91 1279.35 1584.6 1279.32 L1555.44 1279.32 Q1554.15 1279.35 1554.15 1278.81 M1554.15 1269.44 Q1554.15 1268.85 1555.16 1268.88 L1584.46 1268.88 Q1585.89 1268.88 1585.91 1269.44 Q1585.91 1269.98 1584.69 1269.98 L1555.11 1269.98 Q1554.15 1269.98 1554.15 1269.44 Z" fill="#000000" fill-rule="nonzero" fill-opacity="1" /><path clip-path="url(#clip800)" d="M1604.4 1258.71 L1604.4 1257.21 Q1610.16 1257.21 1613.14 1254.14 Q1613.96 1254.14 1614.1 1254.33 Q1614.24 1254.52 1614.24 1255.38 L1614.24 1282.3 Q1614.24 1283.73 1614.94 1284.17 Q1615.64 1284.62 1618.71 1284.62 L1620.24 1284.62 L1620.24 1286.09 Q1618.55 1285.95 1612.46 1285.95 Q1606.37 1285.95 1604.71 1286.09 L1604.71 1284.62 L1606.23 1284.62 Q1609.25 1284.62 1609.98 1284.19 Q1610.7 1283.75 1610.7 1282.3 L1610.7 1257.45 Q1608.2 1258.71 1604.4 1258.71 Z" fill="#000000" fill-rule="nonzero" fill-opacity="1" /><path clip-path="url(#clip800)" d="M1628.15 1270.75 Q1628.15 1263.7 1629.93 1259.86 Q1632.42 1254.14 1638.27 1254.14 Q1639.51 1254.14 1640.8 1254.49 Q1642.11 1254.82 1643.75 1256.11 Q1645.41 1257.4 1646.42 1259.51 Q1648.34 1263.58 1648.34 1270.75 Q1648.34 1277.75 1646.56 1281.57 Q1643.96 1287.14 1638.22 1287.14 Q1636.07 1287.14 1633.87 1286.04 Q1631.69 1284.94 1630.31 1282.3 Q1628.15 1278.34 1628.15 1270.75 M1632.13 1270.16 Q1632.13 1277.4 1632.65 1280.28 Q1633.23 1283.4 1634.83 1284.76 Q1636.44 1286.09 1638.22 1286.09 Q1640.14 1286.09 1641.74 1284.66 Q1643.35 1283.21 1643.85 1280.09 Q1644.38 1277.03 1644.36 1270.16 Q1644.36 1263.49 1643.89 1260.82 Q1643.26 1257.7 1641.57 1256.46 Q1639.91 1255.2 1638.22 1255.2 Q1637.59 1255.2 1636.91 1255.38 Q1636.26 1255.57 1635.3 1256.11 Q1634.34 1256.65 1633.59 1257.98 Q1632.86 1259.32 1632.51 1261.33 Q1632.13 1263.93 1632.13 1270.16 Z" fill="#000000" fill-rule="nonzero" fill-opacity="1" /><path clip-path="url(#clip800)" d="M1653.26 1249.75 Q1653.26 1244.47 1655.95 1241.24 Q1658.63 1238 1662.09 1238 Q1664.11 1238 1665.23 1239.03 Q1666.36 1240.05 1666.36 1241.62 Q1666.36 1242.49 1665.85 1242.87 Q1665.34 1243.24 1664.82 1243.24 Q1664.21 1243.24 1663.73 1242.83 Q1663.26 1242.43 1663.26 1241.69 Q1663.26 1240.18 1665.11 1240.18 Q1664.24 1238.83 1662.16 1238.83 Q1661.52 1238.83 1660.86 1239.03 Q1660.21 1239.21 1659.36 1239.83 Q1658.5 1240.46 1657.85 1241.44 Q1657.19 1242.43 1656.73 1244.28 Q1656.27 1246.13 1656.27 1248.54 L1656.27 1249.34 Q1657.65 1246.02 1660.47 1246.03 Q1663.29 1246.03 1665.24 1248.18 Q1667.19 1250.33 1667.19 1253.51 Q1667.19 1256.77 1665.16 1258.94 Q1663.13 1261.1 1660.27 1261.1 Q1659 1261.1 1657.83 1260.56 Q1656.68 1260.03 1655.6 1258.82 Q1654.54 1257.61 1653.9 1255.28 Q1653.26 1252.95 1653.26 1249.75 M1656.34 1252.77 Q1656.34 1256.07 1656.95 1257.64 Q1657.04 1257.9 1657.26 1258.26 Q1657.49 1258.62 1657.86 1259.1 Q1658.26 1259.56 1658.9 1259.87 Q1659.54 1260.17 1660.27 1260.17 Q1662.52 1260.17 1663.6 1257.98 Q1664.18 1256.77 1664.18 1253.48 Q1664.18 1250.11 1663.57 1248.88 Q1662.54 1246.8 1660.44 1246.8 Q1659.03 1246.8 1658.04 1247.77 Q1657.08 1248.74 1656.7 1250.03 Q1656.34 1251.33 1656.34 1252.77 Z" fill="#000000" fill-rule="nonzero" fill-opacity="1" /><path clip-path="url(#clip800)" d="M1695.83 1282.2 L1695.83 1295.95 L1691.54 1295.95 L1691.54 1260.17 L1695.83 1260.17 L1695.83 1264.1 Q1697.17 1261.79 1699.21 1260.67 Q1701.27 1259.54 1704.11 1259.54 Q1708.84 1259.54 1711.78 1263.29 Q1714.74 1267.04 1714.74 1273.15 Q1714.74 1279.26 1711.78 1283.01 Q1708.84 1286.76 1704.11 1286.76 Q1701.27 1286.76 1699.21 1285.65 Q1697.17 1284.52 1695.83 1282.2 M1710.32 1273.15 Q1710.32 1268.45 1708.37 1265.79 Q1706.45 1263.1 1703.07 1263.1 Q1699.69 1263.1 1697.75 1265.79 Q1695.83 1268.45 1695.83 1273.15 Q1695.83 1277.85 1697.75 1280.54 Q1699.69 1283.2 1703.07 1283.2 Q1706.45 1283.2 1708.37 1280.54 Q1710.32 1277.85 1710.32 1273.15 Z" fill="#000000" fill-rule="nonzero" fill-opacity="1" /><path clip-path="url(#clip800)" d="M1736.82 1264.15 Q1736.1 1263.73 1735.25 1263.54 Q1734.41 1263.34 1733.4 1263.34 Q1729.78 1263.34 1727.84 1265.7 Q1725.92 1268.04 1725.92 1272.43 L1725.92 1286.09 L1721.64 1286.09 L1721.64 1260.17 L1725.92 1260.17 L1725.92 1264.19 Q1727.26 1261.83 1729.41 1260.7 Q1731.57 1259.54 1734.65 1259.54 Q1735.09 1259.54 1735.62 1259.61 Q1736.15 1259.66 1736.8 1259.77 L1736.82 1264.15 Z" fill="#000000" fill-rule="nonzero" fill-opacity="1" /><path clip-path="url(#clip800)" d="M1750.29 1263.15 Q1746.87 1263.15 1744.88 1265.84 Q1742.89 1268.5 1742.89 1273.15 Q1742.89 1277.8 1744.85 1280.49 Q1746.84 1283.15 1750.29 1283.15 Q1753.7 1283.15 1755.69 1280.47 Q1757.68 1277.78 1757.68 1273.15 Q1757.68 1268.54 1755.69 1265.86 Q1753.7 1263.15 1750.29 1263.15 M1750.29 1259.54 Q1755.85 1259.54 1759.02 1263.15 Q1762.19 1266.76 1762.19 1273.15 Q1762.19 1279.52 1759.02 1283.15 Q1755.85 1286.76 1750.29 1286.76 Q1744.71 1286.76 1741.54 1283.15 Q1738.4 1279.52 1738.4 1273.15 Q1738.4 1266.76 1741.54 1263.15 Q1744.71 1259.54 1750.29 1259.54 M1753.51 1248.17 L1758.12 1248.17 L1750.57 1256.88 L1747.03 1256.88 L1753.51 1248.17 Z" fill="#000000" fill-rule="nonzero" fill-opacity="1" /><path clip-path="url(#clip800)" d="M1787.86 1273.15 Q1787.86 1268.45 1785.92 1265.79 Q1784 1263.1 1780.62 1263.1 Q1777.24 1263.1 1775.29 1265.79 Q1773.37 1268.45 1773.37 1273.15 Q1773.37 1277.85 1775.29 1280.54 Q1777.24 1283.2 1780.62 1283.2 Q1784 1283.2 1785.92 1280.54 Q1787.86 1277.85 1787.86 1273.15 M1773.37 1264.1 Q1774.71 1261.79 1776.75 1260.67 Q1778.81 1259.54 1781.66 1259.54 Q1786.38 1259.54 1789.32 1263.29 Q1792.28 1267.04 1792.28 1273.15 Q1792.28 1279.26 1789.32 1283.01 Q1786.38 1286.76 1781.66 1286.76 Q1778.81 1286.76 1776.75 1285.65 Q1774.71 1284.52 1773.37 1282.2 L1773.37 1286.09 L1769.09 1286.09 L1769.09 1250.07 L1773.37 1250.07 L1773.37 1264.1 Z" fill="#000000" fill-rule="nonzero" fill-opacity="1" /><path clip-path="url(#clip800)" d="M1821.52 1272.06 L1821.52 1274.15 L1801.94 1274.15 Q1802.21 1278.54 1804.58 1280.86 Q1806.96 1283.15 1811.2 1283.15 Q1813.65 1283.15 1815.94 1282.55 Q1818.26 1281.95 1820.52 1280.74 L1820.52 1284.77 Q1818.23 1285.74 1815.83 1286.25 Q1813.42 1286.76 1810.94 1286.76 Q1804.74 1286.76 1801.1 1283.15 Q1797.49 1279.54 1797.49 1273.38 Q1797.49 1267.02 1800.92 1263.29 Q1804.37 1259.54 1810.2 1259.54 Q1815.43 1259.54 1818.46 1262.92 Q1821.52 1266.28 1821.52 1272.06 M1817.26 1270.81 Q1817.21 1267.32 1815.29 1265.23 Q1813.39 1263.15 1810.25 1263.15 Q1806.68 1263.15 1804.53 1265.17 Q1802.4 1267.18 1802.08 1270.84 L1817.26 1270.81 Z" fill="#000000" fill-rule="nonzero" fill-opacity="1" /><path clip-path="url(#clip800)" d="M1828.35 1250.07 L1832.63 1250.07 L1832.63 1271.35 L1845.34 1260.17 L1850.78 1260.17 L1837.03 1272.29 L1851.36 1286.09 L1845.8 1286.09 L1832.63 1273.43 L1832.63 1286.09 L1828.35 1286.09 L1828.35 1250.07 Z" fill="#000000" fill-rule="nonzero" fill-opacity="1" /><polyline clip-path="url(#clip800)" style="stroke:#0000ff; stroke-linecap:round; stroke-linejoin:round; stroke-width:12; stroke-opacity:1; fill:none" points="657.418,1350.58 803.867,1350.58 "/>
<path clip-path="url(#clip800)" d="M852.189 1331.68 Q852.189 1332.97 851.37 1333.77 Q850.573 1334.56 849.566 1334.56 Q848.84 1334.56 848.301 1334.12 Q847.786 1333.67 847.786 1332.9 Q847.786 1332.1 848.395 1331.26 Q849.004 1330.42 850.386 1330.3 Q849.472 1329.43 848.02 1329.43 Q847.294 1329.43 846.685 1329.9 Q846.1 1330.35 845.772 1331.07 Q845.42 1331.82 844.624 1336.06 Q844.366 1337.44 844.132 1338.78 Q843.898 1340.11 843.617 1341.52 L847.599 1341.52 Q848.114 1341.52 848.325 1341.54 Q848.535 1341.56 848.699 1341.68 Q848.887 1341.8 848.887 1342.06 Q848.887 1342.71 848.582 1342.88 Q848.301 1343.02 847.458 1343.02 L843.336 1343.02 L840.455 1358.22 Q840.384 1358.66 840.08 1360.07 Q839.799 1361.45 839.12 1363.72 Q838.44 1366.02 837.761 1367.38 Q837.386 1368.15 836.895 1368.88 Q836.426 1369.62 835.747 1370.37 Q835.068 1371.12 834.178 1371.57 Q833.287 1372.04 832.351 1372.04 Q830.758 1372.04 829.516 1371.15 Q828.275 1370.26 828.275 1368.73 Q828.275 1367.45 829.071 1366.65 Q829.891 1365.85 830.898 1365.85 Q831.624 1365.85 832.14 1366.3 Q832.679 1366.74 832.679 1367.52 Q832.679 1367.84 832.561 1368.22 Q832.444 1368.59 832.187 1369.02 Q831.929 1369.46 831.367 1369.77 Q830.805 1370.07 830.032 1370.12 Q830.945 1370.98 832.351 1370.98 Q832.796 1370.98 833.194 1370.8 Q833.592 1370.63 833.92 1370.21 Q834.271 1369.79 834.529 1369.37 Q834.787 1368.97 835.044 1368.2 Q835.302 1367.45 835.466 1366.88 Q835.63 1366.32 835.841 1365.32 Q836.075 1364.31 836.192 1363.7 Q836.309 1363.11 836.52 1361.97 L840.103 1343.02 L836.941 1343.02 Q836.379 1343.02 836.145 1342.99 Q835.934 1342.97 835.77 1342.85 Q835.606 1342.71 835.606 1342.43 Q835.606 1341.99 835.794 1341.8 Q836.004 1341.59 836.239 1341.56 Q836.473 1341.52 837.035 1341.52 L840.361 1341.52 Q841.485 1335.59 841.93 1334 Q842.446 1332.31 843.242 1331.14 Q844.038 1329.95 844.928 1329.39 Q845.818 1328.82 846.545 1328.61 Q847.294 1328.38 848.02 1328.38 Q849.66 1328.38 850.925 1329.27 Q852.189 1330.13 852.189 1331.68 Z" fill="#000000" fill-rule="nonzero" fill-opacity="1" /><path clip-path="url(#clip800)" d="M858.642 1350.21 Q858.642 1342.1 861.664 1335.57 Q862.952 1332.83 864.755 1330.53 Q866.559 1328.24 867.753 1327.23 Q868.948 1326.22 869.276 1326.22 Q869.744 1326.22 869.768 1326.69 Q869.768 1326.93 869.135 1327.51 Q861.406 1335.38 861.429 1350.21 Q861.429 1365.08 868.948 1372.65 Q869.768 1373.47 869.768 1373.72 Q869.768 1374.19 869.276 1374.19 Q868.948 1374.19 867.8 1373.23 Q866.652 1372.27 864.872 1370.07 Q863.092 1367.87 861.804 1365.17 Q858.642 1358.64 858.642 1350.21 Z" fill="#000000" fill-rule="nonzero" fill-opacity="1" /><path clip-path="url(#clip800)" d="M897.3 1344.16 Q897.3 1345.48 896.481 1346.23 Q895.661 1346.95 894.724 1346.95 Q893.834 1346.95 893.365 1346.44 Q892.897 1345.92 892.897 1345.27 Q892.897 1344.38 893.553 1343.6 Q894.209 1342.83 895.192 1342.67 Q894.232 1342.06 892.803 1342.06 Q891.866 1342.06 891.047 1342.55 Q890.25 1343.04 889.758 1343.67 Q889.29 1344.31 888.868 1345.22 Q888.47 1346.11 888.306 1346.65 Q888.166 1347.16 888.049 1347.72 L886.409 1354.28 Q885.613 1357.4 885.613 1358.5 Q885.613 1359.86 886.268 1360.77 Q886.924 1361.66 888.236 1361.66 Q888.751 1361.66 889.337 1361.52 Q889.922 1361.36 890.672 1360.94 Q891.445 1360.49 892.124 1359.83 Q892.827 1359.16 893.506 1358.01 Q894.185 1356.86 894.63 1355.38 Q894.771 1354.87 895.239 1354.87 Q895.825 1354.87 895.825 1355.34 Q895.825 1355.74 895.497 1356.58 Q895.192 1357.4 894.513 1358.48 Q893.857 1359.53 892.991 1360.49 Q892.124 1361.43 890.836 1362.08 Q889.548 1362.74 888.142 1362.74 Q886.128 1362.74 884.793 1361.66 Q883.458 1360.58 882.966 1359.08 Q882.849 1359.3 882.685 1359.58 Q882.521 1359.86 882.029 1360.49 Q881.561 1361.1 881.022 1361.57 Q880.483 1362.01 879.64 1362.36 Q878.82 1362.74 877.93 1362.74 Q876.806 1362.74 875.799 1362.41 Q874.815 1362.08 874.112 1361.33 Q873.41 1360.58 873.41 1359.55 Q873.41 1358.41 874.182 1357.61 Q874.979 1356.79 876.056 1356.79 Q876.736 1356.79 877.274 1357.19 Q877.836 1357.59 877.836 1358.45 Q877.836 1359.41 877.181 1360.14 Q876.525 1360.86 875.588 1361.05 Q876.548 1361.66 877.977 1361.66 Q879.523 1361.66 880.741 1360.3 Q881.959 1358.94 882.544 1356.67 Q883.996 1351.21 884.559 1348.78 Q885.121 1346.32 885.121 1345.27 Q885.121 1344.28 884.863 1343.6 Q884.605 1342.92 884.16 1342.62 Q883.739 1342.29 883.341 1342.17 Q882.966 1342.06 882.544 1342.06 Q881.842 1342.06 881.045 1342.34 Q880.272 1342.62 879.335 1343.27 Q878.422 1343.91 877.555 1345.22 Q876.689 1346.53 876.103 1348.33 Q875.986 1348.87 875.471 1348.87 Q874.909 1348.85 874.909 1348.38 Q874.909 1347.98 875.213 1347.16 Q875.541 1346.32 876.197 1345.27 Q876.876 1344.21 877.743 1343.27 Q878.633 1342.31 879.921 1341.66 Q881.233 1341 882.638 1341 Q883.27 1341 883.879 1341.14 Q884.512 1341.26 885.261 1341.61 Q886.034 1341.96 886.713 1342.74 Q887.393 1343.51 887.814 1344.63 Q888.095 1344.09 888.47 1343.58 Q888.868 1343.06 889.477 1342.43 Q890.11 1341.78 890.976 1341.4 Q891.866 1341 892.85 1341 Q893.81 1341 894.747 1341.26 Q895.684 1341.49 896.481 1342.27 Q897.3 1343.02 897.3 1344.16 Z" fill="#000000" fill-rule="nonzero" fill-opacity="1" /><path clip-path="url(#clip800)" d="M901.913 1373.72 Q901.913 1373.49 902.522 1372.9 Q910.251 1365.03 910.251 1350.21 Q910.251 1335.33 902.826 1327.82 Q901.913 1326.95 901.913 1326.69 Q901.913 1326.22 902.381 1326.22 Q902.709 1326.22 903.857 1327.18 Q905.028 1328.14 906.785 1330.35 Q908.565 1332.55 909.877 1335.24 Q913.039 1341.78 913.039 1350.21 Q913.039 1358.31 910.017 1364.85 Q908.729 1367.59 906.925 1369.88 Q905.122 1372.18 903.927 1373.19 Q902.733 1374.19 902.381 1374.19 Q901.913 1374.19 901.913 1373.72 Z" fill="#000000" fill-rule="nonzero" fill-opacity="1" /><path clip-path="url(#clip800)" d="M933.633 1354.92 Q933.68 1354.33 934.594 1354.33 L963.989 1354.33 Q965.371 1354.33 965.394 1354.87 Q965.394 1355.45 964.082 1355.43 L934.921 1355.43 Q933.633 1355.45 933.633 1354.92 M933.633 1345.55 Q933.633 1344.96 934.64 1344.98 L963.942 1344.98 Q965.371 1344.98 965.394 1345.55 Q965.394 1346.09 964.176 1346.09 L934.594 1346.09 Q933.633 1346.09 933.633 1345.55 Z" fill="#000000" fill-rule="nonzero" fill-opacity="1" /><path clip-path="url(#clip800)" d="M994.125 1330.88 L994.125 1329.4 L1008.86 1306.9 Q1009.23 1306.31 1009.82 1306.33 Q1010.36 1306.33 1010.47 1306.54 Q1010.59 1306.76 1010.59 1307.58 L1010.59 1329.4 L1015.39 1329.4 L1015.39 1330.88 L1010.59 1330.88 L1010.59 1335.05 Q1010.59 1336.43 1011.15 1336.88 Q1011.74 1337.32 1014.22 1337.32 L1015.23 1337.32 L1015.23 1338.8 Q1013.26 1338.66 1008.72 1338.66 Q1004.2 1338.66 1002.23 1338.8 L1002.23 1337.32 L1003.24 1337.32 Q1005.72 1337.32 1006.3 1336.9 Q1006.89 1336.45 1006.89 1335.05 L1006.89 1330.88 L994.125 1330.88 M995.483 1329.4 L1007.17 1329.4 L1007.17 1311.51 L995.483 1329.4 Z" fill="#000000" fill-rule="nonzero" fill-opacity="1" /><path clip-path="url(#clip800)" d="M994.125 1351.6 L1020.29 1351.6 L1020.29 1349.04 L994.125 1349.04  Z" fill="#000000" fill-rule="evenodd" fill-opacity="1"/>
<path clip-path="url(#clip800)" d="M995.125 1385.75 Q995.125 1384.32 995.898 1383.78 Q996.671 1383.22 997.491 1383.22 Q998.591 1383.22 999.224 1383.92 Q999.88 1384.6 999.88 1385.56 Q999.88 1386.52 999.224 1387.22 Q998.591 1387.9 997.491 1387.9 Q996.952 1387.9 996.671 1387.81 Q997.303 1390.01 999.224 1391.6 Q1001.17 1393.2 1003.72 1393.2 Q1006.93 1393.2 1008.85 1390.08 Q1010 1388.07 1010 1383.5 Q1010 1379.47 1009.13 1377.46 Q1007.8 1374.39 1005.06 1374.39 Q1001.17 1374.39 998.873 1377.74 Q998.591 1378.16 998.264 1378.18 Q997.795 1378.18 997.678 1377.93 Q997.584 1377.64 997.584 1376.92 L997.584 1362.72 Q997.584 1361.58 998.053 1361.58 Q998.24 1361.58 998.638 1361.72 Q1001.66 1363.05 1005.01 1363.08 Q1008.45 1363.08 1011.54 1361.67 Q1011.78 1361.53 1011.92 1361.53 Q1012.39 1361.53 1012.41 1362.07 Q1012.41 1362.26 1012.01 1362.82 Q1011.64 1363.36 1010.82 1364.08 Q1010 1364.79 1008.94 1365.46 Q1007.89 1366.14 1006.34 1366.61 Q1004.82 1367.06 1003.14 1367.06 Q1001.12 1367.06 999.06 1366.42 L999.06 1375.77 Q1001.54 1373.33 1005.15 1373.33 Q1008.99 1373.33 1011.64 1376.43 Q1014.28 1379.52 1014.28 1383.83 Q1014.28 1388.35 1011.15 1391.44 Q1008.03 1394.53 1003.81 1394.53 Q999.973 1394.53 997.537 1391.79 Q995.125 1389.05 995.125 1385.75 Z" fill="#000000" fill-rule="nonzero" fill-opacity="1" /><path clip-path="url(#clip800)" d="M1025.41 1345.41 Q1025.41 1338.4 1028.02 1332.75 Q1029.14 1330.39 1030.7 1328.4 Q1032.26 1326.42 1033.29 1325.55 Q1034.32 1324.68 1034.6 1324.68 Q1035.01 1324.68 1035.03 1325.08 Q1035.03 1325.28 1034.48 1325.79 Q1027.8 1332.59 1027.82 1345.41 Q1027.82 1358.27 1034.32 1364.81 Q1035.03 1365.52 1035.03 1365.74 Q1035.03 1366.15 1034.6 1366.15 Q1034.32 1366.15 1033.33 1365.32 Q1032.34 1364.49 1030.8 1362.58 Q1029.26 1360.68 1028.15 1358.35 Q1025.41 1352.7 1025.41 1345.41 Z" fill="#000000" fill-rule="nonzero" fill-opacity="1" /><path clip-path="url(#clip800)" d="M1046.45 1334.82 L1046.45 1333.32 Q1052.21 1333.32 1055.19 1330.25 Q1056.01 1330.25 1056.15 1330.44 Q1056.29 1330.63 1056.29 1331.49 L1056.29 1358.41 Q1056.29 1359.83 1056.99 1360.28 Q1057.69 1360.72 1060.76 1360.72 L1062.29 1360.72 L1062.29 1362.2 Q1060.6 1362.06 1054.51 1362.06 Q1048.42 1362.06 1046.76 1362.2 L1046.76 1360.72 L1048.28 1360.72 Q1051.3 1360.72 1052.03 1360.3 Q1052.75 1359.86 1052.75 1358.41 L1052.75 1333.55 Q1050.25 1334.82 1046.45 1334.82 Z" fill="#000000" fill-rule="nonzero" fill-opacity="1" /><path clip-path="url(#clip800)" d="M1084.61 1350.79 Q1083.51 1350.79 1083.51 1350.21 Q1083.51 1349.62 1084.65 1349.62 Q1084.79 1349.62 1085.03 1349.65 Q1085.29 1349.67 1085.33 1349.67 L1098.85 1349.67 L1098.85 1336.11 Q1098.85 1336.06 1098.82 1335.85 Q1098.8 1335.62 1098.8 1335.48 Q1098.8 1334.33 1099.36 1334.33 Q1099.95 1334.33 1099.95 1335.48 L1099.95 1349.67 L1113.49 1349.67 Q1113.53 1349.67 1113.77 1349.65 Q1114 1349.62 1114.14 1349.62 Q1115.24 1349.62 1115.24 1350.21 Q1115.27 1350.79 1114.1 1350.79 Q1113.96 1350.79 1113.74 1350.77 Q1113.53 1350.75 1113.49 1350.75 L1099.95 1350.75 L1099.95 1364.99 Q1099.95 1366.09 1099.36 1366.09 Q1098.8 1366.09 1098.8 1364.94 Q1098.8 1364.8 1098.82 1364.57 Q1098.85 1364.35 1098.85 1364.31 L1098.85 1350.75 L1085.33 1350.75 Q1085.29 1350.75 1085.01 1350.77 Q1084.75 1350.79 1084.61 1350.79 Z" fill="#000000" fill-rule="nonzero" fill-opacity="1" /><path clip-path="url(#clip800)" d="M1157.65 1344.16 Q1157.65 1345.48 1156.83 1346.23 Q1156.01 1346.95 1155.07 1346.95 Q1154.18 1346.95 1153.71 1346.44 Q1153.25 1345.92 1153.25 1345.27 Q1153.25 1344.38 1153.9 1343.6 Q1154.56 1342.83 1155.54 1342.67 Q1154.58 1342.06 1153.15 1342.06 Q1152.21 1342.06 1151.4 1342.55 Q1150.6 1343.04 1150.11 1343.67 Q1149.64 1344.31 1149.22 1345.22 Q1148.82 1346.11 1148.65 1346.65 Q1148.51 1347.16 1148.4 1347.72 L1146.76 1354.28 Q1145.96 1357.4 1145.96 1358.5 Q1145.96 1359.86 1146.62 1360.77 Q1147.27 1361.66 1148.58 1361.66 Q1149.1 1361.66 1149.69 1361.52 Q1150.27 1361.36 1151.02 1360.94 Q1151.79 1360.49 1152.47 1359.83 Q1153.18 1359.16 1153.85 1358.01 Q1154.53 1356.86 1154.98 1355.38 Q1155.12 1354.87 1155.59 1354.87 Q1156.17 1354.87 1156.17 1355.34 Q1156.17 1355.74 1155.85 1356.58 Q1155.54 1357.4 1154.86 1358.48 Q1154.21 1359.53 1153.34 1360.49 Q1152.47 1361.43 1151.18 1362.08 Q1149.9 1362.74 1148.49 1362.74 Q1146.48 1362.74 1145.14 1361.66 Q1143.81 1360.58 1143.31 1359.08 Q1143.2 1359.3 1143.03 1359.58 Q1142.87 1359.86 1142.38 1360.49 Q1141.91 1361.1 1141.37 1361.57 Q1140.83 1362.01 1139.99 1362.36 Q1139.17 1362.74 1138.28 1362.74 Q1137.15 1362.74 1136.15 1362.41 Q1135.16 1362.08 1134.46 1361.33 Q1133.76 1360.58 1133.76 1359.55 Q1133.76 1358.41 1134.53 1357.61 Q1135.33 1356.79 1136.4 1356.79 Q1137.08 1356.79 1137.62 1357.19 Q1138.18 1357.59 1138.18 1358.45 Q1138.18 1359.41 1137.53 1360.14 Q1136.87 1360.86 1135.94 1361.05 Q1136.9 1361.66 1138.33 1361.66 Q1139.87 1361.66 1141.09 1360.3 Q1142.31 1358.94 1142.89 1356.67 Q1144.34 1351.21 1144.91 1348.78 Q1145.47 1346.32 1145.47 1345.27 Q1145.47 1344.28 1145.21 1343.6 Q1144.95 1342.92 1144.51 1342.62 Q1144.09 1342.29 1143.69 1342.17 Q1143.31 1342.06 1142.89 1342.06 Q1142.19 1342.06 1141.39 1342.34 Q1140.62 1342.62 1139.68 1343.27 Q1138.77 1343.91 1137.9 1345.22 Q1137.04 1346.53 1136.45 1348.33 Q1136.33 1348.87 1135.82 1348.87 Q1135.26 1348.85 1135.26 1348.38 Q1135.26 1347.98 1135.56 1347.16 Q1135.89 1346.32 1136.55 1345.27 Q1137.22 1344.21 1138.09 1343.27 Q1138.98 1342.31 1140.27 1341.66 Q1141.58 1341 1142.99 1341 Q1143.62 1341 1144.23 1341.14 Q1144.86 1341.26 1145.61 1341.61 Q1146.38 1341.96 1147.06 1342.74 Q1147.74 1343.51 1148.16 1344.63 Q1148.44 1344.09 1148.82 1343.58 Q1149.22 1343.06 1149.83 1342.43 Q1150.46 1341.78 1151.32 1341.4 Q1152.21 1341 1153.2 1341 Q1154.16 1341 1155.1 1341.26 Q1156.03 1341.49 1156.83 1342.27 Q1157.65 1343.02 1157.65 1344.16 Z" fill="#000000" fill-rule="nonzero" fill-opacity="1" /><path clip-path="url(#clip800)" d="M1205.89 1349.53 Q1206.17 1349.81 1206.17 1350.21 Q1206.17 1350.61 1205.89 1350.89 Q1205.61 1351.17 1205.21 1351.17 L1175.18 1351.17 Q1174.78 1351.17 1174.5 1350.89 Q1174.22 1350.61 1174.22 1350.21 Q1174.22 1349.81 1174.5 1349.53 Q1174.78 1349.25 1175.18 1349.25 L1205.21 1349.25 Q1205.61 1349.25 1205.89 1349.53 Z" fill="#000000" fill-rule="nonzero" fill-opacity="1" /><path clip-path="url(#clip800)" d="M1248.36 1344.16 Q1248.36 1345.48 1247.54 1346.23 Q1246.73 1346.95 1245.79 1346.95 Q1244.9 1346.95 1244.43 1346.44 Q1243.96 1345.92 1243.96 1345.27 Q1243.96 1344.38 1244.62 1343.6 Q1245.27 1342.83 1246.26 1342.67 Q1245.3 1342.06 1243.87 1342.06 Q1242.93 1342.06 1242.11 1342.55 Q1241.31 1343.04 1240.82 1343.67 Q1240.35 1344.31 1239.93 1345.22 Q1239.53 1346.11 1239.37 1346.65 Q1239.23 1347.16 1239.11 1347.72 L1237.47 1354.28 Q1236.68 1357.4 1236.68 1358.5 Q1236.68 1359.86 1237.33 1360.77 Q1237.99 1361.66 1239.3 1361.66 Q1239.82 1361.66 1240.4 1361.52 Q1240.99 1361.36 1241.74 1360.94 Q1242.51 1360.49 1243.19 1359.83 Q1243.89 1359.16 1244.57 1358.01 Q1245.25 1356.86 1245.69 1355.38 Q1245.84 1354.87 1246.3 1354.87 Q1246.89 1354.87 1246.89 1355.34 Q1246.89 1355.74 1246.56 1356.58 Q1246.26 1357.4 1245.58 1358.48 Q1244.92 1359.53 1244.05 1360.49 Q1243.19 1361.43 1241.9 1362.08 Q1240.61 1362.74 1239.21 1362.74 Q1237.19 1362.74 1235.86 1361.66 Q1234.52 1360.58 1234.03 1359.08 Q1233.91 1359.3 1233.75 1359.58 Q1233.59 1359.86 1233.09 1360.49 Q1232.62 1361.1 1232.09 1361.57 Q1231.55 1362.01 1230.7 1362.36 Q1229.88 1362.74 1228.99 1362.74 Q1227.87 1362.74 1226.86 1362.41 Q1225.88 1362.08 1225.18 1361.33 Q1224.47 1360.58 1224.47 1359.55 Q1224.47 1358.41 1225.25 1357.61 Q1226.04 1356.79 1227.12 1356.79 Q1227.8 1356.79 1228.34 1357.19 Q1228.9 1357.59 1228.9 1358.45 Q1228.9 1359.41 1228.24 1360.14 Q1227.59 1360.86 1226.65 1361.05 Q1227.61 1361.66 1229.04 1361.66 Q1230.59 1361.66 1231.81 1360.3 Q1233.02 1358.94 1233.61 1356.67 Q1235.06 1351.21 1235.62 1348.78 Q1236.19 1346.32 1236.19 1345.27 Q1236.19 1344.28 1235.93 1343.6 Q1235.67 1342.92 1235.22 1342.62 Q1234.8 1342.29 1234.4 1342.17 Q1234.03 1342.06 1233.61 1342.06 Q1232.91 1342.06 1232.11 1342.34 Q1231.34 1342.62 1230.4 1343.27 Q1229.49 1343.91 1228.62 1345.22 Q1227.75 1346.53 1227.17 1348.33 Q1227.05 1348.87 1226.53 1348.87 Q1225.97 1348.85 1225.97 1348.38 Q1225.97 1347.98 1226.28 1347.16 Q1226.61 1346.32 1227.26 1345.27 Q1227.94 1344.21 1228.81 1343.27 Q1229.7 1342.31 1230.99 1341.66 Q1232.3 1341 1233.7 1341 Q1234.33 1341 1234.94 1341.14 Q1235.58 1341.26 1236.33 1341.61 Q1237.1 1341.96 1237.78 1342.74 Q1238.46 1343.51 1238.88 1344.63 Q1239.16 1344.09 1239.53 1343.58 Q1239.93 1343.06 1240.54 1342.43 Q1241.17 1341.78 1242.04 1341.4 Q1242.93 1341 1243.91 1341 Q1244.87 1341 1245.81 1341.26 Q1246.75 1341.49 1247.54 1342.27 Q1248.36 1343.02 1248.36 1344.16 Z" fill="#000000" fill-rule="nonzero" fill-opacity="1" /><path clip-path="url(#clip800)" d="M1253.25 1342.6 Q1253.25 1341.6 1253.82 1341.13 Q1254.4 1340.65 1255.14 1340.65 Q1255.91 1340.65 1256.45 1341.16 Q1257 1341.65 1257 1342.52 Q1257 1343.45 1256.35 1343.98 Q1255.71 1344.5 1254.79 1344.37 Q1255.59 1345.72 1257.07 1346.32 Q1258.56 1346.93 1259.94 1346.93 Q1261.38 1346.93 1262.55 1345.68 Q1263.73 1344.44 1263.73 1341.39 Q1263.73 1338.8 1262.71 1337.31 Q1261.71 1335.81 1259.73 1335.81 L1258.25 1335.81 Q1257.74 1335.81 1257.59 1335.77 Q1257.45 1335.72 1257.45 1335.44 Q1257.45 1335.11 1257.96 1335.04 Q1258.46 1335.04 1259.27 1334.95 Q1261.22 1334.88 1262.25 1333.19 Q1263.19 1331.62 1263.19 1329.37 Q1263.19 1327.32 1262.2 1326.47 Q1261.23 1325.6 1259.97 1325.6 Q1258.79 1325.6 1257.5 1326.09 Q1256.2 1326.58 1255.5 1327.68 Q1257.58 1327.68 1257.58 1329.37 Q1257.58 1330.11 1257.1 1330.6 Q1256.64 1331.08 1255.87 1331.08 Q1255.14 1331.08 1254.64 1330.62 Q1254.15 1330.14 1254.15 1329.34 Q1254.15 1327.42 1255.86 1326.09 Q1257.58 1324.76 1260.1 1324.76 Q1262.6 1324.76 1264.43 1326.08 Q1266.28 1327.39 1266.28 1329.4 Q1266.28 1331.39 1264.97 1333.01 Q1263.66 1334.63 1261.58 1335.31 Q1264.14 1335.81 1265.66 1337.55 Q1267.19 1339.27 1267.19 1341.39 Q1267.19 1344.01 1265.12 1345.95 Q1263.05 1347.87 1260.04 1347.87 Q1257.25 1347.87 1255.25 1346.36 Q1253.25 1344.85 1253.25 1342.6 Z" fill="#000000" fill-rule="nonzero" fill-opacity="1" /><path clip-path="url(#clip800)" d="M1277.28 1365.74 Q1277.28 1365.54 1277.81 1365.03 Q1284.49 1358.23 1284.49 1345.41 Q1284.49 1332.55 1278.07 1326.05 Q1277.28 1325.3 1277.28 1325.08 Q1277.28 1324.68 1277.69 1324.68 Q1277.97 1324.68 1278.96 1325.51 Q1279.98 1326.34 1281.49 1328.24 Q1283.03 1330.14 1284.17 1332.47 Q1286.9 1338.12 1286.9 1345.41 Q1286.9 1352.42 1284.29 1358.07 Q1283.17 1360.44 1281.62 1362.42 Q1280.06 1364.4 1279.02 1365.28 Q1277.99 1366.15 1277.69 1366.15 Q1277.28 1366.15 1277.28 1365.74 Z" fill="#000000" fill-rule="nonzero" fill-opacity="1" /></svg>
