<?xml version="1.0" encoding="utf-8"?>
<svg xmlns="http://www.w3.org/2000/svg" xmlns:xlink="http://www.w3.org/1999/xlink" width="600" height="400" viewBox="0 0 2400 1600">
<defs>
  <clipPath id="clip200">
    <rect x="0" y="0" width="2400" height="1600"/>
  </clipPath>
</defs>
<path clip-path="url(#clip200)" d="M0 1600 L2400 1600 L2400 0 L0 0  Z" fill="#ffffff" fill-rule="evenodd" fill-opacity="1"/>
<defs>
  <clipPath id="clip201">
    <rect x="480" y="0" width="1681" height="1600"/>
  </clipPath>
</defs>
<path clip-path="url(#clip200)" d="M156.02 1486.45 L2352.76 1486.45 L2352.76 47.2441 L156.02 47.2441  Z" fill="#ffffff" fill-rule="evenodd" fill-opacity="1"/>
<defs>
  <clipPath id="clip202">
    <rect x="156" y="47" width="2198" height="1440"/>
  </clipPath>
</defs>
<polyline clip-path="url(#clip202)" style="stroke:#000000; stroke-linecap:round; stroke-linejoin:round; stroke-width:2; stroke-opacity:0.1; fill:none" points="276.844,1486.45 276.844,47.2441 "/>
<polyline clip-path="url(#clip202)" style="stroke:#000000; stroke-linecap:round; stroke-linejoin:round; stroke-width:2; stroke-opacity:0.1; fill:none" points="765.616,1486.45 765.616,47.2441 "/>
<polyline clip-path="url(#clip202)" style="stroke:#000000; stroke-linecap:round; stroke-linejoin:round; stroke-width:2; stroke-opacity:0.1; fill:none" points="1254.39,1486.45 1254.39,47.2441 "/>
<polyline clip-path="url(#clip202)" style="stroke:#000000; stroke-linecap:round; stroke-linejoin:round; stroke-width:2; stroke-opacity:0.1; fill:none" points="1743.16,1486.45 1743.16,47.2441 "/>
<polyline clip-path="url(#clip202)" style="stroke:#000000; stroke-linecap:round; stroke-linejoin:round; stroke-width:2; stroke-opacity:0.1; fill:none" points="2231.93,1486.45 2231.93,47.2441 "/>
<polyline clip-path="url(#clip200)" style="stroke:#000000; stroke-linecap:round; stroke-linejoin:round; stroke-width:4; stroke-opacity:1; fill:none" points="156.02,1486.45 2352.76,1486.45 "/>
<polyline clip-path="url(#clip200)" style="stroke:#000000; stroke-linecap:round; stroke-linejoin:round; stroke-width:4; stroke-opacity:1; fill:none" points="276.844,1486.45 276.844,1467.55 "/>
<polyline clip-path="url(#clip200)" style="stroke:#000000; stroke-linecap:round; stroke-linejoin:round; stroke-width:4; stroke-opacity:1; fill:none" points="765.616,1486.45 765.616,1467.55 "/>
<polyline clip-path="url(#clip200)" style="stroke:#000000; stroke-linecap:round; stroke-linejoin:round; stroke-width:4; stroke-opacity:1; fill:none" points="1254.39,1486.45 1254.39,1467.55 "/>
<polyline clip-path="url(#clip200)" style="stroke:#000000; stroke-linecap:round; stroke-linejoin:round; stroke-width:4; stroke-opacity:1; fill:none" points="1743.16,1486.45 1743.16,1467.55 "/>
<polyline clip-path="url(#clip200)" style="stroke:#000000; stroke-linecap:round; stroke-linejoin:round; stroke-width:4; stroke-opacity:1; fill:none" points="2231.93,1486.45 2231.93,1467.55 "/>
<path clip-path="url(#clip200)" d="M239.147 1517.37 Q235.536 1517.37 233.708 1520.93 Q231.902 1524.47 231.902 1531.6 Q231.902 1538.71 233.708 1542.27 Q235.536 1545.82 239.147 1545.82 Q242.782 1545.82 244.587 1542.27 Q246.416 1538.71 246.416 1531.6 Q246.416 1524.47 244.587 1520.93 Q242.782 1517.37 239.147 1517.37 M239.147 1513.66 Q244.958 1513.66 248.013 1518.27 Q251.092 1522.85 251.092 1531.6 Q251.092 1540.33 248.013 1544.94 Q244.958 1549.52 239.147 1549.52 Q233.337 1549.52 230.259 1544.94 Q227.203 1540.33 227.203 1531.6 Q227.203 1522.85 230.259 1518.27 Q233.337 1513.66 239.147 1513.66 Z" fill="#000000" fill-rule="nonzero" fill-opacity="1" /><path clip-path="url(#clip200)" d="M259.309 1542.97 L264.194 1542.97 L264.194 1548.85 L259.309 1548.85 L259.309 1542.97 Z" fill="#000000" fill-rule="nonzero" fill-opacity="1" /><path clip-path="url(#clip200)" d="M284.379 1517.37 Q280.768 1517.37 278.939 1520.93 Q277.133 1524.47 277.133 1531.6 Q277.133 1538.71 278.939 1542.27 Q280.768 1545.82 284.379 1545.82 Q288.013 1545.82 289.818 1542.27 Q291.647 1538.71 291.647 1531.6 Q291.647 1524.47 289.818 1520.93 Q288.013 1517.37 284.379 1517.37 M284.379 1513.66 Q290.189 1513.66 293.244 1518.27 Q296.323 1522.85 296.323 1531.6 Q296.323 1540.33 293.244 1544.94 Q290.189 1549.52 284.379 1549.52 Q278.568 1549.52 275.49 1544.94 Q272.434 1540.33 272.434 1531.6 Q272.434 1522.85 275.49 1518.27 Q278.568 1513.66 284.379 1513.66 Z" fill="#000000" fill-rule="nonzero" fill-opacity="1" /><path clip-path="url(#clip200)" d="M314.541 1517.37 Q310.929 1517.37 309.101 1520.93 Q307.295 1524.47 307.295 1531.6 Q307.295 1538.71 309.101 1542.27 Q310.929 1545.82 314.541 1545.82 Q318.175 1545.82 319.98 1542.27 Q321.809 1538.71 321.809 1531.6 Q321.809 1524.47 319.98 1520.93 Q318.175 1517.37 314.541 1517.37 M314.541 1513.66 Q320.351 1513.66 323.406 1518.27 Q326.485 1522.85 326.485 1531.6 Q326.485 1540.33 323.406 1544.94 Q320.351 1549.52 314.541 1549.52 Q308.73 1549.52 305.652 1544.94 Q302.596 1540.33 302.596 1531.6 Q302.596 1522.85 305.652 1518.27 Q308.73 1513.66 314.541 1513.66 Z" fill="#000000" fill-rule="nonzero" fill-opacity="1" /><path clip-path="url(#clip200)" d="M728.417 1517.37 Q724.806 1517.37 722.977 1520.93 Q721.172 1524.47 721.172 1531.6 Q721.172 1538.71 722.977 1542.27 Q724.806 1545.82 728.417 1545.82 Q732.051 1545.82 733.857 1542.27 Q735.685 1538.71 735.685 1531.6 Q735.685 1524.47 733.857 1520.93 Q732.051 1517.37 728.417 1517.37 M728.417 1513.66 Q734.227 1513.66 737.283 1518.27 Q740.361 1522.85 740.361 1531.6 Q740.361 1540.33 737.283 1544.94 Q734.227 1549.52 728.417 1549.52 Q722.607 1549.52 719.528 1544.94 Q716.473 1540.33 716.473 1531.6 Q716.473 1522.85 719.528 1518.27 Q722.607 1513.66 728.417 1513.66 Z" fill="#000000" fill-rule="nonzero" fill-opacity="1" /><path clip-path="url(#clip200)" d="M748.579 1542.97 L753.463 1542.97 L753.463 1548.85 L748.579 1548.85 L748.579 1542.97 Z" fill="#000000" fill-rule="nonzero" fill-opacity="1" /><path clip-path="url(#clip200)" d="M767.676 1544.91 L783.995 1544.91 L783.995 1548.85 L762.051 1548.85 L762.051 1544.91 Q764.713 1542.16 769.296 1537.53 Q773.903 1532.88 775.083 1531.53 Q777.329 1529.01 778.208 1527.27 Q779.111 1525.51 779.111 1523.82 Q779.111 1521.07 777.167 1519.33 Q775.245 1517.6 772.144 1517.6 Q769.945 1517.6 767.491 1518.36 Q765.06 1519.13 762.283 1520.68 L762.283 1515.95 Q765.107 1514.82 767.56 1514.24 Q770.014 1513.66 772.051 1513.66 Q777.421 1513.66 780.616 1516.35 Q783.81 1519.03 783.81 1523.52 Q783.81 1525.65 783 1527.57 Q782.213 1529.47 780.106 1532.07 Q779.528 1532.74 776.426 1535.95 Q773.324 1539.15 767.676 1544.91 Z" fill="#000000" fill-rule="nonzero" fill-opacity="1" /><path clip-path="url(#clip200)" d="M793.856 1514.29 L812.213 1514.29 L812.213 1518.22 L798.139 1518.22 L798.139 1526.7 Q799.157 1526.35 800.176 1526.19 Q801.194 1526 802.213 1526 Q808 1526 811.379 1529.17 Q814.759 1532.34 814.759 1537.76 Q814.759 1543.34 811.287 1546.44 Q807.815 1549.52 801.495 1549.52 Q799.319 1549.52 797.051 1549.15 Q794.805 1548.78 792.398 1548.04 L792.398 1543.34 Q794.481 1544.47 796.704 1545.03 Q798.926 1545.58 801.403 1545.58 Q805.407 1545.58 807.745 1543.48 Q810.083 1541.37 810.083 1537.76 Q810.083 1534.15 807.745 1532.04 Q805.407 1529.94 801.403 1529.94 Q799.528 1529.94 797.653 1530.35 Q795.801 1530.77 793.856 1531.65 L793.856 1514.29 Z" fill="#000000" fill-rule="nonzero" fill-opacity="1" /><path clip-path="url(#clip200)" d="M1216.69 1517.37 Q1213.08 1517.37 1211.25 1520.93 Q1209.45 1524.47 1209.45 1531.6 Q1209.45 1538.71 1211.25 1542.27 Q1213.08 1545.82 1216.69 1545.82 Q1220.33 1545.82 1222.13 1542.27 Q1223.96 1538.71 1223.96 1531.6 Q1223.96 1524.47 1222.13 1520.93 Q1220.33 1517.37 1216.69 1517.37 M1216.69 1513.66 Q1222.5 1513.66 1225.56 1518.27 Q1228.64 1522.85 1228.64 1531.6 Q1228.64 1540.33 1225.56 1544.94 Q1222.5 1549.52 1216.69 1549.52 Q1210.88 1549.52 1207.8 1544.94 Q1204.75 1540.33 1204.75 1531.6 Q1204.75 1522.85 1207.8 1518.27 Q1210.88 1513.66 1216.69 1513.66 Z" fill="#000000" fill-rule="nonzero" fill-opacity="1" /><path clip-path="url(#clip200)" d="M1236.85 1542.97 L1241.74 1542.97 L1241.74 1548.85 L1236.85 1548.85 L1236.85 1542.97 Z" fill="#000000" fill-rule="nonzero" fill-opacity="1" /><path clip-path="url(#clip200)" d="M1251.97 1514.29 L1270.33 1514.29 L1270.33 1518.22 L1256.25 1518.22 L1256.25 1526.7 Q1257.27 1526.35 1258.29 1526.19 Q1259.31 1526 1260.33 1526 Q1266.11 1526 1269.49 1529.17 Q1272.87 1532.34 1272.87 1537.76 Q1272.87 1543.34 1269.4 1546.44 Q1265.93 1549.52 1259.61 1549.52 Q1257.43 1549.52 1255.16 1549.15 Q1252.92 1548.78 1250.51 1548.04 L1250.51 1543.34 Q1252.59 1544.47 1254.82 1545.03 Q1257.04 1545.58 1259.52 1545.58 Q1263.52 1545.58 1265.86 1543.48 Q1268.2 1541.37 1268.2 1537.76 Q1268.2 1534.15 1265.86 1532.04 Q1263.52 1529.94 1259.52 1529.94 Q1257.64 1529.94 1255.77 1530.35 Q1253.91 1530.77 1251.97 1531.65 L1251.97 1514.29 Z" fill="#000000" fill-rule="nonzero" fill-opacity="1" /><path clip-path="url(#clip200)" d="M1292.08 1517.37 Q1288.47 1517.37 1286.64 1520.93 Q1284.84 1524.47 1284.84 1531.6 Q1284.84 1538.71 1286.64 1542.27 Q1288.47 1545.82 1292.08 1545.82 Q1295.72 1545.82 1297.52 1542.27 Q1299.35 1538.71 1299.35 1531.6 Q1299.35 1524.47 1297.52 1520.93 Q1295.72 1517.37 1292.08 1517.37 M1292.08 1513.66 Q1297.89 1513.66 1300.95 1518.27 Q1304.03 1522.85 1304.03 1531.6 Q1304.03 1540.33 1300.95 1544.94 Q1297.89 1549.52 1292.08 1549.52 Q1286.27 1549.52 1283.2 1544.94 Q1280.14 1540.33 1280.14 1531.6 Q1280.14 1522.85 1283.2 1518.27 Q1286.27 1513.66 1292.08 1513.66 Z" fill="#000000" fill-rule="nonzero" fill-opacity="1" /><path clip-path="url(#clip200)" d="M1705.96 1517.37 Q1702.35 1517.37 1700.52 1520.93 Q1698.72 1524.47 1698.72 1531.6 Q1698.72 1538.71 1700.52 1542.27 Q1702.35 1545.82 1705.96 1545.82 Q1709.59 1545.82 1711.4 1542.27 Q1713.23 1538.71 1713.23 1531.6 Q1713.23 1524.47 1711.4 1520.93 Q1709.59 1517.37 1705.96 1517.37 M1705.96 1513.66 Q1711.77 1513.66 1714.83 1518.27 Q1717.91 1522.85 1717.91 1531.6 Q1717.91 1540.33 1714.83 1544.94 Q1711.77 1549.52 1705.96 1549.52 Q1700.15 1549.52 1697.07 1544.94 Q1694.02 1540.33 1694.02 1531.6 Q1694.02 1522.85 1697.07 1518.27 Q1700.15 1513.66 1705.96 1513.66 Z" fill="#000000" fill-rule="nonzero" fill-opacity="1" /><path clip-path="url(#clip200)" d="M1726.12 1542.97 L1731.01 1542.97 L1731.01 1548.85 L1726.12 1548.85 L1726.12 1542.97 Z" fill="#000000" fill-rule="nonzero" fill-opacity="1" /><path clip-path="url(#clip200)" d="M1740.01 1514.29 L1762.23 1514.29 L1762.23 1516.28 L1749.69 1548.85 L1744.8 1548.85 L1756.61 1518.22 L1740.01 1518.22 L1740.01 1514.29 Z" fill="#000000" fill-rule="nonzero" fill-opacity="1" /><path clip-path="url(#clip200)" d="M1771.4 1514.29 L1789.76 1514.29 L1789.76 1518.22 L1775.68 1518.22 L1775.68 1526.7 Q1776.7 1526.35 1777.72 1526.19 Q1778.74 1526 1779.76 1526 Q1785.54 1526 1788.92 1529.17 Q1792.3 1532.34 1792.3 1537.76 Q1792.3 1543.34 1788.83 1546.44 Q1785.36 1549.52 1779.04 1549.52 Q1776.86 1549.52 1774.59 1549.15 Q1772.35 1548.78 1769.94 1548.04 L1769.94 1543.34 Q1772.03 1544.47 1774.25 1545.03 Q1776.47 1545.58 1778.95 1545.58 Q1782.95 1545.58 1785.29 1543.48 Q1787.63 1541.37 1787.63 1537.76 Q1787.63 1534.15 1785.29 1532.04 Q1782.95 1529.94 1778.95 1529.94 Q1777.07 1529.94 1775.2 1530.35 Q1773.34 1530.77 1771.4 1531.65 L1771.4 1514.29 Z" fill="#000000" fill-rule="nonzero" fill-opacity="1" /><path clip-path="url(#clip200)" d="M2184 1544.91 L2191.64 1544.91 L2191.64 1518.55 L2183.33 1520.21 L2183.33 1515.95 L2191.6 1514.29 L2196.27 1514.29 L2196.27 1544.91 L2203.91 1544.91 L2203.91 1548.85 L2184 1548.85 L2184 1544.91 Z" fill="#000000" fill-rule="nonzero" fill-opacity="1" /><path clip-path="url(#clip200)" d="M2213.36 1542.97 L2218.24 1542.97 L2218.24 1548.85 L2213.36 1548.85 L2213.36 1542.97 Z" fill="#000000" fill-rule="nonzero" fill-opacity="1" /><path clip-path="url(#clip200)" d="M2238.42 1517.37 Q2234.81 1517.37 2232.98 1520.93 Q2231.18 1524.47 2231.18 1531.6 Q2231.18 1538.71 2232.98 1542.27 Q2234.81 1545.82 2238.42 1545.82 Q2242.06 1545.82 2243.86 1542.27 Q2245.69 1538.71 2245.69 1531.6 Q2245.69 1524.47 2243.86 1520.93 Q2242.06 1517.37 2238.42 1517.37 M2238.42 1513.66 Q2244.23 1513.66 2247.29 1518.27 Q2250.37 1522.85 2250.37 1531.6 Q2250.37 1540.33 2247.29 1544.94 Q2244.23 1549.52 2238.42 1549.52 Q2232.61 1549.52 2229.54 1544.94 Q2226.48 1540.33 2226.48 1531.6 Q2226.48 1522.85 2229.54 1518.27 Q2232.61 1513.66 2238.42 1513.66 Z" fill="#000000" fill-rule="nonzero" fill-opacity="1" /><path clip-path="url(#clip200)" d="M2268.59 1517.37 Q2264.98 1517.37 2263.15 1520.93 Q2261.34 1524.47 2261.34 1531.6 Q2261.34 1538.71 2263.15 1542.27 Q2264.98 1545.82 2268.59 1545.82 Q2272.22 1545.82 2274.03 1542.27 Q2275.85 1538.71 2275.85 1531.6 Q2275.85 1524.47 2274.03 1520.93 Q2272.22 1517.37 2268.59 1517.37 M2268.59 1513.66 Q2274.4 1513.66 2277.45 1518.27 Q2280.53 1522.85 2280.53 1531.6 Q2280.53 1540.33 2277.45 1544.94 Q2274.4 1549.52 2268.59 1549.52 Q2262.78 1549.52 2259.7 1544.94 Q2256.64 1540.33 2256.64 1531.6 Q2256.64 1522.85 2259.7 1518.27 Q2262.78 1513.66 2268.59 1513.66 Z" fill="#000000" fill-rule="nonzero" fill-opacity="1" /><polyline clip-path="url(#clip202)" style="stroke:#000000; stroke-linecap:round; stroke-linejoin:round; stroke-width:2; stroke-opacity:0.1; fill:none" points="156.02,1486.45 2352.76,1486.45 "/>
<polyline clip-path="url(#clip202)" style="stroke:#000000; stroke-linecap:round; stroke-linejoin:round; stroke-width:2; stroke-opacity:0.1; fill:none" points="156.02,1075.25 2352.76,1075.25 "/>
<polyline clip-path="url(#clip202)" style="stroke:#000000; stroke-linecap:round; stroke-linejoin:round; stroke-width:2; stroke-opacity:0.1; fill:none" points="156.02,664.046 2352.76,664.046 "/>
<polyline clip-path="url(#clip202)" style="stroke:#000000; stroke-linecap:round; stroke-linejoin:round; stroke-width:2; stroke-opacity:0.1; fill:none" points="156.02,252.845 2352.76,252.845 "/>
<polyline clip-path="url(#clip200)" style="stroke:#000000; stroke-linecap:round; stroke-linejoin:round; stroke-width:4; stroke-opacity:1; fill:none" points="156.02,1486.45 156.02,47.2441 "/>
<polyline clip-path="url(#clip200)" style="stroke:#000000; stroke-linecap:round; stroke-linejoin:round; stroke-width:4; stroke-opacity:1; fill:none" points="156.02,1486.45 174.917,1486.45 "/>
<polyline clip-path="url(#clip200)" style="stroke:#000000; stroke-linecap:round; stroke-linejoin:round; stroke-width:4; stroke-opacity:1; fill:none" points="156.02,1075.25 174.917,1075.25 "/>
<polyline clip-path="url(#clip200)" style="stroke:#000000; stroke-linecap:round; stroke-linejoin:round; stroke-width:4; stroke-opacity:1; fill:none" points="156.02,664.046 174.917,664.046 "/>
<polyline clip-path="url(#clip200)" style="stroke:#000000; stroke-linecap:round; stroke-linejoin:round; stroke-width:4; stroke-opacity:1; fill:none" points="156.02,252.845 174.917,252.845 "/>
<path clip-path="url(#clip200)" d="M62.9365 1472.25 Q59.3254 1472.25 57.4967 1475.81 Q55.6912 1479.35 55.6912 1486.48 Q55.6912 1493.59 57.4967 1497.15 Q59.3254 1500.7 62.9365 1500.7 Q66.5707 1500.7 68.3763 1497.15 Q70.205 1493.59 70.205 1486.48 Q70.205 1479.35 68.3763 1475.81 Q66.5707 1472.25 62.9365 1472.25 M62.9365 1468.54 Q68.7467 1468.54 71.8022 1473.15 Q74.8809 1477.73 74.8809 1486.48 Q74.8809 1495.21 71.8022 1499.82 Q68.7467 1504.4 62.9365 1504.4 Q57.1264 1504.4 54.0477 1499.82 Q50.9921 1495.21 50.9921 1486.48 Q50.9921 1477.73 54.0477 1473.15 Q57.1264 1468.54 62.9365 1468.54 Z" fill="#000000" fill-rule="nonzero" fill-opacity="1" /><path clip-path="url(#clip200)" d="M83.0984 1497.85 L87.9827 1497.85 L87.9827 1503.73 L83.0984 1503.73 L83.0984 1497.85 Z" fill="#000000" fill-rule="nonzero" fill-opacity="1" /><path clip-path="url(#clip200)" d="M108.168 1487.32 Q104.834 1487.32 102.913 1489.1 Q101.015 1490.88 101.015 1494.01 Q101.015 1497.13 102.913 1498.91 Q104.834 1500.7 108.168 1500.7 Q111.501 1500.7 113.422 1498.91 Q115.344 1497.11 115.344 1494.01 Q115.344 1490.88 113.422 1489.1 Q111.524 1487.32 108.168 1487.32 M103.492 1485.33 Q100.483 1484.58 98.7928 1482.52 Q97.1261 1480.46 97.1261 1477.5 Q97.1261 1473.36 100.066 1470.95 Q103.029 1468.54 108.168 1468.54 Q113.33 1468.54 116.27 1470.95 Q119.209 1473.36 119.209 1477.5 Q119.209 1480.46 117.52 1482.52 Q115.853 1484.58 112.867 1485.33 Q116.246 1486.11 118.121 1488.4 Q120.02 1490.7 120.02 1494.01 Q120.02 1499.03 116.941 1501.71 Q113.885 1504.4 108.168 1504.4 Q102.45 1504.4 99.3715 1501.71 Q96.316 1499.03 96.316 1494.01 Q96.316 1490.7 98.2141 1488.4 Q100.112 1486.11 103.492 1485.33 M101.779 1477.94 Q101.779 1480.63 103.446 1482.13 Q105.135 1483.64 108.168 1483.64 Q111.177 1483.64 112.867 1482.13 Q114.58 1480.63 114.58 1477.94 Q114.58 1475.26 112.867 1473.75 Q111.177 1472.25 108.168 1472.25 Q105.135 1472.25 103.446 1473.75 Q101.779 1475.26 101.779 1477.94 Z" fill="#000000" fill-rule="nonzero" fill-opacity="1" /><path clip-path="url(#clip200)" d="M63.0291 1061.05 Q59.418 1061.05 57.5893 1064.61 Q55.7838 1068.15 55.7838 1075.28 Q55.7838 1082.39 57.5893 1085.95 Q59.418 1089.49 63.0291 1089.49 Q66.6633 1089.49 68.4689 1085.95 Q70.2976 1082.39 70.2976 1075.28 Q70.2976 1068.15 68.4689 1064.61 Q66.6633 1061.05 63.0291 1061.05 M63.0291 1057.34 Q68.8393 1057.34 71.8948 1061.95 Q74.9735 1066.53 74.9735 1075.28 Q74.9735 1084.01 71.8948 1088.61 Q68.8393 1093.2 63.0291 1093.2 Q57.2189 1093.2 54.1403 1088.61 Q51.0847 1084.01 51.0847 1075.28 Q51.0847 1066.53 54.1403 1061.95 Q57.2189 1057.34 63.0291 1057.34 Z" fill="#000000" fill-rule="nonzero" fill-opacity="1" /><path clip-path="url(#clip200)" d="M83.191 1086.65 L88.0753 1086.65 L88.0753 1092.53 L83.191 1092.53 L83.191 1086.65 Z" fill="#000000" fill-rule="nonzero" fill-opacity="1" /><path clip-path="url(#clip200)" d="M98.3993 1091.81 L98.3993 1087.55 Q100.159 1088.38 101.964 1088.82 Q103.77 1089.26 105.506 1089.26 Q110.135 1089.26 112.566 1086.16 Q115.02 1083.04 115.367 1076.69 Q114.024 1078.68 111.964 1079.75 Q109.904 1080.81 107.404 1080.81 Q102.219 1080.81 99.1863 1077.69 Q96.1771 1074.54 96.1771 1069.1 Q96.1771 1063.78 99.3252 1060.56 Q102.473 1057.34 107.705 1057.34 Q113.7 1057.34 116.848 1061.95 Q120.02 1066.53 120.02 1075.28 Q120.02 1083.45 116.131 1088.34 Q112.265 1093.2 105.714 1093.2 Q103.955 1093.2 102.149 1092.85 Q100.344 1092.5 98.3993 1091.81 M107.705 1077.16 Q110.853 1077.16 112.682 1075 Q114.533 1072.85 114.533 1069.1 Q114.533 1065.37 112.682 1063.22 Q110.853 1061.05 107.705 1061.05 Q104.557 1061.05 102.705 1063.22 Q100.876 1065.37 100.876 1069.1 Q100.876 1072.85 102.705 1075 Q104.557 1077.16 107.705 1077.16 Z" fill="#000000" fill-rule="nonzero" fill-opacity="1" /><path clip-path="url(#clip200)" d="M53.6541 677.391 L61.293 677.391 L61.293 651.025 L52.9829 652.692 L52.9829 648.432 L61.2467 646.766 L65.9226 646.766 L65.9226 677.391 L73.5614 677.391 L73.5614 681.326 L53.6541 681.326 L53.6541 677.391 Z" fill="#000000" fill-rule="nonzero" fill-opacity="1" /><path clip-path="url(#clip200)" d="M83.0058 675.446 L87.8901 675.446 L87.8901 681.326 L83.0058 681.326 L83.0058 675.446 Z" fill="#000000" fill-rule="nonzero" fill-opacity="1" /><path clip-path="url(#clip200)" d="M108.075 649.844 Q104.464 649.844 102.635 653.409 Q100.83 656.951 100.83 664.08 Q100.83 671.187 102.635 674.752 Q104.464 678.293 108.075 678.293 Q111.709 678.293 113.515 674.752 Q115.344 671.187 115.344 664.08 Q115.344 656.951 113.515 653.409 Q111.709 649.844 108.075 649.844 M108.075 646.141 Q113.885 646.141 116.941 650.747 Q120.02 655.33 120.02 664.08 Q120.02 672.807 116.941 677.414 Q113.885 681.997 108.075 681.997 Q102.265 681.997 99.1863 677.414 Q96.1308 672.807 96.1308 664.08 Q96.1308 655.33 99.1863 650.747 Q102.265 646.141 108.075 646.141 Z" fill="#000000" fill-rule="nonzero" fill-opacity="1" /><path clip-path="url(#clip200)" d="M54.881 266.189 L62.5198 266.189 L62.5198 239.824 L54.2097 241.491 L54.2097 237.231 L62.4735 235.565 L67.1494 235.565 L67.1494 266.189 L74.7883 266.189 L74.7883 270.125 L54.881 270.125 L54.881 266.189 Z" fill="#000000" fill-rule="nonzero" fill-opacity="1" /><path clip-path="url(#clip200)" d="M84.2327 264.245 L89.1169 264.245 L89.1169 270.125 L84.2327 270.125 L84.2327 264.245 Z" fill="#000000" fill-rule="nonzero" fill-opacity="1" /><path clip-path="url(#clip200)" d="M100.112 266.189 L107.751 266.189 L107.751 239.824 L99.4409 241.491 L99.4409 237.231 L107.705 235.565 L112.381 235.565 L112.381 266.189 L120.02 266.189 L120.02 270.125 L100.112 270.125 L100.112 266.189 Z" fill="#000000" fill-rule="nonzero" fill-opacity="1" /><path clip-path="url(#clip202)" d="M276.844 1324.68 L276.844 4776.06 L472.353 4776.06 L472.353 1324.68 L276.844 1324.68 L276.844 1324.68  Z" fill="#ee82ee" fill-rule="evenodd" fill-opacity="1"/>
<polyline clip-path="url(#clip202)" style="stroke:#000000; stroke-linecap:round; stroke-linejoin:round; stroke-width:4; stroke-opacity:1; fill:none" points="276.844,1324.68 276.844,4776.06 472.353,4776.06 472.353,1324.68 276.844,1324.68 "/>
<path clip-path="url(#clip202)" d="M472.353 1019.04 L472.353 4776.06 L667.861 4776.06 L667.861 1019.04 L472.353 1019.04 L472.353 1019.04  Z" fill="#ee82ee" fill-rule="evenodd" fill-opacity="1"/>
<polyline clip-path="url(#clip202)" style="stroke:#000000; stroke-linecap:round; stroke-linejoin:round; stroke-width:4; stroke-opacity:1; fill:none" points="472.353,1019.04 472.353,4776.06 667.861,4776.06 667.861,1019.04 472.353,1019.04 "/>
<path clip-path="url(#clip202)" d="M667.861 726.548 L667.861 4776.06 L863.37 4776.06 L863.37 726.548 L667.861 726.548 L667.861 726.548  Z" fill="#ee82ee" fill-rule="evenodd" fill-opacity="1"/>
<polyline clip-path="url(#clip202)" style="stroke:#000000; stroke-linecap:round; stroke-linejoin:round; stroke-width:4; stroke-opacity:1; fill:none" points="667.861,726.548 667.861,4776.06 863.37,4776.06 863.37,726.548 667.861,726.548 "/>
<path clip-path="url(#clip202)" d="M863.37 474.934 L863.37 4776.06 L1058.88 4776.06 L1058.88 474.934 L863.37 474.934 L863.37 474.934  Z" fill="#ee82ee" fill-rule="evenodd" fill-opacity="1"/>
<polyline clip-path="url(#clip202)" style="stroke:#000000; stroke-linecap:round; stroke-linejoin:round; stroke-width:4; stroke-opacity:1; fill:none" points="863.37,474.934 863.37,4776.06 1058.88,4776.06 1058.88,474.934 863.37,474.934 "/>
<path clip-path="url(#clip202)" d="M1058.88 297.83 L1058.88 4776.06 L1254.39 4776.06 L1254.39 297.83 L1058.88 297.83 L1058.88 297.83  Z" fill="#ee82ee" fill-rule="evenodd" fill-opacity="1"/>
<polyline clip-path="url(#clip202)" style="stroke:#000000; stroke-linecap:round; stroke-linejoin:round; stroke-width:4; stroke-opacity:1; fill:none" points="1058.88,297.83 1058.88,4776.06 1254.39,4776.06 1254.39,297.83 1058.88,297.83 "/>
<path clip-path="url(#clip202)" d="M1254.39 238.288 L1254.39 4776.06 L1449.9 4776.06 L1449.9 238.288 L1254.39 238.288 L1254.39 238.288  Z" fill="#ee82ee" fill-rule="evenodd" fill-opacity="1"/>
<polyline clip-path="url(#clip202)" style="stroke:#000000; stroke-linecap:round; stroke-linejoin:round; stroke-width:4; stroke-opacity:1; fill:none" points="1254.39,238.288 1254.39,4776.06 1449.9,4776.06 1449.9,238.288 1254.39,238.288 "/>
<path clip-path="url(#clip202)" d="M1449.9 239.193 L1449.9 4776.06 L1645.41 4776.06 L1645.41 239.193 L1449.9 239.193 L1449.9 239.193  Z" fill="#ee82ee" fill-rule="evenodd" fill-opacity="1"/>
<polyline clip-path="url(#clip202)" style="stroke:#000000; stroke-linecap:round; stroke-linejoin:round; stroke-width:4; stroke-opacity:1; fill:none" points="1449.9,239.193 1449.9,4776.06 1645.41,4776.06 1645.41,239.193 1449.9,239.193 "/>
<path clip-path="url(#clip202)" d="M1645.41 417.777 L1645.41 4776.06 L1840.91 4776.06 L1840.91 417.777 L1645.41 417.777 L1645.41 417.777  Z" fill="#ee82ee" fill-rule="evenodd" fill-opacity="1"/>
<polyline clip-path="url(#clip202)" style="stroke:#000000; stroke-linecap:round; stroke-linejoin:round; stroke-width:4; stroke-opacity:1; fill:none" points="1645.41,417.777 1645.41,4776.06 1840.91,4776.06 1840.91,417.777 1645.41,417.777 "/>
<path clip-path="url(#clip202)" d="M1840.91 718.448 L1840.91 4776.06 L2036.42 4776.06 L2036.42 718.448 L1840.91 718.448 L1840.91 718.448  Z" fill="#ee82ee" fill-rule="evenodd" fill-opacity="1"/>
<polyline clip-path="url(#clip202)" style="stroke:#000000; stroke-linecap:round; stroke-linejoin:round; stroke-width:4; stroke-opacity:1; fill:none" points="1840.91,718.448 1840.91,4776.06 2036.42,4776.06 2036.42,718.448 1840.91,718.448 "/>
<path clip-path="url(#clip202)" d="M2036.42 1183.72 L2036.42 4776.06 L2231.93 4776.06 L2231.93 1183.72 L2036.42 1183.72 L2036.42 1183.72  Z" fill="#ee82ee" fill-rule="evenodd" fill-opacity="1"/>
<polyline clip-path="url(#clip202)" style="stroke:#000000; stroke-linecap:round; stroke-linejoin:round; stroke-width:4; stroke-opacity:1; fill:none" points="2036.42,1183.72 2036.42,4776.06 2231.93,4776.06 2231.93,1183.72 2036.42,1183.72 "/>
<circle clip-path="url(#clip202)" style="fill:#ee82ee; stroke:none; fill-opacity:0" cx="374.598" cy="1324.68" r="2"/>
<circle clip-path="url(#clip202)" style="fill:#ee82ee; stroke:none; fill-opacity:0" cx="570.107" cy="1019.04" r="2"/>
<circle clip-path="url(#clip202)" style="fill:#ee82ee; stroke:none; fill-opacity:0" cx="765.616" cy="726.548" r="2"/>
<circle clip-path="url(#clip202)" style="fill:#ee82ee; stroke:none; fill-opacity:0" cx="961.125" cy="474.934" r="2"/>
<circle clip-path="url(#clip202)" style="fill:#ee82ee; stroke:none; fill-opacity:0" cx="1156.63" cy="297.83" r="2"/>
<circle clip-path="url(#clip202)" style="fill:#ee82ee; stroke:none; fill-opacity:0" cx="1352.14" cy="238.288" r="2"/>
<circle clip-path="url(#clip202)" style="fill:#ee82ee; stroke:none; fill-opacity:0" cx="1547.65" cy="239.193" r="2"/>
<circle clip-path="url(#clip202)" style="fill:#ee82ee; stroke:none; fill-opacity:0" cx="1743.16" cy="417.777" r="2"/>
<circle clip-path="url(#clip202)" style="fill:#ee82ee; stroke:none; fill-opacity:0" cx="1938.67" cy="718.448" r="2"/>
<circle clip-path="url(#clip202)" style="fill:#ee82ee; stroke:none; fill-opacity:0" cx="2134.18" cy="1183.72" r="2"/>
<polyline clip-path="url(#clip202)" style="stroke:#0000ff; stroke-linecap:round; stroke-linejoin:round; stroke-width:12; stroke-opacity:1; fill:none" points="276.844,1486.45 296.395,1453.56 315.946,1420.68 335.497,1387.85 355.047,1355.07 374.598,1322.38 394.149,1289.78 413.7,1257.3 433.251,1224.96 452.802,1192.78 472.353,1160.78 491.904,1128.97 511.454,1097.38 531.005,1066.03 550.556,1034.93 570.107,1004.11 589.658,973.585 609.209,943.376 628.76,913.503 648.311,883.986 667.861,854.843 687.412,826.095 706.963,797.762 726.514,769.863 746.065,742.417 765.616,715.446 785.167,688.968 804.718,663.003 824.268,637.571 843.819,612.692 863.37,588.385 882.921,564.67 902.472,541.567 922.023,519.096 941.574,497.276 961.125,476.127 980.675,455.669 1000.23,435.921 1019.78,416.904 1039.33,398.637 1058.88,381.139 1078.43,364.431 1097.98,348.533 1117.53,333.463 1137.08,319.242 1156.63,305.89 1176.18,293.425 1195.74,281.869 1215.29,271.24 1234.84,261.559 1254.39,252.845 1273.94,245.117 1293.49,238.397 1313.04,232.702 1332.59,228.054 1352.14,224.472 1371.69,221.975 1391.24,220.583 1410.79,220.317 1430.35,221.195 1449.9,223.238 1469.45,226.465 1489,230.896 1508.55,236.551 1528.1,243.45 1547.65,251.611 1567.2,261.055 1586.75,271.803 1606.3,283.872 1625.85,297.284 1645.41,312.058 1664.96,328.213 1684.51,345.769 1704.06,364.747 1723.61,385.166 1743.16,407.045 1762.71,430.405 1782.26,455.264 1801.81,481.643 1821.36,509.562 1840.91,539.041 1860.46,570.098 1880.02,602.754 1899.57,637.028 1919.12,672.941 1938.67,710.511 1958.22,749.76 1977.77,790.706 1997.32,833.368 2016.87,877.768 2036.42,923.925 2055.97,971.858 2075.52,1021.59 2095.08,1073.13 2114.63,1126.51 2134.18,1181.75 2153.73,1238.86 2173.28,1297.86 2192.83,1358.78 2212.38,1421.64 2231.93,1486.45 "/>
<path clip-path="url(#clip200)" d="M748.368 1438.47 L1760.41 1438.47 L1760.41 1174.78 L748.368 1174.78  Z" fill="#ffffff" fill-rule="evenodd" fill-opacity="1"/>
<polyline clip-path="url(#clip200)" style="stroke:#000000; stroke-linecap:round; stroke-linejoin:round; stroke-width:4; stroke-opacity:1; fill:none" points="748.368,1438.47 1760.41,1438.47 1760.41,1174.78 748.368,1174.78 748.368,1438.47 "/>
<path clip-path="url(#clip200)" d="M772.776 1297.84 L919.225 1297.84 L919.225 1227.52 L772.776 1227.52 L772.776 1297.84  Z" fill="#ee82ee" fill-rule="evenodd" fill-opacity="1"/>
<polyline clip-path="url(#clip200)" style="stroke:#000000; stroke-linecap:round; stroke-linejoin:round; stroke-width:4; stroke-opacity:1; fill:none" points="772.776,1297.84 919.225,1297.84 919.225,1227.52 772.776,1227.52 772.776,1297.84 "/>
<path clip-path="url(#clip200)" d="M943.633 1251.53 L950.601 1251.53 L959.42 1275.05 L968.286 1251.53 L975.253 1251.53 L975.253 1286.09 L970.693 1286.09 L970.693 1255.74 L961.781 1279.45 L957.082 1279.45 L948.17 1255.74 L948.17 1286.09 L943.633 1286.09 L943.633 1251.53 Z" fill="#000000" fill-rule="nonzero" fill-opacity="1" /><path clip-path="url(#clip200)" d="M1006.53 1272.06 L1006.53 1274.15 L986.943 1274.15 Q987.221 1278.54 989.582 1280.86 Q991.966 1283.15 996.202 1283.15 Q998.656 1283.15 1000.95 1282.55 Q1003.26 1281.95 1005.53 1280.74 L1005.53 1284.77 Q1003.24 1285.74 1000.83 1286.25 Q998.425 1286.76 995.948 1286.76 Q989.744 1286.76 986.11 1283.15 Q982.499 1279.54 982.499 1273.38 Q982.499 1267.02 985.925 1263.29 Q989.374 1259.54 995.207 1259.54 Q1000.44 1259.54 1003.47 1262.92 Q1006.53 1266.28 1006.53 1272.06 M1002.27 1270.81 Q1002.22 1267.32 1000.3 1265.23 Q998.401 1263.15 995.253 1263.15 Q991.689 1263.15 989.536 1265.17 Q987.406 1267.18 987.082 1270.84 L1002.27 1270.81 Z" fill="#000000" fill-rule="nonzero" fill-opacity="1" /><path clip-path="url(#clip200)" d="M1017.73 1252.8 L1017.73 1260.17 L1026.5 1260.17 L1026.5 1263.48 L1017.73 1263.48 L1017.73 1277.55 Q1017.73 1280.72 1018.59 1281.62 Q1019.47 1282.53 1022.13 1282.53 L1026.5 1282.53 L1026.5 1286.09 L1022.13 1286.09 Q1017.2 1286.09 1015.32 1284.26 Q1013.45 1282.41 1013.45 1277.55 L1013.45 1263.48 L1010.32 1263.48 L1010.32 1260.17 L1013.45 1260.17 L1013.45 1252.8 L1017.73 1252.8 Z" fill="#000000" fill-rule="nonzero" fill-opacity="1" /><path clip-path="url(#clip200)" d="M1042.15 1263.15 Q1038.73 1263.15 1036.73 1265.84 Q1034.74 1268.5 1034.74 1273.15 Q1034.74 1277.8 1036.71 1280.49 Q1038.7 1283.15 1042.15 1283.15 Q1045.55 1283.15 1047.54 1280.47 Q1049.54 1277.78 1049.54 1273.15 Q1049.54 1268.54 1047.54 1265.86 Q1045.55 1263.15 1042.15 1263.15 M1042.15 1259.54 Q1047.71 1259.54 1050.88 1263.15 Q1054.05 1266.76 1054.05 1273.15 Q1054.05 1279.52 1050.88 1283.15 Q1047.71 1286.76 1042.15 1286.76 Q1036.57 1286.76 1033.4 1283.15 Q1030.25 1279.52 1030.25 1273.15 Q1030.25 1266.76 1033.4 1263.15 Q1036.57 1259.54 1042.15 1259.54 Z" fill="#000000" fill-rule="nonzero" fill-opacity="1" /><path clip-path="url(#clip200)" d="M1078.17 1264.1 L1078.17 1250.07 L1082.43 1250.07 L1082.43 1286.09 L1078.17 1286.09 L1078.17 1282.2 Q1076.83 1284.52 1074.77 1285.65 Q1072.73 1286.76 1069.86 1286.76 Q1065.16 1286.76 1062.2 1283.01 Q1059.26 1279.26 1059.26 1273.15 Q1059.26 1267.04 1062.2 1263.29 Q1065.16 1259.54 1069.86 1259.54 Q1072.73 1259.54 1074.77 1260.67 Q1076.83 1261.79 1078.17 1264.1 M1063.66 1273.15 Q1063.66 1277.85 1065.58 1280.54 Q1067.52 1283.2 1070.9 1283.2 Q1074.28 1283.2 1076.23 1280.54 Q1078.17 1277.85 1078.17 1273.15 Q1078.17 1268.45 1076.23 1265.79 Q1074.28 1263.1 1070.9 1263.1 Q1067.52 1263.1 1065.58 1265.79 Q1063.66 1268.45 1063.66 1273.15 Z" fill="#000000" fill-rule="nonzero" fill-opacity="1" /><path clip-path="url(#clip200)" d="M1102.98 1273.06 Q1097.82 1273.06 1095.83 1274.24 Q1093.84 1275.42 1093.84 1278.27 Q1093.84 1280.54 1095.32 1281.88 Q1096.83 1283.2 1099.4 1283.2 Q1102.94 1283.2 1105.07 1280.7 Q1107.22 1278.17 1107.22 1274.01 L1107.22 1273.06 L1102.98 1273.06 M1111.48 1271.3 L1111.48 1286.09 L1107.22 1286.09 L1107.22 1282.16 Q1105.76 1284.52 1103.59 1285.65 Q1101.41 1286.76 1098.26 1286.76 Q1094.28 1286.76 1091.92 1284.54 Q1089.58 1282.29 1089.58 1278.54 Q1089.58 1274.17 1092.5 1271.95 Q1095.44 1269.73 1101.25 1269.73 L1107.22 1269.73 L1107.22 1269.31 Q1107.22 1266.37 1105.28 1264.77 Q1103.35 1263.15 1099.86 1263.15 Q1097.64 1263.15 1095.53 1263.68 Q1093.42 1264.22 1091.48 1265.28 L1091.48 1261.35 Q1093.82 1260.44 1096.02 1260 Q1098.22 1259.54 1100.3 1259.54 Q1105.92 1259.54 1108.7 1262.46 Q1111.48 1265.37 1111.48 1271.3 Z" fill="#000000" fill-rule="nonzero" fill-opacity="1" /><path clip-path="url(#clip200)" d="M1157.5 1272.06 L1157.5 1274.15 L1137.91 1274.15 Q1138.19 1278.54 1140.55 1280.86 Q1142.94 1283.15 1147.17 1283.15 Q1149.63 1283.15 1151.92 1282.55 Q1154.23 1281.95 1156.5 1280.74 L1156.5 1284.77 Q1154.21 1285.74 1151.8 1286.25 Q1149.4 1286.76 1146.92 1286.76 Q1140.72 1286.76 1137.08 1283.15 Q1133.47 1279.54 1133.47 1273.38 Q1133.47 1267.02 1136.9 1263.29 Q1140.35 1259.54 1146.18 1259.54 Q1151.41 1259.54 1154.44 1262.92 Q1157.5 1266.28 1157.5 1272.06 M1153.24 1270.81 Q1153.19 1267.32 1151.27 1265.23 Q1149.37 1263.15 1146.22 1263.15 Q1142.66 1263.15 1140.51 1265.17 Q1138.38 1267.18 1138.05 1270.84 L1153.24 1270.81 Z" fill="#000000" fill-rule="nonzero" fill-opacity="1" /><path clip-path="url(#clip200)" d="M1164.49 1250.07 L1168.75 1250.07 L1168.75 1286.09 L1164.49 1286.09 L1164.49 1250.07 Z" fill="#000000" fill-rule="nonzero" fill-opacity="1" /><path clip-path="url(#clip200)" d="M1177.66 1260.17 L1181.92 1260.17 L1181.92 1286.09 L1177.66 1286.09 L1177.66 1260.17 M1177.66 1250.07 L1181.92 1250.07 L1181.92 1255.47 L1177.66 1255.47 L1177.66 1250.07 Z" fill="#000000" fill-rule="nonzero" fill-opacity="1" /><path clip-path="url(#clip200)" d="M1211.02 1265.14 Q1212.61 1262.27 1214.84 1260.91 Q1217.06 1259.54 1220.07 1259.54 Q1224.12 1259.54 1226.32 1262.39 Q1228.52 1265.21 1228.52 1270.44 L1228.52 1286.09 L1224.23 1286.09 L1224.23 1270.58 Q1224.23 1266.85 1222.91 1265.05 Q1221.59 1263.24 1218.89 1263.24 Q1215.58 1263.24 1213.65 1265.44 Q1211.73 1267.64 1211.73 1271.44 L1211.73 1286.09 L1207.45 1286.09 L1207.45 1270.58 Q1207.45 1266.83 1206.13 1265.05 Q1204.81 1263.24 1202.06 1263.24 Q1198.79 1263.24 1196.87 1265.47 Q1194.95 1267.67 1194.95 1271.44 L1194.95 1286.09 L1190.67 1286.09 L1190.67 1260.17 L1194.95 1260.17 L1194.95 1264.19 Q1196.41 1261.81 1198.45 1260.67 Q1200.48 1259.54 1203.28 1259.54 Q1206.11 1259.54 1208.08 1260.98 Q1210.07 1262.41 1211.02 1265.14 Z" fill="#000000" fill-rule="nonzero" fill-opacity="1" /><path clip-path="url(#clip200)" d="M1237.01 1260.17 L1241.27 1260.17 L1241.27 1286.09 L1237.01 1286.09 L1237.01 1260.17 M1237.01 1250.07 L1241.27 1250.07 L1241.27 1255.47 L1237.01 1255.47 L1237.01 1250.07 Z" fill="#000000" fill-rule="nonzero" fill-opacity="1" /><path clip-path="url(#clip200)" d="M1271.73 1270.44 L1271.73 1286.09 L1267.47 1286.09 L1267.47 1270.58 Q1267.47 1266.9 1266.04 1265.07 Q1264.6 1263.24 1261.73 1263.24 Q1258.28 1263.24 1256.29 1265.44 Q1254.3 1267.64 1254.3 1271.44 L1254.3 1286.09 L1250.02 1286.09 L1250.02 1260.17 L1254.3 1260.17 L1254.3 1264.19 Q1255.83 1261.85 1257.89 1260.7 Q1259.97 1259.54 1262.68 1259.54 Q1267.15 1259.54 1269.44 1262.32 Q1271.73 1265.07 1271.73 1270.44 Z" fill="#000000" fill-rule="nonzero" fill-opacity="1" /><path clip-path="url(#clip200)" d="M1292.01 1273.06 Q1286.85 1273.06 1284.86 1274.24 Q1282.87 1275.42 1282.87 1278.27 Q1282.87 1280.54 1284.35 1281.88 Q1285.85 1283.2 1288.42 1283.2 Q1291.96 1283.2 1294.09 1280.7 Q1296.25 1278.17 1296.25 1274.01 L1296.25 1273.06 L1292.01 1273.06 M1300.51 1271.3 L1300.51 1286.09 L1296.25 1286.09 L1296.25 1282.16 Q1294.79 1284.52 1292.61 1285.65 Q1290.44 1286.76 1287.29 1286.76 Q1283.31 1286.76 1280.95 1284.54 Q1278.61 1282.29 1278.61 1278.54 Q1278.61 1274.17 1281.52 1271.95 Q1284.46 1269.73 1290.27 1269.73 L1296.25 1269.73 L1296.25 1269.31 Q1296.25 1266.37 1294.3 1264.77 Q1292.38 1263.15 1288.89 1263.15 Q1286.66 1263.15 1284.56 1263.68 Q1282.45 1264.22 1280.51 1265.28 L1280.51 1261.35 Q1282.84 1260.44 1285.04 1260 Q1287.24 1259.54 1289.33 1259.54 Q1294.95 1259.54 1297.73 1262.46 Q1300.51 1265.37 1300.51 1271.3 Z" fill="#000000" fill-rule="nonzero" fill-opacity="1" /><path clip-path="url(#clip200)" d="M1327.94 1261.16 L1327.94 1265.14 Q1326.13 1264.15 1324.3 1263.66 Q1322.5 1263.15 1320.65 1263.15 Q1316.5 1263.15 1314.21 1265.79 Q1311.92 1268.41 1311.92 1273.15 Q1311.92 1277.9 1314.21 1280.54 Q1316.5 1283.15 1320.65 1283.15 Q1322.5 1283.15 1324.3 1282.66 Q1326.13 1282.16 1327.94 1281.16 L1327.94 1285.1 Q1326.15 1285.93 1324.23 1286.35 Q1322.33 1286.76 1320.18 1286.76 Q1314.33 1286.76 1310.88 1283.08 Q1307.43 1279.4 1307.43 1273.15 Q1307.43 1266.81 1310.9 1263.17 Q1314.4 1259.54 1320.46 1259.54 Q1322.43 1259.54 1324.3 1259.96 Q1326.18 1260.35 1327.94 1261.16 Z" fill="#000000" fill-rule="nonzero" fill-opacity="1" /><path clip-path="url(#clip200)" d="M1335.34 1260.17 L1339.6 1260.17 L1339.6 1286.55 Q1339.6 1291.51 1337.71 1293.73 Q1335.83 1295.95 1331.64 1295.95 L1330.02 1295.95 L1330.02 1292.34 L1331.15 1292.34 Q1333.58 1292.34 1334.46 1291.21 Q1335.34 1290.1 1335.34 1286.55 L1335.34 1260.17 M1335.34 1250.07 L1339.6 1250.07 L1339.6 1255.47 L1335.34 1255.47 L1335.34 1250.07 Z" fill="#000000" fill-rule="nonzero" fill-opacity="1" /><path clip-path="url(#clip200)" d="M1348.52 1260.17 L1352.77 1260.17 L1352.77 1286.09 L1348.52 1286.09 L1348.52 1260.17 M1348.52 1250.07 L1352.77 1250.07 L1352.77 1255.47 L1348.52 1255.47 L1348.52 1250.07 Z" fill="#000000" fill-rule="nonzero" fill-opacity="1" /><path clip-path="url(#clip200)" d="M1362.77 1280.21 L1367.66 1280.21 L1367.66 1284.19 L1363.86 1291.6 L1360.88 1291.6 L1362.77 1284.19 L1362.77 1280.21 Z" fill="#000000" fill-rule="nonzero" fill-opacity="1" /><path clip-path="url(#clip200)" d="M1427.74 1253.86 Q1427.74 1254.82 1426.92 1254.82 Q1424.27 1254.92 1423.19 1255.81 Q1422.14 1256.67 1421.74 1258.36 L1415.04 1285.08 Q1414.81 1285.93 1414.67 1286.02 Q1414.53 1286.09 1414.27 1286.09 Q1413.94 1286.09 1413.75 1285.93 Q1413.59 1285.76 1413.36 1285.18 L1401.41 1256.93 Q1401.32 1256.74 1401.2 1256.48 Q1401.08 1256.23 1400.99 1256.06 L1394.64 1281.38 Q1394.45 1282.11 1394.45 1282.48 Q1394.45 1283.4 1395.09 1283.98 Q1395.74 1284.55 1397.62 1284.62 Q1398.58 1284.62 1398.58 1285.13 Q1398.58 1286.09 1397.71 1286.09 Q1396.91 1286.09 1395.25 1286.02 Q1393.59 1285.95 1392.77 1285.95 Q1391.97 1285.95 1390.36 1286.02 Q1388.74 1286.09 1387.97 1286.09 Q1387.36 1286.09 1387.36 1285.55 Q1387.36 1285.13 1387.52 1284.92 Q1387.69 1284.69 1387.83 1284.66 Q1387.97 1284.62 1388.18 1284.62 Q1389.58 1284.57 1390.54 1284.29 Q1391.5 1284.01 1392.04 1283.47 Q1392.6 1282.93 1392.86 1282.39 Q1393.14 1281.83 1393.35 1281.01 L1399.77 1255.24 Q1399.77 1254.82 1396.52 1254.82 Q1395.95 1254.82 1395.72 1254.8 Q1395.51 1254.78 1395.34 1254.66 Q1395.18 1254.54 1395.18 1254.28 Q1395.18 1253.63 1395.46 1253.49 Q1395.74 1253.32 1396.56 1253.32 L1403 1253.32 Q1403.82 1253.32 1404.03 1253.46 Q1404.25 1253.58 1404.53 1254.24 L1415.14 1279.27 L1420.5 1257.94 Q1420.64 1257.52 1420.64 1256.93 Q1420.64 1255.99 1419.94 1255.43 Q1419.26 1254.85 1417.39 1254.82 Q1416.52 1254.82 1416.52 1254.28 Q1416.52 1253.84 1416.68 1253.63 Q1416.87 1253.39 1417.01 1253.37 Q1417.17 1253.32 1417.39 1253.32 Q1418.18 1253.32 1419.82 1253.39 Q1421.46 1253.46 1422.28 1253.46 Q1423.08 1253.46 1424.69 1253.39 Q1426.33 1253.32 1427.13 1253.32 Q1427.41 1253.32 1427.55 1253.46 Q1427.71 1253.58 1427.74 1253.72 L1427.74 1253.86 Z" fill="#000000" fill-rule="nonzero" fill-opacity="1" /><path clip-path="url(#clip200)" d="M1438.79 1278.81 Q1438.84 1278.22 1439.75 1278.22 L1469.15 1278.22 Q1470.53 1278.22 1470.55 1278.76 Q1470.55 1279.35 1469.24 1279.32 L1440.08 1279.32 Q1438.79 1279.35 1438.79 1278.81 M1438.79 1269.44 Q1438.79 1268.85 1439.8 1268.88 L1469.1 1268.88 Q1470.53 1268.88 1470.55 1269.44 Q1470.55 1269.98 1469.34 1269.98 L1439.75 1269.98 Q1438.79 1269.98 1438.79 1269.44 Z" fill="#000000" fill-rule="nonzero" fill-opacity="1" /><path clip-path="url(#clip200)" d="M1489.04 1258.71 L1489.04 1257.21 Q1494.81 1257.21 1497.78 1254.14 Q1498.6 1254.14 1498.74 1254.33 Q1498.88 1254.52 1498.88 1255.38 L1498.88 1282.3 Q1498.88 1283.73 1499.58 1284.17 Q1500.29 1284.62 1503.36 1284.62 L1504.88 1284.62 L1504.88 1286.09 Q1503.19 1285.95 1497.1 1285.95 Q1491.01 1285.95 1489.35 1286.09 L1489.35 1284.62 L1490.87 1284.62 Q1493.89 1284.62 1494.62 1284.19 Q1495.34 1283.75 1495.34 1282.3 L1495.34 1257.45 Q1492.84 1258.71 1489.04 1258.71 Z" fill="#000000" fill-rule="nonzero" fill-opacity="1" /><path clip-path="url(#clip200)" d="M1512.79 1270.75 Q1512.79 1263.7 1514.57 1259.86 Q1517.06 1254.14 1522.91 1254.14 Q1524.15 1254.14 1525.44 1254.49 Q1526.75 1254.82 1528.39 1256.11 Q1530.06 1257.4 1531.06 1259.51 Q1532.98 1263.58 1532.98 1270.75 Q1532.98 1277.75 1531.2 1281.57 Q1528.6 1287.14 1522.87 1287.14 Q1520.71 1287.14 1518.51 1286.04 Q1516.33 1284.94 1514.95 1282.3 Q1512.79 1278.34 1512.79 1270.75 M1516.78 1270.16 Q1516.78 1277.4 1517.29 1280.28 Q1517.88 1283.4 1519.47 1284.76 Q1521.09 1286.09 1522.87 1286.09 Q1524.79 1286.09 1526.38 1284.66 Q1528 1283.21 1528.49 1280.09 Q1529.03 1277.03 1529 1270.16 Q1529 1263.49 1528.53 1260.82 Q1527.9 1257.7 1526.22 1256.46 Q1524.55 1255.2 1522.87 1255.2 Q1522.23 1255.2 1521.55 1255.38 Q1520.9 1255.57 1519.94 1256.11 Q1518.98 1256.65 1518.23 1257.98 Q1517.5 1259.32 1517.15 1261.33 Q1516.78 1263.93 1516.78 1270.16 Z" fill="#000000" fill-rule="nonzero" fill-opacity="1" /><path clip-path="url(#clip200)" d="M1537.9 1249.75 Q1537.9 1244.47 1540.59 1241.24 Q1543.28 1238 1546.74 1238 Q1548.75 1238 1549.87 1239.03 Q1551 1240.05 1551 1241.62 Q1551 1242.49 1550.49 1242.87 Q1549.98 1243.24 1549.46 1243.24 Q1548.85 1243.24 1548.38 1242.83 Q1547.9 1242.43 1547.9 1241.69 Q1547.9 1240.18 1549.75 1240.18 Q1548.88 1238.83 1546.8 1238.83 Q1546.16 1238.83 1545.51 1239.03 Q1544.85 1239.21 1544 1239.83 Q1543.15 1240.46 1542.49 1241.44 Q1541.83 1242.43 1541.37 1244.28 Q1540.92 1246.13 1540.92 1248.54 L1540.92 1249.34 Q1542.29 1246.02 1545.11 1246.03 Q1547.93 1246.03 1549.88 1248.18 Q1551.83 1250.33 1551.83 1253.51 Q1551.83 1256.77 1549.8 1258.94 Q1547.77 1261.1 1544.92 1261.1 Q1543.64 1261.1 1542.47 1260.56 Q1541.33 1260.03 1540.24 1258.82 Q1539.18 1257.61 1538.54 1255.28 Q1537.9 1252.95 1537.9 1249.75 M1540.98 1252.77 Q1540.98 1256.07 1541.59 1257.64 Q1541.69 1257.9 1541.9 1258.26 Q1542.13 1258.62 1542.51 1259.1 Q1542.9 1259.56 1543.54 1259.87 Q1544.18 1260.17 1544.92 1260.17 Q1547.16 1260.17 1548.24 1257.98 Q1548.82 1256.77 1548.82 1253.48 Q1548.82 1250.11 1548.21 1248.88 Q1547.18 1246.8 1545.08 1246.8 Q1543.67 1246.8 1542.69 1247.77 Q1541.72 1248.74 1541.34 1250.03 Q1540.98 1251.33 1540.98 1252.77 Z" fill="#000000" fill-rule="nonzero" fill-opacity="1" /><path clip-path="url(#clip200)" d="M1580.47 1282.2 L1580.47 1295.95 L1576.19 1295.95 L1576.19 1260.17 L1580.47 1260.17 L1580.47 1264.1 Q1581.81 1261.79 1583.85 1260.67 Q1585.91 1259.54 1588.75 1259.54 Q1593.48 1259.54 1596.42 1263.29 Q1599.38 1267.04 1599.38 1273.15 Q1599.38 1279.26 1596.42 1283.01 Q1593.48 1286.76 1588.75 1286.76 Q1585.91 1286.76 1583.85 1285.65 Q1581.81 1284.52 1580.47 1282.2 M1594.96 1273.15 Q1594.96 1268.45 1593.01 1265.79 Q1591.09 1263.1 1587.71 1263.1 Q1584.33 1263.1 1582.39 1265.79 Q1580.47 1268.45 1580.47 1273.15 Q1580.47 1277.85 1582.39 1280.54 Q1584.33 1283.2 1587.71 1283.2 Q1591.09 1283.2 1593.01 1280.54 Q1594.96 1277.85 1594.96 1273.15 Z" fill="#000000" fill-rule="nonzero" fill-opacity="1" /><path clip-path="url(#clip200)" d="M1621.46 1264.15 Q1620.75 1263.73 1619.89 1263.54 Q1619.06 1263.34 1618.04 1263.34 Q1614.43 1263.34 1612.48 1265.7 Q1610.56 1268.04 1610.56 1272.43 L1610.56 1286.09 L1606.28 1286.09 L1606.28 1260.17 L1610.56 1260.17 L1610.56 1264.19 Q1611.9 1261.83 1614.06 1260.7 Q1616.21 1259.54 1619.29 1259.54 Q1619.73 1259.54 1620.26 1259.61 Q1620.79 1259.66 1621.44 1259.77 L1621.46 1264.15 Z" fill="#000000" fill-rule="nonzero" fill-opacity="1" /><path clip-path="url(#clip200)" d="M1634.94 1263.15 Q1631.51 1263.15 1629.52 1265.84 Q1627.53 1268.5 1627.53 1273.15 Q1627.53 1277.8 1629.5 1280.49 Q1631.49 1283.15 1634.94 1283.15 Q1638.34 1283.15 1640.33 1280.47 Q1642.32 1277.78 1642.32 1273.15 Q1642.32 1268.54 1640.33 1265.86 Q1638.34 1263.15 1634.94 1263.15 M1634.94 1259.54 Q1640.49 1259.54 1643.66 1263.15 Q1646.83 1266.76 1646.83 1273.15 Q1646.83 1279.52 1643.66 1283.15 Q1640.49 1286.76 1634.94 1286.76 Q1629.36 1286.76 1626.19 1283.15 Q1623.04 1279.52 1623.04 1273.15 Q1623.04 1266.76 1626.19 1263.15 Q1629.36 1259.54 1634.94 1259.54 M1638.15 1248.17 L1642.76 1248.17 L1635.21 1256.88 L1631.67 1256.88 L1638.15 1248.17 Z" fill="#000000" fill-rule="nonzero" fill-opacity="1" /><path clip-path="url(#clip200)" d="M1672.5 1273.15 Q1672.5 1268.45 1670.56 1265.79 Q1668.64 1263.1 1665.26 1263.1 Q1661.88 1263.1 1659.94 1265.79 Q1658.01 1268.45 1658.01 1273.15 Q1658.01 1277.85 1659.94 1280.54 Q1661.88 1283.2 1665.26 1283.2 Q1668.64 1283.2 1670.56 1280.54 Q1672.5 1277.85 1672.5 1273.15 M1658.01 1264.1 Q1659.36 1261.79 1661.39 1260.67 Q1663.45 1259.54 1666.3 1259.54 Q1671.02 1259.54 1673.96 1263.29 Q1676.93 1267.04 1676.93 1273.15 Q1676.93 1279.26 1673.96 1283.01 Q1671.02 1286.76 1666.3 1286.76 Q1663.45 1286.76 1661.39 1285.65 Q1659.36 1284.52 1658.01 1282.2 L1658.01 1286.09 L1653.73 1286.09 L1653.73 1250.07 L1658.01 1250.07 L1658.01 1264.1 Z" fill="#000000" fill-rule="nonzero" fill-opacity="1" /><path clip-path="url(#clip200)" d="M1706.16 1272.06 L1706.16 1274.15 L1686.58 1274.15 Q1686.86 1278.54 1689.22 1280.86 Q1691.6 1283.15 1695.84 1283.15 Q1698.29 1283.15 1700.58 1282.55 Q1702.9 1281.95 1705.17 1280.74 L1705.17 1284.77 Q1702.87 1285.74 1700.47 1286.25 Q1698.06 1286.76 1695.58 1286.76 Q1689.38 1286.76 1685.75 1283.15 Q1682.13 1279.54 1682.13 1273.38 Q1682.13 1267.02 1685.56 1263.29 Q1689.01 1259.54 1694.84 1259.54 Q1700.07 1259.54 1703.11 1262.92 Q1706.16 1266.28 1706.16 1272.06 M1701.9 1270.81 Q1701.86 1267.32 1699.93 1265.23 Q1698.04 1263.15 1694.89 1263.15 Q1691.32 1263.15 1689.17 1265.17 Q1687.04 1267.18 1686.72 1270.84 L1701.9 1270.81 Z" fill="#000000" fill-rule="nonzero" fill-opacity="1" /><path clip-path="url(#clip200)" d="M1712.99 1250.07 L1717.27 1250.07 L1717.27 1271.35 L1729.98 1260.17 L1735.42 1260.17 L1721.67 1272.29 L1736 1286.09 L1730.44 1286.09 L1717.27 1273.43 L1717.27 1286.09 L1712.99 1286.09 L1712.99 1250.07 Z" fill="#000000" fill-rule="nonzero" fill-opacity="1" /><polyline clip-path="url(#clip200)" style="stroke:#0000ff; stroke-linecap:round; stroke-linejoin:round; stroke-width:12; stroke-opacity:1; fill:none" points="772.776,1350.58 919.225,1350.58 "/>
<path clip-path="url(#clip200)" d="M967.548 1331.68 Q967.548 1332.97 966.728 1333.77 Q965.931 1334.56 964.924 1334.56 Q964.198 1334.56 963.659 1334.12 Q963.144 1333.67 963.144 1332.9 Q963.144 1332.1 963.753 1331.26 Q964.362 1330.42 965.744 1330.3 Q964.831 1329.43 963.378 1329.43 Q962.652 1329.43 962.043 1329.9 Q961.458 1330.35 961.13 1331.07 Q960.778 1331.82 959.982 1336.06 Q959.724 1337.44 959.49 1338.78 Q959.256 1340.11 958.975 1341.52 L962.957 1341.52 Q963.472 1341.52 963.683 1341.54 Q963.894 1341.56 964.058 1341.68 Q964.245 1341.8 964.245 1342.06 Q964.245 1342.71 963.941 1342.88 Q963.659 1343.02 962.816 1343.02 L958.694 1343.02 L955.813 1358.22 Q955.743 1358.66 955.438 1360.07 Q955.157 1361.45 954.478 1363.72 Q953.799 1366.02 953.119 1367.38 Q952.745 1368.15 952.253 1368.88 Q951.784 1369.62 951.105 1370.37 Q950.426 1371.12 949.536 1371.57 Q948.646 1372.04 947.709 1372.04 Q946.116 1372.04 944.875 1371.15 Q943.633 1370.26 943.633 1368.73 Q943.633 1367.45 944.43 1366.65 Q945.249 1365.85 946.257 1365.85 Q946.983 1365.85 947.498 1366.3 Q948.037 1366.74 948.037 1367.52 Q948.037 1367.84 947.92 1368.22 Q947.802 1368.59 947.545 1369.02 Q947.287 1369.46 946.725 1369.77 Q946.163 1370.07 945.39 1370.12 Q946.303 1370.98 947.709 1370.98 Q948.154 1370.98 948.552 1370.8 Q948.95 1370.63 949.278 1370.21 Q949.629 1369.79 949.887 1369.37 Q950.145 1368.97 950.402 1368.2 Q950.66 1367.45 950.824 1366.88 Q950.988 1366.32 951.199 1365.32 Q951.433 1364.31 951.55 1363.7 Q951.667 1363.11 951.878 1361.97 L955.462 1343.02 L952.3 1343.02 Q951.737 1343.02 951.503 1342.99 Q951.292 1342.97 951.128 1342.85 Q950.964 1342.71 950.964 1342.43 Q950.964 1341.99 951.152 1341.8 Q951.363 1341.59 951.597 1341.56 Q951.831 1341.52 952.393 1341.52 L955.719 1341.52 Q956.844 1335.59 957.289 1334 Q957.804 1332.31 958.6 1331.14 Q959.397 1329.95 960.287 1329.39 Q961.177 1328.82 961.903 1328.61 Q962.652 1328.38 963.378 1328.38 Q965.018 1328.38 966.283 1329.27 Q967.548 1330.13 967.548 1331.68 Z" fill="#000000" fill-rule="nonzero" fill-opacity="1" /><path clip-path="url(#clip200)" d="M974 1350.21 Q974 1342.1 977.022 1335.57 Q978.31 1332.83 980.113 1330.53 Q981.917 1328.24 983.112 1327.23 Q984.306 1326.22 984.634 1326.22 Q985.102 1326.22 985.126 1326.69 Q985.126 1326.93 984.493 1327.51 Q976.764 1335.38 976.787 1350.21 Q976.787 1365.08 984.306 1372.65 Q985.126 1373.47 985.126 1373.72 Q985.126 1374.19 984.634 1374.19 Q984.306 1374.19 983.158 1373.23 Q982.011 1372.27 980.231 1370.07 Q978.45 1367.87 977.162 1365.17 Q974 1358.64 974 1350.21 Z" fill="#000000" fill-rule="nonzero" fill-opacity="1" /><path clip-path="url(#clip200)" d="M1012.66 1344.16 Q1012.66 1345.48 1011.84 1346.23 Q1011.02 1346.95 1010.08 1346.95 Q1009.19 1346.95 1008.72 1346.44 Q1008.26 1345.92 1008.26 1345.27 Q1008.26 1344.38 1008.91 1343.6 Q1009.57 1342.83 1010.55 1342.67 Q1009.59 1342.06 1008.16 1342.06 Q1007.22 1342.06 1006.4 1342.55 Q1005.61 1343.04 1005.12 1343.67 Q1004.65 1344.31 1004.23 1345.22 Q1003.83 1346.11 1003.66 1346.65 Q1003.52 1347.16 1003.41 1347.72 L1001.77 1354.28 Q1000.97 1357.4 1000.97 1358.5 Q1000.97 1359.86 1001.63 1360.77 Q1002.28 1361.66 1003.59 1361.66 Q1004.11 1361.66 1004.69 1361.52 Q1005.28 1361.36 1006.03 1360.94 Q1006.8 1360.49 1007.48 1359.83 Q1008.18 1359.16 1008.86 1358.01 Q1009.54 1356.86 1009.99 1355.38 Q1010.13 1354.87 1010.6 1354.87 Q1011.18 1354.87 1011.18 1355.34 Q1011.18 1355.74 1010.86 1356.58 Q1010.55 1357.4 1009.87 1358.48 Q1009.22 1359.53 1008.35 1360.49 Q1007.48 1361.43 1006.19 1362.08 Q1004.91 1362.74 1003.5 1362.74 Q1001.49 1362.74 1000.15 1361.66 Q998.816 1360.58 998.324 1359.08 Q998.207 1359.3 998.043 1359.58 Q997.879 1359.86 997.387 1360.49 Q996.919 1361.1 996.38 1361.57 Q995.841 1362.01 994.998 1362.36 Q994.178 1362.74 993.288 1362.74 Q992.164 1362.74 991.157 1362.41 Q990.173 1362.08 989.47 1361.33 Q988.768 1360.58 988.768 1359.55 Q988.768 1358.41 989.541 1357.61 Q990.337 1356.79 991.414 1356.79 Q992.094 1356.79 992.632 1357.19 Q993.195 1357.59 993.195 1358.45 Q993.195 1359.41 992.539 1360.14 Q991.883 1360.86 990.946 1361.05 Q991.906 1361.66 993.335 1361.66 Q994.881 1361.66 996.099 1360.3 Q997.317 1358.94 997.902 1356.67 Q999.355 1351.21 999.917 1348.78 Q1000.48 1346.32 1000.48 1345.27 Q1000.48 1344.28 1000.22 1343.6 Q999.964 1342.92 999.519 1342.62 Q999.097 1342.29 998.699 1342.17 Q998.324 1342.06 997.902 1342.06 Q997.2 1342.06 996.403 1342.34 Q995.631 1342.62 994.694 1343.27 Q993.78 1343.91 992.913 1345.22 Q992.047 1346.53 991.461 1348.33 Q991.344 1348.87 990.829 1348.87 Q990.267 1348.85 990.267 1348.38 Q990.267 1347.98 990.571 1347.16 Q990.899 1346.32 991.555 1345.27 Q992.234 1344.21 993.101 1343.27 Q993.991 1342.31 995.279 1341.66 Q996.591 1341 997.996 1341 Q998.629 1341 999.238 1341.14 Q999.87 1341.26 1000.62 1341.61 Q1001.39 1341.96 1002.07 1342.74 Q1002.75 1343.51 1003.17 1344.63 Q1003.45 1344.09 1003.83 1343.58 Q1004.23 1343.06 1004.84 1342.43 Q1005.47 1341.78 1006.33 1341.4 Q1007.22 1341 1008.21 1341 Q1009.17 1341 1010.11 1341.26 Q1011.04 1341.49 1011.84 1342.27 Q1012.66 1343.02 1012.66 1344.16 Z" fill="#000000" fill-rule="nonzero" fill-opacity="1" /><path clip-path="url(#clip200)" d="M1017.27 1373.72 Q1017.27 1373.49 1017.88 1372.9 Q1025.61 1365.03 1025.61 1350.21 Q1025.61 1335.33 1018.18 1327.82 Q1017.27 1326.95 1017.27 1326.69 Q1017.27 1326.22 1017.74 1326.22 Q1018.07 1326.22 1019.22 1327.18 Q1020.39 1328.14 1022.14 1330.35 Q1023.92 1332.55 1025.23 1335.24 Q1028.4 1341.78 1028.4 1350.21 Q1028.4 1358.31 1025.38 1364.85 Q1024.09 1367.59 1022.28 1369.88 Q1020.48 1372.18 1019.29 1373.19 Q1018.09 1374.19 1017.74 1374.19 Q1017.27 1374.19 1017.27 1373.72 Z" fill="#000000" fill-rule="nonzero" fill-opacity="1" /><path clip-path="url(#clip200)" d="M1048.99 1354.92 Q1049.04 1354.33 1049.95 1354.33 L1079.35 1354.33 Q1080.73 1354.33 1080.75 1354.87 Q1080.75 1355.45 1079.44 1355.43 L1050.28 1355.43 Q1048.99 1355.45 1048.99 1354.92 M1048.99 1345.55 Q1048.99 1344.96 1050 1344.98 L1079.3 1344.98 Q1080.73 1344.98 1080.75 1345.55 Q1080.75 1346.09 1079.53 1346.09 L1049.95 1346.09 Q1048.99 1346.09 1048.99 1345.55 Z" fill="#000000" fill-rule="nonzero" fill-opacity="1" /><path clip-path="url(#clip200)" d="M1109.48 1330.88 L1109.48 1329.4 L1124.22 1306.9 Q1124.59 1306.31 1125.18 1306.33 Q1125.71 1306.33 1125.83 1306.54 Q1125.95 1306.76 1125.95 1307.58 L1125.95 1329.4 L1130.75 1329.4 L1130.75 1330.88 L1125.95 1330.88 L1125.95 1335.05 Q1125.95 1336.43 1126.51 1336.88 Q1127.1 1337.32 1129.58 1337.32 L1130.59 1337.32 L1130.59 1338.8 Q1128.62 1338.66 1124.08 1338.66 Q1119.55 1338.66 1117.59 1338.8 L1117.59 1337.32 L1118.59 1337.32 Q1121.08 1337.32 1121.66 1336.9 Q1122.25 1336.45 1122.25 1335.05 L1122.25 1330.88 L1109.48 1330.88 M1110.84 1329.4 L1122.53 1329.4 L1122.53 1311.51 L1110.84 1329.4 Z" fill="#000000" fill-rule="nonzero" fill-opacity="1" /><path clip-path="url(#clip200)" d="M1109.48 1351.6 L1135.65 1351.6 L1135.65 1349.04 L1109.48 1349.04  Z" fill="#000000" fill-rule="evenodd" fill-opacity="1"/>
<path clip-path="url(#clip200)" d="M1110.48 1385.75 Q1110.48 1384.32 1111.26 1383.78 Q1112.03 1383.22 1112.85 1383.22 Q1113.95 1383.22 1114.58 1383.92 Q1115.24 1384.6 1115.24 1385.56 Q1115.24 1386.52 1114.58 1387.22 Q1113.95 1387.9 1112.85 1387.9 Q1112.31 1387.9 1112.03 1387.81 Q1112.66 1390.01 1114.58 1391.6 Q1116.53 1393.2 1119.08 1393.2 Q1122.29 1393.2 1124.21 1390.08 Q1125.36 1388.07 1125.36 1383.5 Q1125.36 1379.47 1124.49 1377.46 Q1123.15 1374.39 1120.41 1374.39 Q1116.53 1374.39 1114.23 1377.74 Q1113.95 1378.16 1113.62 1378.18 Q1113.15 1378.18 1113.04 1377.93 Q1112.94 1377.64 1112.94 1376.92 L1112.94 1362.72 Q1112.94 1361.58 1113.41 1361.58 Q1113.6 1361.58 1114 1361.72 Q1117.02 1363.05 1120.37 1363.08 Q1123.81 1363.08 1126.9 1361.67 Q1127.14 1361.53 1127.28 1361.53 Q1127.75 1361.53 1127.77 1362.07 Q1127.77 1362.26 1127.37 1362.82 Q1127 1363.36 1126.18 1364.08 Q1125.36 1364.79 1124.3 1365.46 Q1123.25 1366.14 1121.7 1366.61 Q1120.18 1367.06 1118.49 1367.06 Q1116.48 1367.06 1114.42 1366.42 L1114.42 1375.77 Q1116.9 1373.33 1120.51 1373.33 Q1124.35 1373.33 1127 1376.43 Q1129.64 1379.52 1129.64 1383.83 Q1129.64 1388.35 1126.5 1391.44 Q1123.39 1394.53 1119.17 1394.53 Q1115.33 1394.53 1112.9 1391.79 Q1110.48 1389.05 1110.48 1385.75 Z" fill="#000000" fill-rule="nonzero" fill-opacity="1" /><path clip-path="url(#clip200)" d="M1140.77 1345.41 Q1140.77 1338.4 1143.38 1332.75 Q1144.5 1330.39 1146.06 1328.4 Q1147.61 1326.42 1148.65 1325.55 Q1149.68 1324.68 1149.96 1324.68 Q1150.37 1324.68 1150.39 1325.08 Q1150.39 1325.28 1149.84 1325.79 Q1143.16 1332.59 1143.18 1345.41 Q1143.18 1358.27 1149.68 1364.81 Q1150.39 1365.52 1150.39 1365.74 Q1150.39 1366.15 1149.96 1366.15 Q1149.68 1366.15 1148.69 1365.32 Q1147.7 1364.49 1146.16 1362.58 Q1144.62 1360.68 1143.5 1358.35 Q1140.77 1352.7 1140.77 1345.41 Z" fill="#000000" fill-rule="nonzero" fill-opacity="1" /><path clip-path="url(#clip200)" d="M1161.81 1334.82 L1161.81 1333.32 Q1167.57 1333.32 1170.55 1330.25 Q1171.37 1330.25 1171.51 1330.44 Q1171.65 1330.63 1171.65 1331.49 L1171.65 1358.41 Q1171.65 1359.83 1172.35 1360.28 Q1173.05 1360.72 1176.12 1360.72 L1177.64 1360.72 L1177.64 1362.2 Q1175.96 1362.06 1169.87 1362.06 Q1163.78 1362.06 1162.11 1362.2 L1162.11 1360.72 L1163.64 1360.72 Q1166.66 1360.72 1167.38 1360.3 Q1168.11 1359.86 1168.11 1358.41 L1168.11 1333.55 Q1165.6 1334.82 1161.81 1334.82 Z" fill="#000000" fill-rule="nonzero" fill-opacity="1" /><path clip-path="url(#clip200)" d="M1199.97 1350.79 Q1198.86 1350.79 1198.86 1350.21 Q1198.86 1349.62 1200.01 1349.62 Q1200.15 1349.62 1200.39 1349.65 Q1200.64 1349.67 1200.69 1349.67 L1214.21 1349.67 L1214.21 1336.11 Q1214.21 1336.06 1214.18 1335.85 Q1214.16 1335.62 1214.16 1335.48 Q1214.16 1334.33 1214.72 1334.33 Q1215.31 1334.33 1215.31 1335.48 L1215.31 1349.67 L1228.85 1349.67 Q1228.89 1349.67 1229.13 1349.65 Q1229.36 1349.62 1229.5 1349.62 Q1230.6 1349.62 1230.6 1350.21 Q1230.63 1350.79 1229.45 1350.79 Q1229.31 1350.79 1229.1 1350.77 Q1228.89 1350.75 1228.85 1350.75 L1215.31 1350.75 L1215.31 1364.99 Q1215.31 1366.09 1214.72 1366.09 Q1214.16 1366.09 1214.16 1364.94 Q1214.16 1364.8 1214.18 1364.57 Q1214.21 1364.35 1214.21 1364.31 L1214.21 1350.75 L1200.69 1350.75 Q1200.64 1350.75 1200.36 1350.77 Q1200.11 1350.79 1199.97 1350.79 Z" fill="#000000" fill-rule="nonzero" fill-opacity="1" /><path clip-path="url(#clip200)" d="M1273.01 1344.16 Q1273.01 1345.48 1272.19 1346.23 Q1271.37 1346.95 1270.43 1346.95 Q1269.54 1346.95 1269.07 1346.44 Q1268.6 1345.92 1268.6 1345.27 Q1268.6 1344.38 1269.26 1343.6 Q1269.92 1342.83 1270.9 1342.67 Q1269.94 1342.06 1268.51 1342.06 Q1267.57 1342.06 1266.75 1342.55 Q1265.96 1343.04 1265.46 1343.67 Q1265 1344.31 1264.57 1345.22 Q1264.18 1346.11 1264.01 1346.65 Q1263.87 1347.16 1263.76 1347.72 L1262.12 1354.28 Q1261.32 1357.4 1261.32 1358.5 Q1261.32 1359.86 1261.98 1360.77 Q1262.63 1361.66 1263.94 1361.66 Q1264.46 1361.66 1265.04 1361.52 Q1265.63 1361.36 1266.38 1360.94 Q1267.15 1360.49 1267.83 1359.83 Q1268.53 1359.16 1269.21 1358.01 Q1269.89 1356.86 1270.34 1355.38 Q1270.48 1354.87 1270.95 1354.87 Q1271.53 1354.87 1271.53 1355.34 Q1271.53 1355.74 1271.2 1356.58 Q1270.9 1357.4 1270.22 1358.48 Q1269.56 1359.53 1268.7 1360.49 Q1267.83 1361.43 1266.54 1362.08 Q1265.25 1362.74 1263.85 1362.74 Q1261.83 1362.74 1260.5 1361.66 Q1259.16 1360.58 1258.67 1359.08 Q1258.56 1359.3 1258.39 1359.58 Q1258.23 1359.86 1257.74 1360.49 Q1257.27 1361.1 1256.73 1361.57 Q1256.19 1362.01 1255.35 1362.36 Q1254.53 1362.74 1253.64 1362.74 Q1252.51 1362.74 1251.51 1362.41 Q1250.52 1362.08 1249.82 1361.33 Q1249.12 1360.58 1249.12 1359.55 Q1249.12 1358.41 1249.89 1357.61 Q1250.69 1356.79 1251.76 1356.79 Q1252.44 1356.79 1252.98 1357.19 Q1253.54 1357.59 1253.54 1358.45 Q1253.54 1359.41 1252.89 1360.14 Q1252.23 1360.86 1251.29 1361.05 Q1252.25 1361.66 1253.68 1361.66 Q1255.23 1361.66 1256.45 1360.3 Q1257.67 1358.94 1258.25 1356.67 Q1259.7 1351.21 1260.27 1348.78 Q1260.83 1346.32 1260.83 1345.27 Q1260.83 1344.28 1260.57 1343.6 Q1260.31 1342.92 1259.87 1342.62 Q1259.45 1342.29 1259.05 1342.17 Q1258.67 1342.06 1258.25 1342.06 Q1257.55 1342.06 1256.75 1342.34 Q1255.98 1342.62 1255.04 1343.27 Q1254.13 1343.91 1253.26 1345.22 Q1252.4 1346.53 1251.81 1348.33 Q1251.69 1348.87 1251.18 1348.87 Q1250.62 1348.85 1250.62 1348.38 Q1250.62 1347.98 1250.92 1347.16 Q1251.25 1346.32 1251.9 1345.27 Q1252.58 1344.21 1253.45 1343.27 Q1254.34 1342.31 1255.63 1341.66 Q1256.94 1341 1258.34 1341 Q1258.98 1341 1259.59 1341.14 Q1260.22 1341.26 1260.97 1341.61 Q1261.74 1341.96 1262.42 1342.74 Q1263.1 1343.51 1263.52 1344.63 Q1263.8 1344.09 1264.18 1343.58 Q1264.57 1343.06 1265.18 1342.43 Q1265.82 1341.78 1266.68 1341.4 Q1267.57 1341 1268.56 1341 Q1269.52 1341 1270.45 1341.26 Q1271.39 1341.49 1272.19 1342.27 Q1273.01 1343.02 1273.01 1344.16 Z" fill="#000000" fill-rule="nonzero" fill-opacity="1" /><path clip-path="url(#clip200)" d="M1321.25 1349.53 Q1321.53 1349.81 1321.53 1350.21 Q1321.53 1350.61 1321.25 1350.89 Q1320.97 1351.17 1320.57 1351.17 L1290.54 1351.17 Q1290.14 1351.17 1289.86 1350.89 Q1289.58 1350.61 1289.58 1350.21 Q1289.58 1349.81 1289.86 1349.53 Q1290.14 1349.25 1290.54 1349.25 L1320.57 1349.25 Q1320.97 1349.25 1321.25 1349.53 Z" fill="#000000" fill-rule="nonzero" fill-opacity="1" /><path clip-path="url(#clip200)" d="M1363.72 1344.16 Q1363.72 1345.48 1362.9 1346.23 Q1362.08 1346.95 1361.15 1346.95 Q1360.26 1346.95 1359.79 1346.44 Q1359.32 1345.92 1359.32 1345.27 Q1359.32 1344.38 1359.98 1343.6 Q1360.63 1342.83 1361.61 1342.67 Q1360.65 1342.06 1359.23 1342.06 Q1358.29 1342.06 1357.47 1342.55 Q1356.67 1343.04 1356.18 1343.67 Q1355.71 1344.31 1355.29 1345.22 Q1354.89 1346.11 1354.73 1346.65 Q1354.59 1347.16 1354.47 1347.72 L1352.83 1354.28 Q1352.04 1357.4 1352.04 1358.5 Q1352.04 1359.86 1352.69 1360.77 Q1353.35 1361.66 1354.66 1361.66 Q1355.17 1361.66 1355.76 1361.52 Q1356.34 1361.36 1357.09 1360.94 Q1357.87 1360.49 1358.55 1359.83 Q1359.25 1359.16 1359.93 1358.01 Q1360.61 1356.86 1361.05 1355.38 Q1361.19 1354.87 1361.66 1354.87 Q1362.25 1354.87 1362.25 1355.34 Q1362.25 1355.74 1361.92 1356.58 Q1361.61 1357.4 1360.94 1358.48 Q1360.28 1359.53 1359.41 1360.49 Q1358.55 1361.43 1357.26 1362.08 Q1355.97 1362.74 1354.56 1362.74 Q1352.55 1362.74 1351.22 1361.66 Q1349.88 1360.58 1349.39 1359.08 Q1349.27 1359.3 1349.11 1359.58 Q1348.94 1359.86 1348.45 1360.49 Q1347.98 1361.1 1347.44 1361.57 Q1346.91 1362.01 1346.06 1362.36 Q1345.24 1362.74 1344.35 1362.74 Q1343.23 1362.74 1342.22 1362.41 Q1341.24 1362.08 1340.53 1361.33 Q1339.83 1360.58 1339.83 1359.55 Q1339.83 1358.41 1340.6 1357.61 Q1341.4 1356.79 1342.48 1356.79 Q1343.16 1356.79 1343.7 1357.19 Q1344.26 1357.59 1344.26 1358.45 Q1344.26 1359.41 1343.6 1360.14 Q1342.95 1360.86 1342.01 1361.05 Q1342.97 1361.66 1344.4 1361.66 Q1345.95 1361.66 1347.16 1360.3 Q1348.38 1358.94 1348.97 1356.67 Q1350.42 1351.21 1350.98 1348.78 Q1351.54 1346.32 1351.54 1345.27 Q1351.54 1344.28 1351.29 1343.6 Q1351.03 1342.92 1350.58 1342.62 Q1350.16 1342.29 1349.76 1342.17 Q1349.39 1342.06 1348.97 1342.06 Q1348.26 1342.06 1347.47 1342.34 Q1346.69 1342.62 1345.76 1343.27 Q1344.84 1343.91 1343.98 1345.22 Q1343.11 1346.53 1342.53 1348.33 Q1342.41 1348.87 1341.89 1348.87 Q1341.33 1348.85 1341.33 1348.38 Q1341.33 1347.98 1341.64 1347.16 Q1341.96 1346.32 1342.62 1345.27 Q1343.3 1344.21 1344.17 1343.27 Q1345.06 1342.31 1346.34 1341.66 Q1347.66 1341 1349.06 1341 Q1349.69 1341 1350.3 1341.14 Q1350.93 1341.26 1351.68 1341.61 Q1352.46 1341.96 1353.14 1342.74 Q1353.82 1343.51 1354.24 1344.63 Q1354.52 1344.09 1354.89 1343.58 Q1355.29 1343.06 1355.9 1342.43 Q1356.53 1341.78 1357.4 1341.4 Q1358.29 1341 1359.27 1341 Q1360.23 1341 1361.17 1341.26 Q1362.11 1341.49 1362.9 1342.27 Q1363.72 1343.02 1363.72 1344.16 Z" fill="#000000" fill-rule="nonzero" fill-opacity="1" /><path clip-path="url(#clip200)" d="M1368.61 1342.6 Q1368.61 1341.6 1369.18 1341.13 Q1369.76 1340.65 1370.49 1340.65 Q1371.26 1340.65 1371.81 1341.16 Q1372.36 1341.65 1372.36 1342.52 Q1372.36 1343.45 1371.71 1343.98 Q1371.07 1344.5 1370.15 1344.37 Q1370.95 1345.72 1372.43 1346.32 Q1373.92 1346.93 1375.3 1346.93 Q1376.74 1346.93 1377.9 1345.68 Q1379.09 1344.44 1379.09 1341.39 Q1379.09 1338.8 1378.07 1337.31 Q1377.07 1335.81 1375.08 1335.81 L1373.61 1335.81 Q1373.1 1335.81 1372.95 1335.77 Q1372.81 1335.72 1372.81 1335.44 Q1372.81 1335.11 1373.31 1335.04 Q1373.82 1335.04 1374.63 1334.95 Q1376.58 1334.88 1377.61 1333.19 Q1378.54 1331.62 1378.54 1329.37 Q1378.54 1327.32 1377.56 1326.47 Q1376.59 1325.6 1375.33 1325.6 Q1374.15 1325.6 1372.85 1326.09 Q1371.56 1326.58 1370.85 1327.68 Q1372.94 1327.68 1372.94 1329.37 Q1372.94 1330.11 1372.46 1330.6 Q1372 1331.08 1371.23 1331.08 Q1370.49 1331.08 1370 1330.62 Q1369.51 1330.14 1369.51 1329.34 Q1369.51 1327.42 1371.22 1326.09 Q1372.94 1324.76 1375.46 1324.76 Q1377.95 1324.76 1379.79 1326.08 Q1381.64 1327.39 1381.64 1329.4 Q1381.64 1331.39 1380.33 1333.01 Q1379.02 1334.63 1376.94 1335.31 Q1379.49 1335.81 1381.02 1337.55 Q1382.54 1339.27 1382.54 1341.39 Q1382.54 1344.01 1380.48 1345.95 Q1378.41 1347.87 1375.4 1347.87 Q1372.61 1347.87 1370.61 1346.36 Q1368.61 1344.85 1368.61 1342.6 Z" fill="#000000" fill-rule="nonzero" fill-opacity="1" /><path clip-path="url(#clip200)" d="M1392.64 1365.74 Q1392.64 1365.54 1393.17 1365.03 Q1399.85 1358.23 1399.85 1345.41 Q1399.85 1332.55 1393.43 1326.05 Q1392.64 1325.3 1392.64 1325.08 Q1392.64 1324.68 1393.05 1324.68 Q1393.33 1324.68 1394.32 1325.51 Q1395.33 1326.34 1396.85 1328.24 Q1398.39 1330.14 1399.53 1332.47 Q1402.26 1338.12 1402.26 1345.41 Q1402.26 1352.42 1399.65 1358.07 Q1398.53 1360.44 1396.97 1362.42 Q1395.41 1364.4 1394.38 1365.28 Q1393.35 1366.15 1393.05 1366.15 Q1392.64 1366.15 1392.64 1365.74 Z" fill="#000000" fill-rule="nonzero" fill-opacity="1" /></svg>
