<?xml version="1.0" encoding="utf-8"?>
<svg xmlns="http://www.w3.org/2000/svg" xmlns:xlink="http://www.w3.org/1999/xlink" width="600" height="400" viewBox="0 0 2400 1600">
<defs>
  <clipPath id="clip480">
    <rect x="0" y="0" width="2400" height="1600"/>
  </clipPath>
</defs>
<path clip-path="url(#clip480)" d="M0 1600 L2400 1600 L2400 0 L0 0  Z" fill="#ffffff" fill-rule="evenodd" fill-opacity="1"/>
<defs>
  <clipPath id="clip481">
    <rect x="480" y="0" width="1681" height="1600"/>
  </clipPath>
</defs>
<path clip-path="url(#clip480)" d="M156.02 1486.45 L2352.76 1486.45 L2352.76 47.2441 L156.02 47.2441  Z" fill="#ffffff" fill-rule="evenodd" fill-opacity="1"/>
<defs>
  <clipPath id="clip482">
    <rect x="156" y="47" width="2198" height="1440"/>
  </clipPath>
</defs>
<polyline clip-path="url(#clip482)" style="stroke:#000000; stroke-linecap:round; stroke-linejoin:round; stroke-width:2; stroke-opacity:0.1; fill:none" points="276.844,1486.45 276.844,47.2441 "/>
<polyline clip-path="url(#clip482)" style="stroke:#000000; stroke-linecap:round; stroke-linejoin:round; stroke-width:2; stroke-opacity:0.1; fill:none" points="765.616,1486.45 765.616,47.2441 "/>
<polyline clip-path="url(#clip482)" style="stroke:#000000; stroke-linecap:round; stroke-linejoin:round; stroke-width:2; stroke-opacity:0.1; fill:none" points="1254.39,1486.45 1254.39,47.2441 "/>
<polyline clip-path="url(#clip482)" style="stroke:#000000; stroke-linecap:round; stroke-linejoin:round; stroke-width:2; stroke-opacity:0.1; fill:none" points="1743.16,1486.45 1743.16,47.2441 "/>
<polyline clip-path="url(#clip482)" style="stroke:#000000; stroke-linecap:round; stroke-linejoin:round; stroke-width:2; stroke-opacity:0.1; fill:none" points="2231.93,1486.45 2231.93,47.2441 "/>
<polyline clip-path="url(#clip480)" style="stroke:#000000; stroke-linecap:round; stroke-linejoin:round; stroke-width:4; stroke-opacity:1; fill:none" points="156.02,1486.45 2352.76,1486.45 "/>
<polyline clip-path="url(#clip480)" style="stroke:#000000; stroke-linecap:round; stroke-linejoin:round; stroke-width:4; stroke-opacity:1; fill:none" points="276.844,1486.45 276.844,1467.55 "/>
<polyline clip-path="url(#clip480)" style="stroke:#000000; stroke-linecap:round; stroke-linejoin:round; stroke-width:4; stroke-opacity:1; fill:none" points="765.616,1486.45 765.616,1467.55 "/>
<polyline clip-path="url(#clip480)" style="stroke:#000000; stroke-linecap:round; stroke-linejoin:round; stroke-width:4; stroke-opacity:1; fill:none" points="1254.39,1486.45 1254.39,1467.55 "/>
<polyline clip-path="url(#clip480)" style="stroke:#000000; stroke-linecap:round; stroke-linejoin:round; stroke-width:4; stroke-opacity:1; fill:none" points="1743.16,1486.45 1743.16,1467.55 "/>
<polyline clip-path="url(#clip480)" style="stroke:#000000; stroke-linecap:round; stroke-linejoin:round; stroke-width:4; stroke-opacity:1; fill:none" points="2231.93,1486.45 2231.93,1467.55 "/>
<path clip-path="url(#clip480)" d="M239.147 1517.37 Q235.536 1517.37 233.708 1520.93 Q231.902 1524.47 231.902 1531.6 Q231.902 1538.71 233.708 1542.27 Q235.536 1545.82 239.147 1545.82 Q242.782 1545.82 244.587 1542.27 Q246.416 1538.71 246.416 1531.6 Q246.416 1524.47 244.587 1520.93 Q242.782 1517.37 239.147 1517.37 M239.147 1513.66 Q244.958 1513.66 248.013 1518.27 Q251.092 1522.85 251.092 1531.6 Q251.092 1540.33 248.013 1544.94 Q244.958 1549.52 239.147 1549.52 Q233.337 1549.52 230.259 1544.94 Q227.203 1540.33 227.203 1531.6 Q227.203 1522.85 230.259 1518.27 Q233.337 1513.66 239.147 1513.66 Z" fill="#000000" fill-rule="nonzero" fill-opacity="1" /><path clip-path="url(#clip480)" d="M259.309 1542.97 L264.194 1542.97 L264.194 1548.85 L259.309 1548.85 L259.309 1542.97 Z" fill="#000000" fill-rule="nonzero" fill-opacity="1" /><path clip-path="url(#clip480)" d="M284.379 1517.37 Q280.768 1517.37 278.939 1520.93 Q277.133 1524.47 277.133 1531.6 Q277.133 1538.71 278.939 1542.27 Q280.768 1545.82 284.379 1545.82 Q288.013 1545.82 289.818 1542.27 Q291.647 1538.71 291.647 1531.6 Q291.647 1524.47 289.818 1520.93 Q288.013 1517.37 284.379 1517.37 M284.379 1513.66 Q290.189 1513.66 293.244 1518.27 Q296.323 1522.85 296.323 1531.6 Q296.323 1540.33 293.244 1544.94 Q290.189 1549.52 284.379 1549.52 Q278.568 1549.52 275.49 1544.94 Q272.434 1540.33 272.434 1531.6 Q272.434 1522.85 275.49 1518.27 Q278.568 1513.66 284.379 1513.66 Z" fill="#000000" fill-rule="nonzero" fill-opacity="1" /><path clip-path="url(#clip480)" d="M314.541 1517.37 Q310.929 1517.37 309.101 1520.93 Q307.295 1524.47 307.295 1531.6 Q307.295 1538.71 309.101 1542.27 Q310.929 1545.82 314.541 1545.82 Q318.175 1545.82 319.98 1542.27 Q321.809 1538.71 321.809 1531.6 Q321.809 1524.47 319.98 1520.93 Q318.175 1517.37 314.541 1517.37 M314.541 1513.66 Q320.351 1513.66 323.406 1518.27 Q326.485 1522.85 326.485 1531.6 Q326.485 1540.33 323.406 1544.94 Q320.351 1549.52 314.541 1549.52 Q308.73 1549.52 305.652 1544.94 Q302.596 1540.33 302.596 1531.6 Q302.596 1522.85 305.652 1518.27 Q308.73 1513.66 314.541 1513.66 Z" fill="#000000" fill-rule="nonzero" fill-opacity="1" /><path clip-path="url(#clip480)" d="M728.417 1517.37 Q724.806 1517.37 722.977 1520.93 Q721.172 1524.47 721.172 1531.6 Q721.172 1538.71 722.977 1542.27 Q724.806 1545.82 728.417 1545.82 Q732.051 1545.82 733.857 1542.27 Q735.685 1538.71 735.685 1531.6 Q735.685 1524.47 733.857 1520.93 Q732.051 1517.37 728.417 1517.37 M728.417 1513.66 Q734.227 1513.66 737.283 1518.27 Q740.361 1522.85 740.361 1531.6 Q740.361 1540.33 737.283 1544.94 Q734.227 1549.52 728.417 1549.52 Q722.607 1549.52 719.528 1544.94 Q716.473 1540.33 716.473 1531.6 Q716.473 1522.85 719.528 1518.27 Q722.607 1513.66 728.417 1513.66 Z" fill="#000000" fill-rule="nonzero" fill-opacity="1" /><path clip-path="url(#clip480)" d="M748.579 1542.97 L753.463 1542.97 L753.463 1548.85 L748.579 1548.85 L748.579 1542.97 Z" fill="#000000" fill-rule="nonzero" fill-opacity="1" /><path clip-path="url(#clip480)" d="M767.676 1544.91 L783.995 1544.91 L783.995 1548.85 L762.051 1548.85 L762.051 1544.91 Q764.713 1542.16 769.296 1537.53 Q773.903 1532.88 775.083 1531.53 Q777.329 1529.01 778.208 1527.27 Q779.111 1525.51 779.111 1523.82 Q779.111 1521.07 777.167 1519.33 Q775.245 1517.6 772.144 1517.6 Q769.945 1517.6 767.491 1518.36 Q765.06 1519.13 762.283 1520.68 L762.283 1515.95 Q765.107 1514.82 767.56 1514.24 Q770.014 1513.66 772.051 1513.66 Q777.421 1513.66 780.616 1516.35 Q783.81 1519.03 783.81 1523.52 Q783.81 1525.65 783 1527.57 Q782.213 1529.47 780.106 1532.07 Q779.528 1532.74 776.426 1535.95 Q773.324 1539.15 767.676 1544.91 Z" fill="#000000" fill-rule="nonzero" fill-opacity="1" /><path clip-path="url(#clip480)" d="M793.856 1514.29 L812.213 1514.29 L812.213 1518.22 L798.139 1518.22 L798.139 1526.7 Q799.157 1526.35 800.176 1526.19 Q801.194 1526 802.213 1526 Q808 1526 811.379 1529.17 Q814.759 1532.34 814.759 1537.76 Q814.759 1543.34 811.287 1546.44 Q807.815 1549.52 801.495 1549.52 Q799.319 1549.52 797.051 1549.15 Q794.805 1548.78 792.398 1548.04 L792.398 1543.34 Q794.481 1544.47 796.704 1545.03 Q798.926 1545.58 801.403 1545.58 Q805.407 1545.58 807.745 1543.48 Q810.083 1541.37 810.083 1537.76 Q810.083 1534.15 807.745 1532.04 Q805.407 1529.94 801.403 1529.94 Q799.528 1529.94 797.653 1530.35 Q795.801 1530.77 793.856 1531.65 L793.856 1514.29 Z" fill="#000000" fill-rule="nonzero" fill-opacity="1" /><path clip-path="url(#clip480)" d="M1216.69 1517.37 Q1213.08 1517.37 1211.25 1520.93 Q1209.45 1524.47 1209.45 1531.6 Q1209.45 1538.71 1211.25 1542.27 Q1213.08 1545.82 1216.69 1545.82 Q1220.33 1545.82 1222.13 1542.27 Q1223.96 1538.71 1223.96 1531.6 Q1223.96 1524.47 1222.13 1520.93 Q1220.33 1517.37 1216.69 1517.37 M1216.69 1513.66 Q1222.5 1513.66 1225.56 1518.27 Q1228.64 1522.85 1228.64 1531.6 Q1228.64 1540.33 1225.56 1544.94 Q1222.5 1549.52 1216.69 1549.52 Q1210.88 1549.52 1207.8 1544.94 Q1204.75 1540.33 1204.75 1531.6 Q1204.75 1522.85 1207.8 1518.27 Q1210.88 1513.66 1216.69 1513.66 Z" fill="#000000" fill-rule="nonzero" fill-opacity="1" /><path clip-path="url(#clip480)" d="M1236.85 1542.97 L1241.74 1542.97 L1241.74 1548.85 L1236.85 1548.85 L1236.85 1542.97 Z" fill="#000000" fill-rule="nonzero" fill-opacity="1" /><path clip-path="url(#clip480)" d="M1251.97 1514.29 L1270.33 1514.29 L1270.33 1518.22 L1256.25 1518.22 L1256.25 1526.7 Q1257.27 1526.35 1258.29 1526.19 Q1259.31 1526 1260.33 1526 Q1266.11 1526 1269.49 1529.17 Q1272.87 1532.34 1272.87 1537.76 Q1272.87 1543.34 1269.4 1546.44 Q1265.93 1549.52 1259.61 1549.52 Q1257.43 1549.52 1255.16 1549.15 Q1252.92 1548.78 1250.51 1548.04 L1250.51 1543.34 Q1252.59 1544.47 1254.82 1545.03 Q1257.04 1545.58 1259.52 1545.58 Q1263.52 1545.58 1265.86 1543.48 Q1268.2 1541.37 1268.2 1537.76 Q1268.2 1534.15 1265.86 1532.04 Q1263.52 1529.94 1259.52 1529.94 Q1257.64 1529.94 1255.77 1530.35 Q1253.91 1530.77 1251.97 1531.65 L1251.97 1514.29 Z" fill="#000000" fill-rule="nonzero" fill-opacity="1" /><path clip-path="url(#clip480)" d="M1292.08 1517.37 Q1288.47 1517.37 1286.64 1520.93 Q1284.84 1524.47 1284.84 1531.6 Q1284.84 1538.71 1286.64 1542.27 Q1288.47 1545.82 1292.08 1545.82 Q1295.72 1545.82 1297.52 1542.27 Q1299.35 1538.71 1299.35 1531.6 Q1299.35 1524.47 1297.52 1520.93 Q1295.72 1517.37 1292.08 1517.37 M1292.08 1513.66 Q1297.89 1513.66 1300.95 1518.27 Q1304.03 1522.85 1304.03 1531.6 Q1304.03 1540.33 1300.95 1544.94 Q1297.89 1549.52 1292.08 1549.52 Q1286.27 1549.52 1283.2 1544.94 Q1280.14 1540.33 1280.14 1531.6 Q1280.14 1522.85 1283.2 1518.27 Q1286.27 1513.66 1292.08 1513.66 Z" fill="#000000" fill-rule="nonzero" fill-opacity="1" /><path clip-path="url(#clip480)" d="M1705.96 1517.37 Q1702.35 1517.37 1700.52 1520.93 Q1698.72 1524.47 1698.72 1531.6 Q1698.72 1538.71 1700.52 1542.27 Q1702.35 1545.82 1705.96 1545.82 Q1709.59 1545.82 1711.4 1542.27 Q1713.23 1538.71 1713.23 1531.6 Q1713.23 1524.47 1711.4 1520.93 Q1709.59 1517.37 1705.96 1517.37 M1705.96 1513.66 Q1711.77 1513.66 1714.83 1518.27 Q1717.91 1522.85 1717.91 1531.6 Q1717.91 1540.33 1714.83 1544.94 Q1711.77 1549.52 1705.96 1549.52 Q1700.15 1549.52 1697.07 1544.94 Q1694.02 1540.33 1694.02 1531.6 Q1694.02 1522.85 1697.07 1518.27 Q1700.15 1513.66 1705.96 1513.66 Z" fill="#000000" fill-rule="nonzero" fill-opacity="1" /><path clip-path="url(#clip480)" d="M1726.12 1542.97 L1731.01 1542.97 L1731.01 1548.85 L1726.12 1548.85 L1726.12 1542.97 Z" fill="#000000" fill-rule="nonzero" fill-opacity="1" /><path clip-path="url(#clip480)" d="M1740.01 1514.29 L1762.23 1514.29 L1762.23 1516.28 L1749.69 1548.85 L1744.8 1548.85 L1756.61 1518.22 L1740.01 1518.22 L1740.01 1514.29 Z" fill="#000000" fill-rule="nonzero" fill-opacity="1" /><path clip-path="url(#clip480)" d="M1771.4 1514.29 L1789.76 1514.29 L1789.76 1518.22 L1775.68 1518.22 L1775.68 1526.7 Q1776.7 1526.35 1777.72 1526.19 Q1778.74 1526 1779.76 1526 Q1785.54 1526 1788.92 1529.17 Q1792.3 1532.34 1792.3 1537.76 Q1792.3 1543.34 1788.83 1546.44 Q1785.36 1549.52 1779.04 1549.52 Q1776.86 1549.52 1774.59 1549.15 Q1772.35 1548.78 1769.94 1548.04 L1769.94 1543.34 Q1772.03 1544.47 1774.25 1545.03 Q1776.47 1545.58 1778.95 1545.58 Q1782.95 1545.58 1785.29 1543.48 Q1787.63 1541.37 1787.63 1537.76 Q1787.63 1534.15 1785.29 1532.04 Q1782.95 1529.94 1778.95 1529.94 Q1777.07 1529.94 1775.2 1530.35 Q1773.34 1530.77 1771.4 1531.65 L1771.4 1514.29 Z" fill="#000000" fill-rule="nonzero" fill-opacity="1" /><path clip-path="url(#clip480)" d="M2184 1544.91 L2191.64 1544.91 L2191.64 1518.55 L2183.33 1520.21 L2183.33 1515.95 L2191.6 1514.29 L2196.27 1514.29 L2196.27 1544.91 L2203.91 1544.91 L2203.91 1548.85 L2184 1548.85 L2184 1544.91 Z" fill="#000000" fill-rule="nonzero" fill-opacity="1" /><path clip-path="url(#clip480)" d="M2213.36 1542.97 L2218.24 1542.97 L2218.24 1548.85 L2213.36 1548.85 L2213.36 1542.97 Z" fill="#000000" fill-rule="nonzero" fill-opacity="1" /><path clip-path="url(#clip480)" d="M2238.42 1517.37 Q2234.81 1517.37 2232.98 1520.93 Q2231.18 1524.47 2231.18 1531.6 Q2231.18 1538.71 2232.98 1542.27 Q2234.81 1545.82 2238.42 1545.82 Q2242.06 1545.82 2243.86 1542.27 Q2245.69 1538.71 2245.69 1531.6 Q2245.69 1524.47 2243.86 1520.93 Q2242.06 1517.37 2238.42 1517.37 M2238.42 1513.66 Q2244.23 1513.66 2247.29 1518.27 Q2250.37 1522.85 2250.37 1531.6 Q2250.37 1540.33 2247.29 1544.94 Q2244.23 1549.52 2238.42 1549.52 Q2232.61 1549.52 2229.54 1544.94 Q2226.48 1540.33 2226.48 1531.6 Q2226.48 1522.85 2229.54 1518.27 Q2232.61 1513.66 2238.42 1513.66 Z" fill="#000000" fill-rule="nonzero" fill-opacity="1" /><path clip-path="url(#clip480)" d="M2268.59 1517.37 Q2264.98 1517.37 2263.15 1520.93 Q2261.34 1524.47 2261.34 1531.6 Q2261.34 1538.71 2263.15 1542.27 Q2264.98 1545.82 2268.59 1545.82 Q2272.22 1545.82 2274.03 1542.27 Q2275.85 1538.71 2275.85 1531.6 Q2275.85 1524.47 2274.03 1520.93 Q2272.22 1517.37 2268.59 1517.37 M2268.59 1513.66 Q2274.4 1513.66 2277.45 1518.27 Q2280.53 1522.85 2280.53 1531.6 Q2280.53 1540.33 2277.45 1544.94 Q2274.4 1549.52 2268.59 1549.52 Q2262.78 1549.52 2259.7 1544.94 Q2256.64 1540.33 2256.64 1531.6 Q2256.64 1522.85 2259.7 1518.27 Q2262.78 1513.66 2268.59 1513.66 Z" fill="#000000" fill-rule="nonzero" fill-opacity="1" /><polyline clip-path="url(#clip482)" style="stroke:#000000; stroke-linecap:round; stroke-linejoin:round; stroke-width:2; stroke-opacity:0.1; fill:none" points="156.02,1486.45 2352.76,1486.45 "/>
<polyline clip-path="url(#clip482)" style="stroke:#000000; stroke-linecap:round; stroke-linejoin:round; stroke-width:2; stroke-opacity:0.1; fill:none" points="156.02,1075.25 2352.76,1075.25 "/>
<polyline clip-path="url(#clip482)" style="stroke:#000000; stroke-linecap:round; stroke-linejoin:round; stroke-width:2; stroke-opacity:0.1; fill:none" points="156.02,664.046 2352.76,664.046 "/>
<polyline clip-path="url(#clip482)" style="stroke:#000000; stroke-linecap:round; stroke-linejoin:round; stroke-width:2; stroke-opacity:0.1; fill:none" points="156.02,252.845 2352.76,252.845 "/>
<polyline clip-path="url(#clip480)" style="stroke:#000000; stroke-linecap:round; stroke-linejoin:round; stroke-width:4; stroke-opacity:1; fill:none" points="156.02,1486.45 156.02,47.2441 "/>
<polyline clip-path="url(#clip480)" style="stroke:#000000; stroke-linecap:round; stroke-linejoin:round; stroke-width:4; stroke-opacity:1; fill:none" points="156.02,1486.45 174.917,1486.45 "/>
<polyline clip-path="url(#clip480)" style="stroke:#000000; stroke-linecap:round; stroke-linejoin:round; stroke-width:4; stroke-opacity:1; fill:none" points="156.02,1075.25 174.917,1075.25 "/>
<polyline clip-path="url(#clip480)" style="stroke:#000000; stroke-linecap:round; stroke-linejoin:round; stroke-width:4; stroke-opacity:1; fill:none" points="156.02,664.046 174.917,664.046 "/>
<polyline clip-path="url(#clip480)" style="stroke:#000000; stroke-linecap:round; stroke-linejoin:round; stroke-width:4; stroke-opacity:1; fill:none" points="156.02,252.845 174.917,252.845 "/>
<path clip-path="url(#clip480)" d="M62.9365 1472.25 Q59.3254 1472.25 57.4967 1475.81 Q55.6912 1479.35 55.6912 1486.48 Q55.6912 1493.59 57.4967 1497.15 Q59.3254 1500.7 62.9365 1500.7 Q66.5707 1500.7 68.3763 1497.15 Q70.205 1493.59 70.205 1486.48 Q70.205 1479.35 68.3763 1475.81 Q66.5707 1472.25 62.9365 1472.25 M62.9365 1468.54 Q68.7467 1468.54 71.8022 1473.15 Q74.8809 1477.73 74.8809 1486.48 Q74.8809 1495.21 71.8022 1499.82 Q68.7467 1504.4 62.9365 1504.4 Q57.1264 1504.4 54.0477 1499.82 Q50.9921 1495.21 50.9921 1486.48 Q50.9921 1477.73 54.0477 1473.15 Q57.1264 1468.54 62.9365 1468.54 Z" fill="#000000" fill-rule="nonzero" fill-opacity="1" /><path clip-path="url(#clip480)" d="M83.0984 1497.85 L87.9827 1497.85 L87.9827 1503.73 L83.0984 1503.73 L83.0984 1497.85 Z" fill="#000000" fill-rule="nonzero" fill-opacity="1" /><path clip-path="url(#clip480)" d="M108.168 1487.32 Q104.834 1487.32 102.913 1489.1 Q101.015 1490.88 101.015 1494.01 Q101.015 1497.13 102.913 1498.91 Q104.834 1500.7 108.168 1500.7 Q111.501 1500.7 113.422 1498.91 Q115.344 1497.11 115.344 1494.01 Q115.344 1490.88 113.422 1489.1 Q111.524 1487.32 108.168 1487.32 M103.492 1485.33 Q100.483 1484.58 98.7928 1482.52 Q97.1261 1480.46 97.1261 1477.5 Q97.1261 1473.36 100.066 1470.95 Q103.029 1468.54 108.168 1468.54 Q113.33 1468.54 116.27 1470.95 Q119.209 1473.36 119.209 1477.5 Q119.209 1480.46 117.52 1482.52 Q115.853 1484.58 112.867 1485.33 Q116.246 1486.11 118.121 1488.4 Q120.02 1490.7 120.02 1494.01 Q120.02 1499.03 116.941 1501.71 Q113.885 1504.4 108.168 1504.4 Q102.45 1504.4 99.3715 1501.71 Q96.316 1499.03 96.316 1494.01 Q96.316 1490.7 98.2141 1488.4 Q100.112 1486.11 103.492 1485.33 M101.779 1477.94 Q101.779 1480.63 103.446 1482.13 Q105.135 1483.64 108.168 1483.64 Q111.177 1483.64 112.867 1482.13 Q114.58 1480.63 114.58 1477.94 Q114.58 1475.26 112.867 1473.75 Q111.177 1472.25 108.168 1472.25 Q105.135 1472.25 103.446 1473.75 Q101.779 1475.26 101.779 1477.94 Z" fill="#000000" fill-rule="nonzero" fill-opacity="1" /><path clip-path="url(#clip480)" d="M63.0291 1061.05 Q59.418 1061.05 57.5893 1064.61 Q55.7838 1068.15 55.7838 1075.28 Q55.7838 1082.39 57.5893 1085.95 Q59.418 1089.49 63.0291 1089.49 Q66.6633 1089.49 68.4689 1085.95 Q70.2976 1082.39 70.2976 1075.28 Q70.2976 1068.15 68.4689 1064.61 Q66.6633 1061.05 63.0291 1061.05 M63.0291 1057.34 Q68.8393 1057.34 71.8948 1061.95 Q74.9735 1066.53 74.9735 1075.28 Q74.9735 1084.01 71.8948 1088.61 Q68.8393 1093.2 63.0291 1093.2 Q57.2189 1093.2 54.1403 1088.61 Q51.0847 1084.01 51.0847 1075.28 Q51.0847 1066.53 54.1403 1061.95 Q57.2189 1057.34 63.0291 1057.34 Z" fill="#000000" fill-rule="nonzero" fill-opacity="1" /><path clip-path="url(#clip480)" d="M83.191 1086.65 L88.0753 1086.65 L88.0753 1092.53 L83.191 1092.53 L83.191 1086.65 Z" fill="#000000" fill-rule="nonzero" fill-opacity="1" /><path clip-path="url(#clip480)" d="M98.3993 1091.81 L98.3993 1087.55 Q100.159 1088.38 101.964 1088.82 Q103.77 1089.26 105.506 1089.26 Q110.135 1089.26 112.566 1086.16 Q115.02 1083.04 115.367 1076.69 Q114.024 1078.68 111.964 1079.75 Q109.904 1080.81 107.404 1080.81 Q102.219 1080.81 99.1863 1077.69 Q96.1771 1074.54 96.1771 1069.1 Q96.1771 1063.78 99.3252 1060.56 Q102.473 1057.34 107.705 1057.34 Q113.7 1057.34 116.848 1061.95 Q120.02 1066.53 120.02 1075.28 Q120.02 1083.45 116.131 1088.34 Q112.265 1093.2 105.714 1093.2 Q103.955 1093.2 102.149 1092.85 Q100.344 1092.5 98.3993 1091.81 M107.705 1077.16 Q110.853 1077.16 112.682 1075 Q114.533 1072.85 114.533 1069.1 Q114.533 1065.37 112.682 1063.22 Q110.853 1061.05 107.705 1061.05 Q104.557 1061.05 102.705 1063.22 Q100.876 1065.37 100.876 1069.1 Q100.876 1072.85 102.705 1075 Q104.557 1077.16 107.705 1077.16 Z" fill="#000000" fill-rule="nonzero" fill-opacity="1" /><path clip-path="url(#clip480)" d="M53.6541 677.391 L61.293 677.391 L61.293 651.025 L52.9829 652.692 L52.9829 648.432 L61.2467 646.766 L65.9226 646.766 L65.9226 677.391 L73.5614 677.391 L73.5614 681.326 L53.6541 681.326 L53.6541 677.391 Z" fill="#000000" fill-rule="nonzero" fill-opacity="1" /><path clip-path="url(#clip480)" d="M83.0058 675.446 L87.8901 675.446 L87.8901 681.326 L83.0058 681.326 L83.0058 675.446 Z" fill="#000000" fill-rule="nonzero" fill-opacity="1" /><path clip-path="url(#clip480)" d="M108.075 649.844 Q104.464 649.844 102.635 653.409 Q100.83 656.951 100.83 664.08 Q100.83 671.187 102.635 674.752 Q104.464 678.293 108.075 678.293 Q111.709 678.293 113.515 674.752 Q115.344 671.187 115.344 664.08 Q115.344 656.951 113.515 653.409 Q111.709 649.844 108.075 649.844 M108.075 646.141 Q113.885 646.141 116.941 650.747 Q120.02 655.33 120.02 664.08 Q120.02 672.807 116.941 677.414 Q113.885 681.997 108.075 681.997 Q102.265 681.997 99.1863 677.414 Q96.1308 672.807 96.1308 664.08 Q96.1308 655.33 99.1863 650.747 Q102.265 646.141 108.075 646.141 Z" fill="#000000" fill-rule="nonzero" fill-opacity="1" /><path clip-path="url(#clip480)" d="M54.881 266.189 L62.5198 266.189 L62.5198 239.824 L54.2097 241.491 L54.2097 237.231 L62.4735 235.565 L67.1494 235.565 L67.1494 266.189 L74.7883 266.189 L74.7883 270.125 L54.881 270.125 L54.881 266.189 Z" fill="#000000" fill-rule="nonzero" fill-opacity="1" /><path clip-path="url(#clip480)" d="M84.2327 264.245 L89.1169 264.245 L89.1169 270.125 L84.2327 270.125 L84.2327 264.245 Z" fill="#000000" fill-rule="nonzero" fill-opacity="1" /><path clip-path="url(#clip480)" d="M100.112 266.189 L107.751 266.189 L107.751 239.824 L99.4409 241.491 L99.4409 237.231 L107.705 235.565 L112.381 235.565 L112.381 266.189 L120.02 266.189 L120.02 270.125 L100.112 270.125 L100.112 266.189 Z" fill="#000000" fill-rule="nonzero" fill-opacity="1" /><path clip-path="url(#clip482)" d="M276.844 1364.57 L276.844 4776.06 L472.353 4776.06 L472.353 1364.57 L276.844 1364.57 L276.844 1364.57  Z" fill="#ee82ee" fill-rule="evenodd" fill-opacity="1"/>
<polyline clip-path="url(#clip482)" style="stroke:#000000; stroke-linecap:round; stroke-linejoin:round; stroke-width:4; stroke-opacity:1; fill:none" points="276.844,1364.57 276.844,4776.06 472.353,4776.06 472.353,1364.57 276.844,1364.57 "/>
<path clip-path="url(#clip482)" d="M472.353 1013.85 L472.353 4776.06 L667.861 4776.06 L667.861 1013.85 L472.353 1013.85 L472.353 1013.85  Z" fill="#ee82ee" fill-rule="evenodd" fill-opacity="1"/>
<polyline clip-path="url(#clip482)" style="stroke:#000000; stroke-linecap:round; stroke-linejoin:round; stroke-width:4; stroke-opacity:1; fill:none" points="472.353,1013.85 472.353,4776.06 667.861,4776.06 667.861,1013.85 472.353,1013.85 "/>
<path clip-path="url(#clip482)" d="M667.861 745.464 L667.861 4776.06 L863.37 4776.06 L863.37 745.464 L667.861 745.464 L667.861 745.464  Z" fill="#ee82ee" fill-rule="evenodd" fill-opacity="1"/>
<polyline clip-path="url(#clip482)" style="stroke:#000000; stroke-linecap:round; stroke-linejoin:round; stroke-width:4; stroke-opacity:1; fill:none" points="667.861,745.464 667.861,4776.06 863.37,4776.06 863.37,745.464 667.861,745.464 "/>
<path clip-path="url(#clip482)" d="M863.37 455.772 L863.37 4776.06 L1058.88 4776.06 L1058.88 455.772 L863.37 455.772 L863.37 455.772  Z" fill="#ee82ee" fill-rule="evenodd" fill-opacity="1"/>
<polyline clip-path="url(#clip482)" style="stroke:#000000; stroke-linecap:round; stroke-linejoin:round; stroke-width:4; stroke-opacity:1; fill:none" points="863.37,455.772 863.37,4776.06 1058.88,4776.06 1058.88,455.772 863.37,455.772 "/>
<path clip-path="url(#clip482)" d="M1058.88 340.266 L1058.88 4776.06 L1254.39 4776.06 L1254.39 340.266 L1058.88 340.266 L1058.88 340.266  Z" fill="#ee82ee" fill-rule="evenodd" fill-opacity="1"/>
<polyline clip-path="url(#clip482)" style="stroke:#000000; stroke-linecap:round; stroke-linejoin:round; stroke-width:4; stroke-opacity:1; fill:none" points="1058.88,340.266 1058.88,4776.06 1254.39,4776.06 1254.39,340.266 1058.88,340.266 "/>
<path clip-path="url(#clip482)" d="M1254.39 233.6 L1254.39 4776.06 L1449.9 4776.06 L1449.9 233.6 L1254.39 233.6 L1254.39 233.6  Z" fill="#ee82ee" fill-rule="evenodd" fill-opacity="1"/>
<polyline clip-path="url(#clip482)" style="stroke:#000000; stroke-linecap:round; stroke-linejoin:round; stroke-width:4; stroke-opacity:1; fill:none" points="1254.39,233.6 1254.39,4776.06 1449.9,4776.06 1449.9,233.6 1254.39,233.6 "/>
<path clip-path="url(#clip482)" d="M1449.9 251.323 L1449.9 4776.06 L1645.41 4776.06 L1645.41 251.323 L1449.9 251.323 L1449.9 251.323  Z" fill="#ee82ee" fill-rule="evenodd" fill-opacity="1"/>
<polyline clip-path="url(#clip482)" style="stroke:#000000; stroke-linecap:round; stroke-linejoin:round; stroke-width:4; stroke-opacity:1; fill:none" points="1449.9,251.323 1449.9,4776.06 1645.41,4776.06 1645.41,251.323 1449.9,251.323 "/>
<path clip-path="url(#clip482)" d="M1645.41 385.416 L1645.41 4776.06 L1840.91 4776.06 L1840.91 385.416 L1645.41 385.416 L1645.41 385.416  Z" fill="#ee82ee" fill-rule="evenodd" fill-opacity="1"/>
<polyline clip-path="url(#clip482)" style="stroke:#000000; stroke-linecap:round; stroke-linejoin:round; stroke-width:4; stroke-opacity:1; fill:none" points="1645.41,385.416 1645.41,4776.06 1840.91,4776.06 1840.91,385.416 1645.41,385.416 "/>
<path clip-path="url(#clip482)" d="M1840.91 712.814 L1840.91 4776.06 L2036.42 4776.06 L2036.42 712.814 L1840.91 712.814 L1840.91 712.814  Z" fill="#ee82ee" fill-rule="evenodd" fill-opacity="1"/>
<polyline clip-path="url(#clip482)" style="stroke:#000000; stroke-linecap:round; stroke-linejoin:round; stroke-width:4; stroke-opacity:1; fill:none" points="1840.91,712.814 1840.91,4776.06 2036.42,4776.06 2036.42,712.814 1840.91,712.814 "/>
<path clip-path="url(#clip482)" d="M2036.42 1137.38 L2036.42 4776.06 L2231.93 4776.06 L2231.93 1137.38 L2036.42 1137.38 L2036.42 1137.38  Z" fill="#ee82ee" fill-rule="evenodd" fill-opacity="1"/>
<polyline clip-path="url(#clip482)" style="stroke:#000000; stroke-linecap:round; stroke-linejoin:round; stroke-width:4; stroke-opacity:1; fill:none" points="2036.42,1137.38 2036.42,4776.06 2231.93,4776.06 2231.93,1137.38 2036.42,1137.38 "/>
<circle clip-path="url(#clip482)" style="fill:#ee82ee; stroke:none; fill-opacity:0" cx="374.598" cy="1364.57" r="2"/>
<circle clip-path="url(#clip482)" style="fill:#ee82ee; stroke:none; fill-opacity:0" cx="570.107" cy="1013.85" r="2"/>
<circle clip-path="url(#clip482)" style="fill:#ee82ee; stroke:none; fill-opacity:0" cx="765.616" cy="745.464" r="2"/>
<circle clip-path="url(#clip482)" style="fill:#ee82ee; stroke:none; fill-opacity:0" cx="961.125" cy="455.772" r="2"/>
<circle clip-path="url(#clip482)" style="fill:#ee82ee; stroke:none; fill-opacity:0" cx="1156.63" cy="340.266" r="2"/>
<circle clip-path="url(#clip482)" style="fill:#ee82ee; stroke:none; fill-opacity:0" cx="1352.14" cy="233.6" r="2"/>
<circle clip-path="url(#clip482)" style="fill:#ee82ee; stroke:none; fill-opacity:0" cx="1547.65" cy="251.323" r="2"/>
<circle clip-path="url(#clip482)" style="fill:#ee82ee; stroke:none; fill-opacity:0" cx="1743.16" cy="385.416" r="2"/>
<circle clip-path="url(#clip482)" style="fill:#ee82ee; stroke:none; fill-opacity:0" cx="1938.67" cy="712.814" r="2"/>
<circle clip-path="url(#clip482)" style="fill:#ee82ee; stroke:none; fill-opacity:0" cx="2134.18" cy="1137.38" r="2"/>
<polyline clip-path="url(#clip482)" style="stroke:#0000ff; stroke-linecap:round; stroke-linejoin:round; stroke-width:12; stroke-opacity:1; fill:none" points="276.844,1486.45 296.395,1453.56 315.946,1420.68 335.497,1387.85 355.047,1355.07 374.598,1322.38 394.149,1289.78 413.7,1257.3 433.251,1224.96 452.802,1192.78 472.353,1160.78 491.904,1128.97 511.454,1097.38 531.005,1066.03 550.556,1034.93 570.107,1004.11 589.658,973.585 609.209,943.376 628.76,913.503 648.311,883.986 667.861,854.843 687.412,826.095 706.963,797.762 726.514,769.863 746.065,742.417 765.616,715.446 785.167,688.968 804.718,663.003 824.268,637.571 843.819,612.692 863.37,588.385 882.921,564.67 902.472,541.567 922.023,519.096 941.574,497.276 961.125,476.127 980.675,455.669 1000.23,435.921 1019.78,416.904 1039.33,398.637 1058.88,381.139 1078.43,364.431 1097.98,348.533 1117.53,333.463 1137.08,319.242 1156.63,305.89 1176.18,293.425 1195.74,281.869 1215.29,271.24 1234.84,261.559 1254.39,252.845 1273.94,245.117 1293.49,238.397 1313.04,232.702 1332.59,228.054 1352.14,224.472 1371.69,221.975 1391.24,220.583 1410.79,220.317 1430.35,221.195 1449.9,223.238 1469.45,226.465 1489,230.896 1508.55,236.551 1528.1,243.45 1547.65,251.611 1567.2,261.055 1586.75,271.803 1606.3,283.872 1625.85,297.284 1645.41,312.058 1664.96,328.213 1684.51,345.769 1704.06,364.747 1723.61,385.166 1743.16,407.045 1762.71,430.405 1782.26,455.264 1801.81,481.643 1821.36,509.562 1840.91,539.041 1860.46,570.098 1880.02,602.754 1899.57,637.028 1919.12,672.941 1938.67,710.511 1958.22,749.76 1977.77,790.706 1997.32,833.368 2016.87,877.768 2036.42,923.925 2055.97,971.858 2075.52,1021.59 2095.08,1073.13 2114.63,1126.51 2134.18,1181.75 2153.73,1238.86 2173.28,1297.86 2192.83,1358.78 2212.38,1421.64 2231.93,1486.45 "/>
<path clip-path="url(#clip480)" d="M641.077 1438.47 L1867.7 1438.47 L1867.7 1174.78 L641.077 1174.78  Z" fill="#ffffff" fill-rule="evenodd" fill-opacity="1"/>
<polyline clip-path="url(#clip480)" style="stroke:#000000; stroke-linecap:round; stroke-linejoin:round; stroke-width:4; stroke-opacity:1; fill:none" points="641.077,1438.47 1867.7,1438.47 1867.7,1174.78 641.077,1174.78 641.077,1438.47 "/>
<path clip-path="url(#clip480)" d="M665.485 1297.84 L811.934 1297.84 L811.934 1227.52 L665.485 1227.52 L665.485 1297.84  Z" fill="#ee82ee" fill-rule="evenodd" fill-opacity="1"/>
<polyline clip-path="url(#clip480)" style="stroke:#000000; stroke-linecap:round; stroke-linejoin:round; stroke-width:4; stroke-opacity:1; fill:none" points="665.485,1297.84 811.934,1297.84 811.934,1227.52 665.485,1227.52 665.485,1297.84 "/>
<path clip-path="url(#clip480)" d="M836.342 1251.53 L843.31 1251.53 L852.129 1275.05 L860.995 1251.53 L867.962 1251.53 L867.962 1286.09 L863.402 1286.09 L863.402 1255.74 L854.49 1279.45 L849.791 1279.45 L840.879 1255.74 L840.879 1286.09 L836.342 1286.09 L836.342 1251.53 Z" fill="#000000" fill-rule="nonzero" fill-opacity="1" /><path clip-path="url(#clip480)" d="M899.235 1272.06 L899.235 1274.15 L879.652 1274.15 Q879.93 1278.54 882.291 1280.86 Q884.675 1283.15 888.911 1283.15 Q891.365 1283.15 893.657 1282.55 Q895.971 1281.95 898.24 1280.74 L898.24 1284.77 Q895.948 1285.74 893.541 1286.25 Q891.134 1286.76 888.657 1286.76 Q882.453 1286.76 878.819 1283.15 Q875.208 1279.54 875.208 1273.38 Q875.208 1267.02 878.634 1263.29 Q882.083 1259.54 887.916 1259.54 Q893.147 1259.54 896.18 1262.92 Q899.235 1266.28 899.235 1272.06 M894.976 1270.81 Q894.93 1267.32 893.009 1265.23 Q891.11 1263.15 887.962 1263.15 Q884.397 1263.15 882.245 1265.17 Q880.115 1267.18 879.791 1270.84 L894.976 1270.81 Z" fill="#000000" fill-rule="nonzero" fill-opacity="1" /><path clip-path="url(#clip480)" d="M910.439 1252.8 L910.439 1260.17 L919.212 1260.17 L919.212 1263.48 L910.439 1263.48 L910.439 1277.55 Q910.439 1280.72 911.295 1281.62 Q912.175 1282.53 914.837 1282.53 L919.212 1282.53 L919.212 1286.09 L914.837 1286.09 Q909.907 1286.09 908.032 1284.26 Q906.157 1282.41 906.157 1277.55 L906.157 1263.48 L903.032 1263.48 L903.032 1260.17 L906.157 1260.17 L906.157 1252.8 L910.439 1252.8 Z" fill="#000000" fill-rule="nonzero" fill-opacity="1" /><path clip-path="url(#clip480)" d="M934.86 1263.15 Q931.434 1263.15 929.444 1265.84 Q927.453 1268.5 927.453 1273.15 Q927.453 1277.8 929.42 1280.49 Q931.411 1283.15 934.86 1283.15 Q938.263 1283.15 940.254 1280.47 Q942.244 1277.78 942.244 1273.15 Q942.244 1268.54 940.254 1265.86 Q938.263 1263.15 934.86 1263.15 M934.86 1259.54 Q940.416 1259.54 943.587 1263.15 Q946.758 1266.76 946.758 1273.15 Q946.758 1279.52 943.587 1283.15 Q940.416 1286.76 934.86 1286.76 Q929.281 1286.76 926.11 1283.15 Q922.962 1279.52 922.962 1273.15 Q922.962 1266.76 926.11 1263.15 Q929.281 1259.54 934.86 1259.54 Z" fill="#000000" fill-rule="nonzero" fill-opacity="1" /><path clip-path="url(#clip480)" d="M970.878 1264.1 L970.878 1250.07 L975.138 1250.07 L975.138 1286.09 L970.878 1286.09 L970.878 1282.2 Q969.536 1284.52 967.476 1285.65 Q965.439 1286.76 962.568 1286.76 Q957.869 1286.76 954.906 1283.01 Q951.967 1279.26 951.967 1273.15 Q951.967 1267.04 954.906 1263.29 Q957.869 1259.54 962.568 1259.54 Q965.439 1259.54 967.476 1260.67 Q969.536 1261.79 970.878 1264.1 M956.365 1273.15 Q956.365 1277.85 958.286 1280.54 Q960.23 1283.2 963.61 1283.2 Q966.99 1283.2 968.934 1280.54 Q970.878 1277.85 970.878 1273.15 Q970.878 1268.45 968.934 1265.79 Q966.99 1263.1 963.61 1263.1 Q960.23 1263.1 958.286 1265.79 Q956.365 1268.45 956.365 1273.15 Z" fill="#000000" fill-rule="nonzero" fill-opacity="1" /><path clip-path="url(#clip480)" d="M995.693 1273.06 Q990.531 1273.06 988.54 1274.24 Q986.55 1275.42 986.55 1278.27 Q986.55 1280.54 988.031 1281.88 Q989.536 1283.2 992.105 1283.2 Q995.647 1283.2 997.776 1280.7 Q999.929 1278.17 999.929 1274.01 L999.929 1273.06 L995.693 1273.06 M1004.19 1271.3 L1004.19 1286.09 L999.929 1286.09 L999.929 1282.16 Q998.471 1284.52 996.295 1285.65 Q994.119 1286.76 990.971 1286.76 Q986.99 1286.76 984.628 1284.54 Q982.29 1282.29 982.29 1278.54 Q982.29 1274.17 985.207 1271.95 Q988.147 1269.73 993.957 1269.73 L999.929 1269.73 L999.929 1269.31 Q999.929 1266.37 997.985 1264.77 Q996.064 1263.15 992.568 1263.15 Q990.346 1263.15 988.24 1263.68 Q986.133 1264.22 984.189 1265.28 L984.189 1261.35 Q986.527 1260.44 988.726 1260 Q990.925 1259.54 993.008 1259.54 Q998.633 1259.54 1001.41 1262.46 Q1004.19 1265.37 1004.19 1271.3 Z" fill="#000000" fill-rule="nonzero" fill-opacity="1" /><path clip-path="url(#clip480)" d="M1028.17 1250.07 L1032.43 1250.07 L1032.43 1264.01 L1035.32 1261.92 L1037.08 1264.38 L1032.43 1267.64 L1032.43 1286.09 L1028.17 1286.09 L1028.17 1270.67 L1025.32 1272.71 L1023.61 1270.26 L1028.17 1266.99 L1028.17 1250.07 Z" fill="#000000" fill-rule="nonzero" fill-opacity="1" /><path clip-path="url(#clip480)" d="M1053.29 1273.06 Q1048.12 1273.06 1046.13 1274.24 Q1044.14 1275.42 1044.14 1278.27 Q1044.14 1280.54 1045.62 1281.88 Q1047.13 1283.2 1049.7 1283.2 Q1053.24 1283.2 1055.37 1280.7 Q1057.52 1278.17 1057.52 1274.01 L1057.52 1273.06 L1053.29 1273.06 M1061.78 1271.3 L1061.78 1286.09 L1057.52 1286.09 L1057.52 1282.16 Q1056.06 1284.52 1053.89 1285.65 Q1051.71 1286.76 1048.56 1286.76 Q1044.58 1286.76 1042.22 1284.54 Q1039.88 1282.29 1039.88 1278.54 Q1039.88 1274.17 1042.8 1271.95 Q1045.74 1269.73 1051.55 1269.73 L1057.52 1269.73 L1057.52 1269.31 Q1057.52 1266.37 1055.58 1264.77 Q1053.66 1263.15 1050.16 1263.15 Q1047.94 1263.15 1045.83 1263.68 Q1043.73 1264.22 1041.78 1265.28 L1041.78 1261.35 Q1044.12 1260.44 1046.32 1260 Q1048.52 1259.54 1050.6 1259.54 Q1056.23 1259.54 1059 1262.46 Q1061.78 1265.37 1061.78 1271.3 Z" fill="#000000" fill-rule="nonzero" fill-opacity="1" /><path clip-path="url(#clip480)" d="M1082.68 1248.01 L1087.29 1248.01 L1079.74 1256.72 L1076.2 1256.72 L1082.68 1248.01 M1092.1 1270.44 L1092.1 1286.09 L1087.85 1286.09 L1087.85 1270.58 Q1087.85 1266.9 1086.41 1265.07 Q1084.98 1263.24 1082.1 1263.24 Q1078.66 1263.24 1076.66 1265.44 Q1074.67 1267.64 1074.67 1271.44 L1074.67 1286.09 L1070.39 1286.09 L1070.39 1260.17 L1074.67 1260.17 L1074.67 1264.19 Q1076.2 1261.85 1078.26 1260.7 Q1080.35 1259.54 1083.05 1259.54 Q1087.52 1259.54 1089.81 1262.32 Q1092.1 1265.07 1092.1 1270.44 Z" fill="#000000" fill-rule="nonzero" fill-opacity="1" /><path clip-path="url(#clip480)" d="M1119.26 1261.16 L1119.26 1265.14 Q1117.45 1264.15 1115.62 1263.66 Q1113.82 1263.15 1111.97 1263.15 Q1107.82 1263.15 1105.53 1265.79 Q1103.24 1268.41 1103.24 1273.15 Q1103.24 1277.9 1105.53 1280.54 Q1107.82 1283.15 1111.97 1283.15 Q1113.82 1283.15 1115.62 1282.66 Q1117.45 1282.16 1119.26 1281.16 L1119.26 1285.1 Q1117.47 1285.93 1115.55 1286.35 Q1113.66 1286.76 1111.5 1286.76 Q1105.65 1286.76 1102.2 1283.08 Q1098.75 1279.4 1098.75 1273.15 Q1098.75 1266.81 1102.22 1263.17 Q1105.72 1259.54 1111.78 1259.54 Q1113.75 1259.54 1115.62 1259.96 Q1117.5 1260.35 1119.26 1261.16 Z" fill="#000000" fill-rule="nonzero" fill-opacity="1" /><path clip-path="url(#clip480)" d="M1126.22 1275.86 L1126.22 1260.17 L1130.48 1260.17 L1130.48 1275.7 Q1130.48 1279.38 1131.92 1281.23 Q1133.35 1283.06 1136.22 1283.06 Q1139.67 1283.06 1141.66 1280.86 Q1143.68 1278.66 1143.68 1274.86 L1143.68 1260.17 L1147.94 1260.17 L1147.94 1286.09 L1143.68 1286.09 L1143.68 1282.11 Q1142.13 1284.47 1140.07 1285.63 Q1138.03 1286.76 1135.32 1286.76 Q1130.85 1286.76 1128.54 1283.98 Q1126.22 1281.21 1126.22 1275.86 M1136.94 1259.54 L1136.94 1259.54 Z" fill="#000000" fill-rule="nonzero" fill-opacity="1" /><path clip-path="url(#clip480)" d="M1175.37 1261.16 L1175.37 1265.14 Q1173.56 1264.15 1171.73 1263.66 Q1169.93 1263.15 1168.08 1263.15 Q1163.93 1263.15 1161.64 1265.79 Q1159.35 1268.41 1159.35 1273.15 Q1159.35 1277.9 1161.64 1280.54 Q1163.93 1283.15 1168.08 1283.15 Q1169.93 1283.15 1171.73 1282.66 Q1173.56 1282.16 1175.37 1281.16 L1175.37 1285.1 Q1173.59 1285.93 1171.66 1286.35 Q1169.77 1286.76 1167.61 1286.76 Q1161.76 1286.76 1158.31 1283.08 Q1154.86 1279.4 1154.86 1273.15 Q1154.86 1266.81 1158.33 1263.17 Q1161.83 1259.54 1167.89 1259.54 Q1169.86 1259.54 1171.73 1259.96 Q1173.61 1260.35 1175.37 1261.16 Z" fill="#000000" fill-rule="nonzero" fill-opacity="1" /><path clip-path="url(#clip480)" d="M1204.33 1270.44 L1204.33 1286.09 L1200.07 1286.09 L1200.07 1270.58 Q1200.07 1266.9 1198.63 1265.07 Q1197.2 1263.24 1194.33 1263.24 Q1190.88 1263.24 1188.89 1265.44 Q1186.9 1267.64 1186.9 1271.44 L1186.9 1286.09 L1182.61 1286.09 L1182.61 1250.07 L1186.9 1250.07 L1186.9 1264.19 Q1188.42 1261.85 1190.48 1260.7 Q1192.57 1259.54 1195.28 1259.54 Q1199.74 1259.54 1202.03 1262.32 Q1204.33 1265.07 1204.33 1270.44 Z" fill="#000000" fill-rule="nonzero" fill-opacity="1" /><path clip-path="url(#clip480)" d="M1224.6 1273.06 Q1219.44 1273.06 1217.45 1274.24 Q1215.46 1275.42 1215.46 1278.27 Q1215.46 1280.54 1216.94 1281.88 Q1218.45 1283.2 1221.02 1283.2 Q1224.56 1283.2 1226.69 1280.7 Q1228.84 1278.17 1228.84 1274.01 L1228.84 1273.06 L1224.6 1273.06 M1233.1 1271.3 L1233.1 1286.09 L1228.84 1286.09 L1228.84 1282.16 Q1227.38 1284.52 1225.21 1285.65 Q1223.03 1286.76 1219.88 1286.76 Q1215.9 1286.76 1213.54 1284.54 Q1211.2 1282.29 1211.2 1278.54 Q1211.2 1274.17 1214.12 1271.95 Q1217.06 1269.73 1222.87 1269.73 L1228.84 1269.73 L1228.84 1269.31 Q1228.84 1266.37 1226.9 1264.77 Q1224.97 1263.15 1221.48 1263.15 Q1219.26 1263.15 1217.15 1263.68 Q1215.04 1264.22 1213.1 1265.28 L1213.1 1261.35 Q1215.44 1260.44 1217.64 1260 Q1219.84 1259.54 1221.92 1259.54 Q1227.54 1259.54 1230.32 1262.46 Q1233.1 1265.37 1233.1 1271.3 Z" fill="#000000" fill-rule="nonzero" fill-opacity="1" /><path clip-path="url(#clip480)" d="M1257.13 1251.53 L1264.09 1251.53 L1272.91 1275.05 L1281.78 1251.53 L1288.75 1251.53 L1288.75 1286.09 L1284.19 1286.09 L1284.19 1255.74 L1275.28 1279.45 L1270.58 1279.45 L1261.66 1255.74 L1261.66 1286.09 L1257.13 1286.09 L1257.13 1251.53 Z" fill="#000000" fill-rule="nonzero" fill-opacity="1" /><path clip-path="url(#clip480)" d="M1309.63 1273.06 Q1304.46 1273.06 1302.47 1274.24 Q1300.48 1275.42 1300.48 1278.27 Q1300.48 1280.54 1301.96 1281.88 Q1303.47 1283.2 1306.04 1283.2 Q1309.58 1283.2 1311.71 1280.7 Q1313.86 1278.17 1313.86 1274.01 L1313.86 1273.06 L1309.63 1273.06 M1318.12 1271.3 L1318.12 1286.09 L1313.86 1286.09 L1313.86 1282.16 Q1312.4 1284.52 1310.23 1285.65 Q1308.05 1286.76 1304.9 1286.76 Q1300.92 1286.76 1298.56 1284.54 Q1296.22 1282.29 1296.22 1278.54 Q1296.22 1274.17 1299.14 1271.95 Q1302.08 1269.73 1307.89 1269.73 L1313.86 1269.73 L1313.86 1269.31 Q1313.86 1266.37 1311.92 1264.77 Q1310 1263.15 1306.5 1263.15 Q1304.28 1263.15 1302.17 1263.68 Q1300.07 1264.22 1298.12 1265.28 L1298.12 1261.35 Q1300.46 1260.44 1302.66 1260 Q1304.86 1259.54 1306.94 1259.54 Q1312.57 1259.54 1315.34 1262.46 Q1318.12 1265.37 1318.12 1271.3 Z" fill="#000000" fill-rule="nonzero" fill-opacity="1" /><path clip-path="url(#clip480)" d="M1341.92 1264.15 Q1341.2 1263.73 1340.34 1263.54 Q1339.51 1263.34 1338.49 1263.34 Q1334.88 1263.34 1332.94 1265.7 Q1331.02 1268.04 1331.02 1272.43 L1331.02 1286.09 L1326.73 1286.09 L1326.73 1260.17 L1331.02 1260.17 L1331.02 1264.19 Q1332.36 1261.83 1334.51 1260.7 Q1336.66 1259.54 1339.74 1259.54 Q1340.18 1259.54 1340.71 1259.61 Q1341.25 1259.66 1341.9 1259.77 L1341.92 1264.15 Z" fill="#000000" fill-rule="nonzero" fill-opacity="1" /><path clip-path="url(#clip480)" d="M1346.22 1250.07 L1350.51 1250.07 L1350.51 1271.35 L1363.21 1260.17 L1368.65 1260.17 L1354.9 1272.29 L1369.23 1286.09 L1363.68 1286.09 L1350.51 1273.43 L1350.51 1286.09 L1346.22 1286.09 L1346.22 1250.07 Z" fill="#000000" fill-rule="nonzero" fill-opacity="1" /><path clip-path="url(#clip480)" d="M1382.2 1263.15 Q1378.77 1263.15 1376.78 1265.84 Q1374.79 1268.5 1374.79 1273.15 Q1374.79 1277.8 1376.76 1280.49 Q1378.75 1283.15 1382.2 1283.15 Q1385.6 1283.15 1387.59 1280.47 Q1389.58 1277.78 1389.58 1273.15 Q1389.58 1268.54 1387.59 1265.86 Q1385.6 1263.15 1382.2 1263.15 M1382.2 1259.54 Q1387.75 1259.54 1390.92 1263.15 Q1394.09 1266.76 1394.09 1273.15 Q1394.09 1279.52 1390.92 1283.15 Q1387.75 1286.76 1382.2 1286.76 Q1376.62 1286.76 1373.45 1283.15 Q1370.3 1279.52 1370.3 1273.15 Q1370.3 1266.76 1373.45 1263.15 Q1376.62 1259.54 1382.2 1259.54 Z" fill="#000000" fill-rule="nonzero" fill-opacity="1" /><path clip-path="url(#clip480)" d="M1398.68 1260.17 L1402.94 1260.17 L1408.26 1280.4 L1413.56 1260.17 L1418.58 1260.17 L1423.91 1280.4 L1429.21 1260.17 L1433.47 1260.17 L1426.69 1286.09 L1421.66 1286.09 L1416.08 1264.84 L1410.48 1286.09 L1405.46 1286.09 L1398.68 1260.17 Z" fill="#000000" fill-rule="nonzero" fill-opacity="1" /><path clip-path="url(#clip480)" d="M1451.71 1273.06 Q1446.55 1273.06 1444.56 1274.24 Q1442.57 1275.42 1442.57 1278.27 Q1442.57 1280.54 1444.05 1281.88 Q1445.55 1283.2 1448.12 1283.2 Q1451.66 1283.2 1453.79 1280.7 Q1455.95 1278.17 1455.95 1274.01 L1455.95 1273.06 L1451.71 1273.06 M1460.2 1271.3 L1460.2 1286.09 L1455.95 1286.09 L1455.95 1282.16 Q1454.49 1284.52 1452.31 1285.65 Q1450.14 1286.76 1446.99 1286.76 Q1443.01 1286.76 1440.64 1284.54 Q1438.31 1282.29 1438.31 1278.54 Q1438.31 1274.17 1441.22 1271.95 Q1444.16 1269.73 1449.97 1269.73 L1455.95 1269.73 L1455.95 1269.31 Q1455.95 1266.37 1454 1264.77 Q1452.08 1263.15 1448.58 1263.15 Q1446.36 1263.15 1444.26 1263.68 Q1442.15 1264.22 1440.2 1265.28 L1440.2 1261.35 Q1442.54 1260.44 1444.74 1260 Q1446.94 1259.54 1449.02 1259.54 Q1454.65 1259.54 1457.43 1262.46 Q1460.2 1265.37 1460.2 1271.3 Z" fill="#000000" fill-rule="nonzero" fill-opacity="1" /><path clip-path="url(#clip480)" d="M1470.07 1280.21 L1474.95 1280.21 L1474.95 1284.19 L1471.15 1291.6 L1468.17 1291.6 L1470.07 1284.19 L1470.07 1280.21 Z" fill="#000000" fill-rule="nonzero" fill-opacity="1" /><path clip-path="url(#clip480)" d="M1535.03 1253.86 Q1535.03 1254.82 1534.21 1254.82 Q1531.56 1254.92 1530.49 1255.81 Q1529.43 1256.67 1529.03 1258.36 L1522.33 1285.08 Q1522.1 1285.93 1521.96 1286.02 Q1521.82 1286.09 1521.56 1286.09 Q1521.23 1286.09 1521.05 1285.93 Q1520.88 1285.76 1520.65 1285.18 L1508.7 1256.93 Q1508.61 1256.74 1508.49 1256.48 Q1508.37 1256.23 1508.28 1256.06 L1501.93 1281.38 Q1501.75 1282.11 1501.75 1282.48 Q1501.75 1283.4 1502.38 1283.98 Q1503.03 1284.55 1504.91 1284.62 Q1505.87 1284.62 1505.87 1285.13 Q1505.87 1286.09 1505 1286.09 Q1504.21 1286.09 1502.54 1286.02 Q1500.88 1285.95 1500.06 1285.95 Q1499.26 1285.95 1497.65 1286.02 Q1496.03 1286.09 1495.26 1286.09 Q1494.65 1286.09 1494.65 1285.55 Q1494.65 1285.13 1494.81 1284.92 Q1494.98 1284.69 1495.12 1284.66 Q1495.26 1284.62 1495.47 1284.62 Q1496.87 1284.57 1497.83 1284.29 Q1498.79 1284.01 1499.33 1283.47 Q1499.9 1282.93 1500.15 1282.39 Q1500.43 1281.83 1500.64 1281.01 L1507.06 1255.24 Q1507.06 1254.82 1503.81 1254.82 Q1503.24 1254.82 1503.01 1254.8 Q1502.8 1254.78 1502.64 1254.66 Q1502.47 1254.54 1502.47 1254.28 Q1502.47 1253.63 1502.75 1253.49 Q1503.03 1253.32 1503.85 1253.32 L1510.3 1253.32 Q1511.11 1253.32 1511.33 1253.46 Q1511.54 1253.58 1511.82 1254.24 L1522.43 1279.27 L1527.79 1257.94 Q1527.93 1257.52 1527.93 1256.93 Q1527.93 1255.99 1527.23 1255.43 Q1526.55 1254.85 1524.68 1254.82 Q1523.81 1254.82 1523.81 1254.28 Q1523.81 1253.84 1523.97 1253.63 Q1524.16 1253.39 1524.3 1253.37 Q1524.47 1253.32 1524.68 1253.32 Q1525.47 1253.32 1527.11 1253.39 Q1528.75 1253.46 1529.57 1253.46 Q1530.37 1253.46 1531.98 1253.39 Q1533.62 1253.32 1534.42 1253.32 Q1534.7 1253.32 1534.84 1253.46 Q1535.01 1253.58 1535.03 1253.72 L1535.03 1253.86 Z" fill="#000000" fill-rule="nonzero" fill-opacity="1" /><path clip-path="url(#clip480)" d="M1546.08 1278.81 Q1546.13 1278.22 1547.04 1278.22 L1576.44 1278.22 Q1577.82 1278.22 1577.84 1278.76 Q1577.84 1279.35 1576.53 1279.32 L1547.37 1279.32 Q1546.08 1279.35 1546.08 1278.81 M1546.08 1269.44 Q1546.08 1268.85 1547.09 1268.88 L1576.39 1268.88 Q1577.82 1268.88 1577.84 1269.44 Q1577.84 1269.98 1576.63 1269.98 L1547.04 1269.98 Q1546.08 1269.98 1546.08 1269.44 Z" fill="#000000" fill-rule="nonzero" fill-opacity="1" /><path clip-path="url(#clip480)" d="M1596.34 1258.71 L1596.34 1257.21 Q1602.1 1257.21 1605.07 1254.14 Q1605.89 1254.14 1606.03 1254.33 Q1606.17 1254.52 1606.17 1255.38 L1606.17 1282.3 Q1606.17 1283.73 1606.88 1284.17 Q1607.58 1284.62 1610.65 1284.62 L1612.17 1284.62 L1612.17 1286.09 Q1610.48 1285.95 1604.39 1285.95 Q1598.3 1285.95 1596.64 1286.09 L1596.64 1284.62 L1598.16 1284.62 Q1601.18 1284.62 1601.91 1284.19 Q1602.64 1283.75 1602.64 1282.3 L1602.64 1257.45 Q1600.13 1258.71 1596.34 1258.71 Z" fill="#000000" fill-rule="nonzero" fill-opacity="1" /><path clip-path="url(#clip480)" d="M1620.09 1270.75 Q1620.09 1263.7 1621.87 1259.86 Q1624.35 1254.14 1630.2 1254.14 Q1631.45 1254.14 1632.73 1254.49 Q1634.04 1254.82 1635.68 1256.11 Q1637.35 1257.4 1638.35 1259.51 Q1640.28 1263.58 1640.28 1270.75 Q1640.28 1277.75 1638.5 1281.57 Q1635.9 1287.14 1630.16 1287.14 Q1628 1287.14 1625.8 1286.04 Q1623.62 1284.94 1622.24 1282.3 Q1620.09 1278.34 1620.09 1270.75 M1624.07 1270.16 Q1624.07 1277.4 1624.58 1280.28 Q1625.17 1283.4 1626.76 1284.76 Q1628.38 1286.09 1630.16 1286.09 Q1632.08 1286.09 1633.67 1284.66 Q1635.29 1283.21 1635.78 1280.09 Q1636.32 1277.03 1636.29 1270.16 Q1636.29 1263.49 1635.83 1260.82 Q1635.19 1257.7 1633.51 1256.46 Q1631.84 1255.2 1630.16 1255.2 Q1629.52 1255.2 1628.85 1255.38 Q1628.19 1255.57 1627.23 1256.11 Q1626.27 1256.65 1625.52 1257.98 Q1624.79 1259.32 1624.44 1261.33 Q1624.07 1263.93 1624.07 1270.16 Z" fill="#000000" fill-rule="nonzero" fill-opacity="1" /><path clip-path="url(#clip480)" d="M1645.19 1249.75 Q1645.19 1244.47 1647.88 1241.24 Q1650.57 1238 1654.03 1238 Q1656.04 1238 1657.16 1239.03 Q1658.29 1240.05 1658.29 1241.62 Q1658.29 1242.49 1657.78 1242.87 Q1657.27 1243.24 1656.75 1243.24 Q1656.14 1243.24 1655.67 1242.83 Q1655.19 1242.43 1655.19 1241.69 Q1655.19 1240.18 1657.04 1240.18 Q1656.17 1238.83 1654.09 1238.83 Q1653.45 1238.83 1652.8 1239.03 Q1652.14 1239.21 1651.29 1239.83 Q1650.44 1240.46 1649.78 1241.44 Q1649.12 1242.43 1648.67 1244.28 Q1648.21 1246.13 1648.21 1248.54 L1648.21 1249.34 Q1649.58 1246.02 1652.4 1246.03 Q1655.22 1246.03 1657.17 1248.18 Q1659.13 1250.33 1659.13 1253.51 Q1659.13 1256.77 1657.09 1258.94 Q1655.06 1261.1 1652.21 1261.1 Q1650.93 1261.1 1649.76 1260.56 Q1648.62 1260.03 1647.53 1258.82 Q1646.47 1257.61 1645.83 1255.28 Q1645.19 1252.95 1645.19 1249.75 M1648.27 1252.77 Q1648.27 1256.07 1648.88 1257.64 Q1648.98 1257.9 1649.19 1258.26 Q1649.42 1258.62 1649.8 1259.1 Q1650.19 1259.56 1650.83 1259.87 Q1651.47 1260.17 1652.21 1260.17 Q1654.45 1260.17 1655.54 1257.98 Q1656.11 1256.77 1656.11 1253.48 Q1656.11 1250.11 1655.5 1248.88 Q1654.47 1246.8 1652.37 1246.8 Q1650.96 1246.8 1649.98 1247.77 Q1649.01 1248.74 1648.63 1250.03 Q1648.27 1251.33 1648.27 1252.77 Z" fill="#000000" fill-rule="nonzero" fill-opacity="1" /><path clip-path="url(#clip480)" d="M1687.76 1282.2 L1687.76 1295.95 L1683.48 1295.95 L1683.48 1260.17 L1687.76 1260.17 L1687.76 1264.1 Q1689.1 1261.79 1691.14 1260.67 Q1693.2 1259.54 1696.05 1259.54 Q1700.77 1259.54 1703.71 1263.29 Q1706.67 1267.04 1706.67 1273.15 Q1706.67 1279.26 1703.71 1283.01 Q1700.77 1286.76 1696.05 1286.76 Q1693.2 1286.76 1691.14 1285.65 Q1689.1 1284.52 1687.76 1282.2 M1702.25 1273.15 Q1702.25 1268.45 1700.31 1265.79 Q1698.38 1263.1 1695 1263.1 Q1691.62 1263.1 1689.68 1265.79 Q1687.76 1268.45 1687.76 1273.15 Q1687.76 1277.85 1689.68 1280.54 Q1691.62 1283.2 1695 1283.2 Q1698.38 1283.2 1700.31 1280.54 Q1702.25 1277.85 1702.25 1273.15 Z" fill="#000000" fill-rule="nonzero" fill-opacity="1" /><path clip-path="url(#clip480)" d="M1728.75 1264.15 Q1728.04 1263.73 1727.18 1263.54 Q1726.35 1263.34 1725.33 1263.34 Q1721.72 1263.34 1719.77 1265.7 Q1717.85 1268.04 1717.85 1272.43 L1717.85 1286.09 L1713.57 1286.09 L1713.57 1260.17 L1717.85 1260.17 L1717.85 1264.19 Q1719.19 1261.83 1721.35 1260.7 Q1723.5 1259.54 1726.58 1259.54 Q1727.02 1259.54 1727.55 1259.61 Q1728.08 1259.66 1728.73 1259.77 L1728.75 1264.15 Z" fill="#000000" fill-rule="nonzero" fill-opacity="1" /><path clip-path="url(#clip480)" d="M1742.23 1263.15 Q1738.8 1263.15 1736.81 1265.84 Q1734.82 1268.5 1734.82 1273.15 Q1734.82 1277.8 1736.79 1280.49 Q1738.78 1283.15 1742.23 1283.15 Q1745.63 1283.15 1747.62 1280.47 Q1749.61 1277.78 1749.61 1273.15 Q1749.61 1268.54 1747.62 1265.86 Q1745.63 1263.15 1742.23 1263.15 M1742.23 1259.54 Q1747.78 1259.54 1750.95 1263.15 Q1754.12 1266.76 1754.12 1273.15 Q1754.12 1279.52 1750.95 1283.15 Q1747.78 1286.76 1742.23 1286.76 Q1736.65 1286.76 1733.48 1283.15 Q1730.33 1279.52 1730.33 1273.15 Q1730.33 1266.76 1733.48 1263.15 Q1736.65 1259.54 1742.23 1259.54 M1745.44 1248.17 L1750.05 1248.17 L1742.5 1256.88 L1738.96 1256.88 L1745.44 1248.17 Z" fill="#000000" fill-rule="nonzero" fill-opacity="1" /><path clip-path="url(#clip480)" d="M1779.8 1273.15 Q1779.8 1268.45 1777.85 1265.79 Q1775.93 1263.1 1772.55 1263.1 Q1769.17 1263.1 1767.23 1265.79 Q1765.3 1268.45 1765.3 1273.15 Q1765.3 1277.85 1767.23 1280.54 Q1769.17 1283.2 1772.55 1283.2 Q1775.93 1283.2 1777.85 1280.54 Q1779.8 1277.85 1779.8 1273.15 M1765.3 1264.1 Q1766.65 1261.79 1768.68 1260.67 Q1770.74 1259.54 1773.59 1259.54 Q1778.31 1259.54 1781.25 1263.29 Q1784.22 1267.04 1784.22 1273.15 Q1784.22 1279.26 1781.25 1283.01 Q1778.31 1286.76 1773.59 1286.76 Q1770.74 1286.76 1768.68 1285.65 Q1766.65 1284.52 1765.3 1282.2 L1765.3 1286.09 L1761.02 1286.09 L1761.02 1250.07 L1765.3 1250.07 L1765.3 1264.1 Z" fill="#000000" fill-rule="nonzero" fill-opacity="1" /><path clip-path="url(#clip480)" d="M1813.45 1272.06 L1813.45 1274.15 L1793.87 1274.15 Q1794.15 1278.54 1796.51 1280.86 Q1798.89 1283.15 1803.13 1283.15 Q1805.58 1283.15 1807.87 1282.55 Q1810.19 1281.95 1812.46 1280.74 L1812.46 1284.77 Q1810.17 1285.74 1807.76 1286.25 Q1805.35 1286.76 1802.87 1286.76 Q1796.67 1286.76 1793.04 1283.15 Q1789.43 1279.54 1789.43 1273.38 Q1789.43 1267.02 1792.85 1263.29 Q1796.3 1259.54 1802.13 1259.54 Q1807.36 1259.54 1810.4 1262.92 Q1813.45 1266.28 1813.45 1272.06 M1809.19 1270.81 Q1809.15 1267.32 1807.23 1265.23 Q1805.33 1263.15 1802.18 1263.15 Q1798.61 1263.15 1796.46 1265.17 Q1794.33 1267.18 1794.01 1270.84 L1809.19 1270.81 Z" fill="#000000" fill-rule="nonzero" fill-opacity="1" /><path clip-path="url(#clip480)" d="M1820.28 1250.07 L1824.56 1250.07 L1824.56 1271.35 L1837.27 1260.17 L1842.71 1260.17 L1828.96 1272.29 L1843.29 1286.09 L1837.74 1286.09 L1824.56 1273.43 L1824.56 1286.09 L1820.28 1286.09 L1820.28 1250.07 Z" fill="#000000" fill-rule="nonzero" fill-opacity="1" /><polyline clip-path="url(#clip480)" style="stroke:#0000ff; stroke-linecap:round; stroke-linejoin:round; stroke-width:12; stroke-opacity:1; fill:none" points="665.485,1350.58 811.934,1350.58 "/>
<path clip-path="url(#clip480)" d="M860.256 1331.68 Q860.256 1332.97 859.437 1333.77 Q858.64 1334.56 857.633 1334.56 Q856.907 1334.56 856.368 1334.12 Q855.853 1333.67 855.853 1332.9 Q855.853 1332.1 856.462 1331.26 Q857.071 1330.42 858.453 1330.3 Q857.539 1329.43 856.087 1329.43 Q855.361 1329.43 854.752 1329.9 Q854.167 1330.35 853.839 1331.07 Q853.487 1331.82 852.691 1336.06 Q852.433 1337.44 852.199 1338.78 Q851.965 1340.11 851.684 1341.52 L855.666 1341.52 Q856.181 1341.52 856.392 1341.54 Q856.603 1341.56 856.767 1341.68 Q856.954 1341.8 856.954 1342.06 Q856.954 1342.71 856.649 1342.88 Q856.368 1343.02 855.525 1343.02 L851.403 1343.02 L848.522 1358.22 Q848.452 1358.66 848.147 1360.07 Q847.866 1361.45 847.187 1363.72 Q846.508 1366.02 845.828 1367.38 Q845.453 1368.15 844.962 1368.88 Q844.493 1369.62 843.814 1370.37 Q843.135 1371.12 842.245 1371.57 Q841.355 1372.04 840.418 1372.04 Q838.825 1372.04 837.584 1371.15 Q836.342 1370.26 836.342 1368.73 Q836.342 1367.45 837.139 1366.65 Q837.958 1365.85 838.965 1365.85 Q839.692 1365.85 840.207 1366.3 Q840.746 1366.74 840.746 1367.52 Q840.746 1367.84 840.628 1368.22 Q840.511 1368.59 840.254 1369.02 Q839.996 1369.46 839.434 1369.77 Q838.872 1370.07 838.099 1370.12 Q839.012 1370.98 840.418 1370.98 Q840.863 1370.98 841.261 1370.8 Q841.659 1370.63 841.987 1370.21 Q842.338 1369.79 842.596 1369.37 Q842.854 1368.97 843.111 1368.2 Q843.369 1367.45 843.533 1366.88 Q843.697 1366.32 843.908 1365.32 Q844.142 1364.31 844.259 1363.7 Q844.376 1363.11 844.587 1361.97 L848.171 1343.02 L845.008 1343.02 Q844.446 1343.02 844.212 1342.99 Q844.001 1342.97 843.837 1342.85 Q843.673 1342.71 843.673 1342.43 Q843.673 1341.99 843.861 1341.8 Q844.072 1341.59 844.306 1341.56 Q844.54 1341.52 845.102 1341.52 L848.428 1341.52 Q849.552 1335.59 849.997 1334 Q850.513 1332.31 851.309 1331.14 Q852.105 1329.95 852.996 1329.39 Q853.886 1328.82 854.612 1328.61 Q855.361 1328.38 856.087 1328.38 Q857.727 1328.38 858.992 1329.27 Q860.256 1330.13 860.256 1331.68 Z" fill="#000000" fill-rule="nonzero" fill-opacity="1" /><path clip-path="url(#clip480)" d="M866.709 1350.21 Q866.709 1342.1 869.731 1335.57 Q871.019 1332.83 872.822 1330.53 Q874.626 1328.24 875.82 1327.23 Q877.015 1326.22 877.343 1326.22 Q877.811 1326.22 877.835 1326.69 Q877.835 1326.93 877.202 1327.51 Q869.473 1335.38 869.496 1350.21 Q869.496 1365.08 877.015 1372.65 Q877.835 1373.47 877.835 1373.72 Q877.835 1374.19 877.343 1374.19 Q877.015 1374.19 875.867 1373.23 Q874.72 1372.27 872.939 1370.07 Q871.159 1367.87 869.871 1365.17 Q866.709 1358.64 866.709 1350.21 Z" fill="#000000" fill-rule="nonzero" fill-opacity="1" /><path clip-path="url(#clip480)" d="M905.368 1344.16 Q905.368 1345.48 904.548 1346.23 Q903.728 1346.95 902.791 1346.95 Q901.901 1346.95 901.433 1346.44 Q900.964 1345.92 900.964 1345.27 Q900.964 1344.38 901.62 1343.6 Q902.276 1342.83 903.26 1342.67 Q902.299 1342.06 900.87 1342.06 Q899.934 1342.06 899.114 1342.55 Q898.317 1343.04 897.826 1343.67 Q897.357 1344.31 896.935 1345.22 Q896.537 1346.11 896.373 1346.65 Q896.233 1347.16 896.116 1347.72 L894.476 1354.28 Q893.68 1357.4 893.68 1358.5 Q893.68 1359.86 894.336 1360.77 Q894.991 1361.66 896.303 1361.66 Q896.818 1361.66 897.404 1361.52 Q897.989 1361.36 898.739 1360.94 Q899.512 1360.49 900.191 1359.83 Q900.894 1359.16 901.573 1358.01 Q902.252 1356.86 902.697 1355.38 Q902.838 1354.87 903.306 1354.87 Q903.892 1354.87 903.892 1355.34 Q903.892 1355.74 903.564 1356.58 Q903.26 1357.4 902.58 1358.48 Q901.924 1359.53 901.058 1360.49 Q900.191 1361.43 898.903 1362.08 Q897.615 1362.74 896.209 1362.74 Q894.195 1362.74 892.86 1361.66 Q891.525 1360.58 891.033 1359.08 Q890.916 1359.3 890.752 1359.58 Q890.588 1359.86 890.096 1360.49 Q889.628 1361.1 889.089 1361.57 Q888.55 1362.01 887.707 1362.36 Q886.887 1362.74 885.997 1362.74 Q884.873 1362.74 883.866 1362.41 Q882.882 1362.08 882.179 1361.33 Q881.477 1360.58 881.477 1359.55 Q881.477 1358.41 882.25 1357.61 Q883.046 1356.79 884.123 1356.79 Q884.803 1356.79 885.341 1357.19 Q885.903 1357.59 885.903 1358.45 Q885.903 1359.41 885.248 1360.14 Q884.592 1360.86 883.655 1361.05 Q884.615 1361.66 886.044 1361.66 Q887.59 1361.66 888.808 1360.3 Q890.026 1358.94 890.611 1356.67 Q892.064 1351.21 892.626 1348.78 Q893.188 1346.32 893.188 1345.27 Q893.188 1344.28 892.93 1343.6 Q892.673 1342.92 892.228 1342.62 Q891.806 1342.29 891.408 1342.17 Q891.033 1342.06 890.611 1342.06 Q889.909 1342.06 889.112 1342.34 Q888.339 1342.62 887.403 1343.27 Q886.489 1343.91 885.622 1345.22 Q884.756 1346.53 884.17 1348.33 Q884.053 1348.87 883.538 1348.87 Q882.976 1348.85 882.976 1348.38 Q882.976 1347.98 883.28 1347.16 Q883.608 1346.32 884.264 1345.27 Q884.943 1344.21 885.81 1343.27 Q886.7 1342.31 887.988 1341.66 Q889.3 1341 890.705 1341 Q891.337 1341 891.946 1341.14 Q892.579 1341.26 893.328 1341.61 Q894.101 1341.96 894.781 1342.74 Q895.46 1343.51 895.881 1344.63 Q896.163 1344.09 896.537 1343.58 Q896.935 1343.06 897.544 1342.43 Q898.177 1341.78 899.043 1341.4 Q899.934 1341 900.917 1341 Q901.878 1341 902.814 1341.26 Q903.751 1341.49 904.548 1342.27 Q905.368 1343.02 905.368 1344.16 Z" fill="#000000" fill-rule="nonzero" fill-opacity="1" /><path clip-path="url(#clip480)" d="M909.98 1373.72 Q909.98 1373.49 910.589 1372.9 Q918.318 1365.03 918.318 1350.21 Q918.318 1335.33 910.894 1327.82 Q909.98 1326.95 909.98 1326.69 Q909.98 1326.22 910.449 1326.22 Q910.776 1326.22 911.924 1327.18 Q913.095 1328.14 914.852 1330.35 Q916.632 1332.55 917.944 1335.24 Q921.106 1341.78 921.106 1350.21 Q921.106 1358.31 918.084 1364.85 Q916.796 1367.59 914.992 1369.88 Q913.189 1372.18 911.994 1373.19 Q910.8 1374.19 910.449 1374.19 Q909.98 1374.19 909.98 1373.72 Z" fill="#000000" fill-rule="nonzero" fill-opacity="1" /><path clip-path="url(#clip480)" d="M941.7 1354.92 Q941.747 1354.33 942.661 1354.33 L972.056 1354.33 Q973.438 1354.33 973.461 1354.87 Q973.461 1355.45 972.149 1355.43 L942.989 1355.43 Q941.7 1355.45 941.7 1354.92 M941.7 1345.55 Q941.7 1344.96 942.707 1344.98 L972.009 1344.98 Q973.438 1344.98 973.461 1345.55 Q973.461 1346.09 972.243 1346.09 L942.661 1346.09 Q941.7 1346.09 941.7 1345.55 Z" fill="#000000" fill-rule="nonzero" fill-opacity="1" /><path clip-path="url(#clip480)" d="M1002.19 1330.88 L1002.19 1329.4 L1016.92 1306.9 Q1017.3 1306.31 1017.89 1306.33 Q1018.42 1306.33 1018.54 1306.54 Q1018.66 1306.76 1018.66 1307.58 L1018.66 1329.4 L1023.46 1329.4 L1023.46 1330.88 L1018.66 1330.88 L1018.66 1335.05 Q1018.66 1336.43 1019.22 1336.88 Q1019.81 1337.32 1022.29 1337.32 L1023.3 1337.32 L1023.3 1338.8 Q1021.33 1338.66 1016.78 1338.66 Q1012.26 1338.66 1010.3 1338.8 L1010.3 1337.32 L1011.3 1337.32 Q1013.79 1337.32 1014.37 1336.9 Q1014.96 1336.45 1014.96 1335.05 L1014.96 1330.88 L1002.19 1330.88 M1003.55 1329.4 L1015.24 1329.4 L1015.24 1311.51 L1003.55 1329.4 Z" fill="#000000" fill-rule="nonzero" fill-opacity="1" /><path clip-path="url(#clip480)" d="M1002.19 1351.6 L1028.36 1351.6 L1028.36 1349.04 L1002.19 1349.04  Z" fill="#000000" fill-rule="evenodd" fill-opacity="1"/>
<path clip-path="url(#clip480)" d="M1003.19 1385.75 Q1003.19 1384.32 1003.96 1383.78 Q1004.74 1383.22 1005.56 1383.22 Q1006.66 1383.22 1007.29 1383.92 Q1007.95 1384.6 1007.95 1385.56 Q1007.95 1386.52 1007.29 1387.22 Q1006.66 1387.9 1005.56 1387.9 Q1005.02 1387.9 1004.74 1387.81 Q1005.37 1390.01 1007.29 1391.6 Q1009.23 1393.2 1011.79 1393.2 Q1015 1393.2 1016.92 1390.08 Q1018.07 1388.07 1018.07 1383.5 Q1018.07 1379.47 1017.2 1377.46 Q1015.86 1374.39 1013.12 1374.39 Q1009.23 1374.39 1006.94 1377.74 Q1006.66 1378.16 1006.33 1378.18 Q1005.86 1378.18 1005.75 1377.93 Q1005.65 1377.64 1005.65 1376.92 L1005.65 1362.72 Q1005.65 1361.58 1006.12 1361.58 Q1006.31 1361.58 1006.71 1361.72 Q1009.73 1363.05 1013.08 1363.08 Q1016.52 1363.08 1019.61 1361.67 Q1019.85 1361.53 1019.99 1361.53 Q1020.45 1361.53 1020.48 1362.07 Q1020.48 1362.26 1020.08 1362.82 Q1019.7 1363.36 1018.89 1364.08 Q1018.07 1364.79 1017.01 1365.46 Q1015.96 1366.14 1014.41 1366.61 Q1012.89 1367.06 1011.2 1367.06 Q1009.19 1367.06 1007.13 1366.42 L1007.13 1375.77 Q1009.61 1373.33 1013.22 1373.33 Q1017.06 1373.33 1019.7 1376.43 Q1022.35 1379.52 1022.35 1383.83 Q1022.35 1388.35 1019.21 1391.44 Q1016.1 1394.53 1011.88 1394.53 Q1008.04 1394.53 1005.6 1391.79 Q1003.19 1389.05 1003.19 1385.75 Z" fill="#000000" fill-rule="nonzero" fill-opacity="1" /><path clip-path="url(#clip480)" d="M1033.48 1345.41 Q1033.48 1338.4 1036.09 1332.75 Q1037.2 1330.39 1038.76 1328.4 Q1040.32 1326.42 1041.36 1325.55 Q1042.39 1324.68 1042.67 1324.68 Q1043.08 1324.68 1043.1 1325.08 Q1043.1 1325.28 1042.55 1325.79 Q1035.87 1332.59 1035.89 1345.41 Q1035.89 1358.27 1042.39 1364.81 Q1043.1 1365.52 1043.1 1365.74 Q1043.1 1366.15 1042.67 1366.15 Q1042.39 1366.15 1041.4 1365.32 Q1040.4 1364.49 1038.87 1362.58 Q1037.33 1360.68 1036.21 1358.35 Q1033.48 1352.7 1033.48 1345.41 Z" fill="#000000" fill-rule="nonzero" fill-opacity="1" /><path clip-path="url(#clip480)" d="M1054.52 1334.82 L1054.52 1333.32 Q1060.28 1333.32 1063.26 1330.25 Q1064.07 1330.25 1064.22 1330.44 Q1064.36 1330.63 1064.36 1331.49 L1064.36 1358.41 Q1064.36 1359.83 1065.06 1360.28 Q1065.76 1360.72 1068.83 1360.72 L1070.35 1360.72 L1070.35 1362.2 Q1068.67 1362.06 1062.58 1362.06 Q1056.49 1362.06 1054.82 1362.2 L1054.82 1360.72 L1056.35 1360.72 Q1059.37 1360.72 1060.09 1360.3 Q1060.82 1359.86 1060.82 1358.41 L1060.82 1333.55 Q1058.31 1334.82 1054.52 1334.82 Z" fill="#000000" fill-rule="nonzero" fill-opacity="1" /><path clip-path="url(#clip480)" d="M1092.67 1350.79 Q1091.57 1350.79 1091.57 1350.21 Q1091.57 1349.62 1092.72 1349.62 Q1092.86 1349.62 1093.1 1349.65 Q1093.35 1349.67 1093.4 1349.67 L1106.92 1349.67 L1106.92 1336.11 Q1106.92 1336.06 1106.89 1335.85 Q1106.87 1335.62 1106.87 1335.48 Q1106.87 1334.33 1107.43 1334.33 Q1108.02 1334.33 1108.02 1335.48 L1108.02 1349.67 L1121.55 1349.67 Q1121.6 1349.67 1121.84 1349.65 Q1122.07 1349.62 1122.21 1349.62 Q1123.31 1349.62 1123.31 1350.21 Q1123.33 1350.79 1122.16 1350.79 Q1122.02 1350.79 1121.81 1350.77 Q1121.6 1350.75 1121.55 1350.75 L1108.02 1350.75 L1108.02 1364.99 Q1108.02 1366.09 1107.43 1366.09 Q1106.87 1366.09 1106.87 1364.94 Q1106.87 1364.8 1106.89 1364.57 Q1106.92 1364.35 1106.92 1364.31 L1106.92 1350.75 L1093.4 1350.75 Q1093.35 1350.75 1093.07 1350.77 Q1092.81 1350.79 1092.67 1350.79 Z" fill="#000000" fill-rule="nonzero" fill-opacity="1" /><path clip-path="url(#clip480)" d="M1165.72 1344.16 Q1165.72 1345.48 1164.9 1346.23 Q1164.08 1346.95 1163.14 1346.95 Q1162.25 1346.95 1161.78 1346.44 Q1161.31 1345.92 1161.31 1345.27 Q1161.31 1344.38 1161.97 1343.6 Q1162.62 1342.83 1163.61 1342.67 Q1162.65 1342.06 1161.22 1342.06 Q1160.28 1342.06 1159.46 1342.55 Q1158.67 1343.04 1158.17 1343.67 Q1157.71 1344.31 1157.28 1345.22 Q1156.89 1346.11 1156.72 1346.65 Q1156.58 1347.16 1156.46 1347.72 L1154.82 1354.28 Q1154.03 1357.4 1154.03 1358.5 Q1154.03 1359.86 1154.68 1360.77 Q1155.34 1361.66 1156.65 1361.66 Q1157.17 1361.66 1157.75 1361.52 Q1158.34 1361.36 1159.09 1360.94 Q1159.86 1360.49 1160.54 1359.83 Q1161.24 1359.16 1161.92 1358.01 Q1162.6 1356.86 1163.05 1355.38 Q1163.19 1354.87 1163.65 1354.87 Q1164.24 1354.87 1164.24 1355.34 Q1164.24 1355.74 1163.91 1356.58 Q1163.61 1357.4 1162.93 1358.48 Q1162.27 1359.53 1161.41 1360.49 Q1160.54 1361.43 1159.25 1362.08 Q1157.96 1362.74 1156.56 1362.74 Q1154.54 1362.74 1153.21 1361.66 Q1151.87 1360.58 1151.38 1359.08 Q1151.26 1359.3 1151.1 1359.58 Q1150.94 1359.86 1150.44 1360.49 Q1149.98 1361.1 1149.44 1361.57 Q1148.9 1362.01 1148.06 1362.36 Q1147.24 1362.74 1146.35 1362.74 Q1145.22 1362.74 1144.21 1362.41 Q1143.23 1362.08 1142.53 1361.33 Q1141.83 1360.58 1141.83 1359.55 Q1141.83 1358.41 1142.6 1357.61 Q1143.39 1356.79 1144.47 1356.79 Q1145.15 1356.79 1145.69 1357.19 Q1146.25 1357.59 1146.25 1358.45 Q1146.25 1359.41 1145.6 1360.14 Q1144.94 1360.86 1144 1361.05 Q1144.96 1361.66 1146.39 1361.66 Q1147.94 1361.66 1149.16 1360.3 Q1150.37 1358.94 1150.96 1356.67 Q1152.41 1351.21 1152.97 1348.78 Q1153.54 1346.32 1153.54 1345.27 Q1153.54 1344.28 1153.28 1343.6 Q1153.02 1342.92 1152.58 1342.62 Q1152.15 1342.29 1151.76 1342.17 Q1151.38 1342.06 1150.96 1342.06 Q1150.26 1342.06 1149.46 1342.34 Q1148.69 1342.62 1147.75 1343.27 Q1146.84 1343.91 1145.97 1345.22 Q1145.1 1346.53 1144.52 1348.33 Q1144.4 1348.87 1143.89 1348.87 Q1143.32 1348.85 1143.32 1348.38 Q1143.32 1347.98 1143.63 1347.16 Q1143.96 1346.32 1144.61 1345.27 Q1145.29 1344.21 1146.16 1343.27 Q1147.05 1342.31 1148.34 1341.66 Q1149.65 1341 1151.05 1341 Q1151.69 1341 1152.29 1341.14 Q1152.93 1341.26 1153.68 1341.61 Q1154.45 1341.96 1155.13 1342.74 Q1155.81 1343.51 1156.23 1344.63 Q1156.51 1344.09 1156.89 1343.58 Q1157.28 1343.06 1157.89 1342.43 Q1158.53 1341.78 1159.39 1341.4 Q1160.28 1341 1161.27 1341 Q1162.23 1341 1163.16 1341.26 Q1164.1 1341.49 1164.9 1342.27 Q1165.72 1343.02 1165.72 1344.16 Z" fill="#000000" fill-rule="nonzero" fill-opacity="1" /><path clip-path="url(#clip480)" d="M1213.96 1349.53 Q1214.24 1349.81 1214.24 1350.21 Q1214.24 1350.61 1213.96 1350.89 Q1213.68 1351.17 1213.28 1351.17 L1183.25 1351.17 Q1182.85 1351.17 1182.57 1350.89 Q1182.29 1350.61 1182.29 1350.21 Q1182.29 1349.81 1182.57 1349.53 Q1182.85 1349.25 1183.25 1349.25 L1213.28 1349.25 Q1213.68 1349.25 1213.96 1349.53 Z" fill="#000000" fill-rule="nonzero" fill-opacity="1" /><path clip-path="url(#clip480)" d="M1256.43 1344.16 Q1256.43 1345.48 1255.61 1346.23 Q1254.79 1346.95 1253.86 1346.95 Q1252.97 1346.95 1252.5 1346.44 Q1252.03 1345.92 1252.03 1345.27 Q1252.03 1344.38 1252.68 1343.6 Q1253.34 1342.83 1254.32 1342.67 Q1253.36 1342.06 1251.93 1342.06 Q1251 1342.06 1250.18 1342.55 Q1249.38 1343.04 1248.89 1343.67 Q1248.42 1344.31 1248 1345.22 Q1247.6 1346.11 1247.44 1346.65 Q1247.3 1347.16 1247.18 1347.72 L1245.54 1354.28 Q1244.74 1357.4 1244.74 1358.5 Q1244.74 1359.86 1245.4 1360.77 Q1246.06 1361.66 1247.37 1361.66 Q1247.88 1361.66 1248.47 1361.52 Q1249.05 1361.36 1249.8 1360.94 Q1250.58 1360.49 1251.26 1359.83 Q1251.96 1359.16 1252.64 1358.01 Q1253.32 1356.86 1253.76 1355.38 Q1253.9 1354.87 1254.37 1354.87 Q1254.96 1354.87 1254.96 1355.34 Q1254.96 1355.74 1254.63 1356.58 Q1254.32 1357.4 1253.64 1358.48 Q1252.99 1359.53 1252.12 1360.49 Q1251.26 1361.43 1249.97 1362.08 Q1248.68 1362.74 1247.27 1362.74 Q1245.26 1362.74 1243.92 1361.66 Q1242.59 1360.58 1242.1 1359.08 Q1241.98 1359.3 1241.82 1359.58 Q1241.65 1359.86 1241.16 1360.49 Q1240.69 1361.1 1240.15 1361.57 Q1239.61 1362.01 1238.77 1362.36 Q1237.95 1362.74 1237.06 1362.74 Q1235.94 1362.74 1234.93 1362.41 Q1233.95 1362.08 1233.24 1361.33 Q1232.54 1360.58 1232.54 1359.55 Q1232.54 1358.41 1233.31 1357.61 Q1234.11 1356.79 1235.19 1356.79 Q1235.87 1356.79 1236.41 1357.19 Q1236.97 1357.59 1236.97 1358.45 Q1236.97 1359.41 1236.31 1360.14 Q1235.66 1360.86 1234.72 1361.05 Q1235.68 1361.66 1237.11 1361.66 Q1238.65 1361.66 1239.87 1360.3 Q1241.09 1358.94 1241.68 1356.67 Q1243.13 1351.21 1243.69 1348.78 Q1244.25 1346.32 1244.25 1345.27 Q1244.25 1344.28 1243.99 1343.6 Q1243.74 1342.92 1243.29 1342.62 Q1242.87 1342.29 1242.47 1342.17 Q1242.1 1342.06 1241.68 1342.06 Q1240.97 1342.06 1240.18 1342.34 Q1239.4 1342.62 1238.47 1343.27 Q1237.55 1343.91 1236.69 1345.22 Q1235.82 1346.53 1235.23 1348.33 Q1235.12 1348.87 1234.6 1348.87 Q1234.04 1348.85 1234.04 1348.38 Q1234.04 1347.98 1234.34 1347.16 Q1234.67 1346.32 1235.33 1345.27 Q1236.01 1344.21 1236.87 1343.27 Q1237.76 1342.31 1239.05 1341.66 Q1240.36 1341 1241.77 1341 Q1242.4 1341 1243.01 1341.14 Q1243.64 1341.26 1244.39 1341.61 Q1245.17 1341.96 1245.84 1342.74 Q1246.52 1343.51 1246.95 1344.63 Q1247.23 1344.09 1247.6 1343.58 Q1248 1343.06 1248.61 1342.43 Q1249.24 1341.78 1250.11 1341.4 Q1251 1341 1251.98 1341 Q1252.94 1341 1253.88 1341.26 Q1254.82 1341.49 1255.61 1342.27 Q1256.43 1343.02 1256.43 1344.16 Z" fill="#000000" fill-rule="nonzero" fill-opacity="1" /><path clip-path="url(#clip480)" d="M1261.32 1342.6 Q1261.32 1341.6 1261.89 1341.13 Q1262.46 1340.65 1263.2 1340.65 Q1263.97 1340.65 1264.51 1341.16 Q1265.07 1341.65 1265.07 1342.52 Q1265.07 1343.45 1264.42 1343.98 Q1263.78 1344.5 1262.86 1344.37 Q1263.66 1345.72 1265.14 1346.32 Q1266.63 1346.93 1268.01 1346.93 Q1269.45 1346.93 1270.61 1345.68 Q1271.79 1344.44 1271.79 1341.39 Q1271.79 1338.8 1270.78 1337.31 Q1269.78 1335.81 1267.79 1335.81 L1266.32 1335.81 Q1265.81 1335.81 1265.66 1335.77 Q1265.51 1335.72 1265.51 1335.44 Q1265.51 1335.11 1266.02 1335.04 Q1266.53 1335.04 1267.33 1334.95 Q1269.29 1334.88 1270.32 1333.19 Q1271.25 1331.62 1271.25 1329.37 Q1271.25 1327.32 1270.27 1326.47 Q1269.3 1325.6 1268.04 1325.6 Q1266.86 1325.6 1265.56 1326.09 Q1264.27 1326.58 1263.56 1327.68 Q1265.65 1327.68 1265.65 1329.37 Q1265.65 1330.11 1265.17 1330.6 Q1264.71 1331.08 1263.94 1331.08 Q1263.2 1331.08 1262.71 1330.62 Q1262.22 1330.14 1262.22 1329.34 Q1262.22 1327.42 1263.92 1326.09 Q1265.65 1324.76 1268.17 1324.76 Q1270.66 1324.76 1272.5 1326.08 Q1274.35 1327.39 1274.35 1329.4 Q1274.35 1331.39 1273.04 1333.01 Q1271.73 1334.63 1269.65 1335.31 Q1272.2 1335.81 1273.73 1337.55 Q1275.25 1339.27 1275.25 1341.39 Q1275.25 1344.01 1273.19 1345.95 Q1271.12 1347.87 1268.1 1347.87 Q1265.32 1347.87 1263.32 1346.36 Q1261.32 1344.85 1261.32 1342.6 Z" fill="#000000" fill-rule="nonzero" fill-opacity="1" /><path clip-path="url(#clip480)" d="M1285.35 1365.74 Q1285.35 1365.54 1285.88 1365.03 Q1292.56 1358.23 1292.56 1345.41 Q1292.56 1332.55 1286.14 1326.05 Q1285.35 1325.3 1285.35 1325.08 Q1285.35 1324.68 1285.75 1324.68 Q1286.04 1324.68 1287.03 1325.51 Q1288.04 1326.34 1289.56 1328.24 Q1291.1 1330.14 1292.23 1332.47 Q1294.97 1338.12 1294.97 1345.41 Q1294.97 1352.42 1292.36 1358.07 Q1291.24 1360.44 1289.68 1362.42 Q1288.12 1364.4 1287.09 1365.28 Q1286.06 1366.15 1285.75 1366.15 Q1285.35 1366.15 1285.35 1365.74 Z" fill="#000000" fill-rule="nonzero" fill-opacity="1" /></svg>
